<svg width="494" height="274" viewBox="0 0 494 274" fill="none" xmlns="http://www.w3.org/2000/svg" xmlns:xlink="http://www.w3.org/1999/xlink">
<path d="M457.016,107.418C454.344,110.895 453.372,115.08 452.556,119.442C451.558,124.753 450.504,129.852 448.322,134.851C445.698,140.842 441.29,147.517 433.622,152.742C425.712,134.351 414.192,117.265 399.562,102.226C408.7,99.084 417.67,99.132 425.046,100.179C431.172,101.051 436.832,102.816 442.682,104.727C447.478,106.303 452.178,107.673 457.014,107.418L457.016,107.418ZM368.02,30.875L368.016,30.879L368.024,30.878C367.726,35.036 369.318,39.078 371.148,43.205C373.372,48.236 375.424,53.104 376.44,58.373C377.654,64.72 377.71,72.445 374.048,80.313C356.536,67.749 336.646,57.863 315.244,51.086C321.332,44.433 329.128,40.619 336.126,38.353C341.938,36.475 347.866,35.57 354.044,34.709C359.114,34.009 363.978,33.177 368.02,30.875ZM442.99,182.79C452.664,184.021 460.36,187.902 466.112,191.959C470.908,195.35 474.784,199.313 478.74,203.485C481.976,206.907 485.252,210.115 489.586,211.975L445.918,211.975C445.906,202.194 444.926,192.43 442.99,182.79ZM124.888,30.878L124.891,30.881L124.891,30.875C128.932,33.175 133.798,34.008 138.868,34.711C145.043,35.569 150.971,36.475 156.784,38.352C163.781,40.618 171.578,44.433 177.664,51.084C156.263,57.861 136.373,67.747 118.861,80.313C115.199,72.445 115.252,64.72 116.472,58.371C117.486,53.103 119.538,48.235 121.759,43.203C123.591,39.077 125.184,35.036 124.888,30.878ZM35.896,107.42L35.901,107.422L35.899,107.419C40.734,107.673 45.433,106.303 50.231,104.728C56.08,102.816 61.74,101.051 67.864,100.179C75.241,99.134 84.21,99.086 93.349,102.227C78.722,117.267 67.202,134.354 59.291,152.743C51.621,147.517 47.215,140.844 44.59,134.851C42.407,129.852 41.354,124.753 40.355,119.442C39.54,115.08 38.57,110.896 35.896,107.42ZM3.326,211.977C7.662,210.117 10.934,206.911 14.173,203.487C18.125,199.316 22.003,195.353 26.798,191.964C32.551,187.903 40.243,184.022 49.917,182.793C47.983,192.432 47.007,202.196 46.997,211.977L3.326,211.977ZM246.456,2.859L246.456,2.864L246.46,2.859C248.62,6.59 252.35,9.404 256.334,12.193C261.182,15.592 265.792,18.926 269.732,23.05C274.48,28.03 279.02,34.698 280.418,43.094C269.202,41.437 257.84,40.605 246.458,40.605C234.878,40.605 223.534,41.463 212.494,43.094C213.894,34.699 218.434,28.03 223.18,23.053C227.124,18.926 231.732,15.592 236.582,12.19C240.562,9.406 244.292,6.59 246.456,2.859Z" fill="#FAB60F"/>
<path d="M205.893,212.014L220.9,211.977C222.871,201.075 219.016,192.68 206.196,194.684C195.39,196.371 183.784,205.604 176.77,211.977L196.556,211.902C198.761,210.656 203.077,209.233 204.849,210.292C205.511,210.689 205.858,211.252 205.893,212.014Z" fill="#D52736"/>
<path d="M273.383,211.977L292.105,211.977C292.997,192.961 289.435,173.324 279.156,156.332C269.806,140.874 254.352,130.366 234.345,127.827C205.138,124.12 175.668,134.755 150.752,149.969C123.625,166.534 101.234,189.032 81.665,211.979L106.398,211.948C128.664,184.803 179.877,143.593 217.551,143.324C229.555,143.239 241.764,145.662 250.789,152.588C257.328,157.607 265.257,167.353 264.868,175.263C264.637,179.952 259.798,181.391 255.158,179.937C251.553,178.809 249.007,175.975 246.485,172.995C238.287,163.315 225.501,158.577 211.476,160.229C194.748,162.196 174.013,173.368 160.639,183.527C149.107,192.291 138.519,201.879 128.532,211.979L155.123,211.979C164.869,201.858 175.161,193.227 188.39,186.14C192.576,183.898 197.732,181.526 203.151,179.922C216.822,175.882 230.425,176.906 236.466,191.544C238.839,197.3 239.188,202.349 238.497,211.601L238.497,211.979L256.577,211.979L256.623,211.503C256.636,206.437 256.508,203.022 257.04,198.001C257.496,193.673 259.06,189.189 263.733,188.657C273.664,186.866 273.189,205.87 273.383,211.979L273.383,211.977Z" fill="#D52736"/>
<path d="M311.792,211.978L330.67,211.978C331.584,194.335 329.826,173.432 323.188,155.18C321.908,151.634 320.404,148.151 318.682,144.747C314.664,136.86 309.256,129.72 302.81,123.122C295.644,115.792 287.108,109.201 277.484,104.01C274.63,102.469 271.684,101.059 268.656,99.785L268.656,99.783C265.618,98.503 262.497,97.374 259.309,96.399L259.296,96.395C222.534,85.168 185.352,93.151 154.161,107.744C148.156,110.56 142.314,113.628 136.657,116.934C131.204,120.118 125.912,123.5 120.796,127.073L120.785,127.08C113.49,132.176 106.589,137.675 100.126,143.542C98.681,144.858 97.255,146.198 95.869,147.55C92.159,151.169 86.442,156.241 88.138,161.484C89.482,165.642 95.721,164.415 97.893,162.985C101.229,161.445 104.891,159.005 108.028,156.723C112.271,153.633 116.281,150.305 120.485,147.172C137.483,134.496 155.203,124.722 172.656,118.107C176.399,116.686 180.205,115.39 184.064,114.222C187.773,113.099 191.534,112.109 195.339,111.256L195.356,111.252C227.833,104 263.123,108.698 285.718,131.477C307.486,153.419 311.458,182.79 311.792,211.979L311.792,211.978ZM77.558,187.175C79.587,185.547 81.653,183.422 83.807,181.071C86.82,177.782 87.123,174.599 85.931,172.301C85.501,171.464 84.853,170.722 84.038,170.133C83.249,169.564 82.315,169.163 81.312,168.963C78.857,168.48 75.92,169.236 73.425,171.847C70.606,174.797 66.711,179.843 65.916,184.307C65.764,185.104 65.734,185.915 65.827,186.719C65.926,187.461 66.156,188.167 66.543,188.811L66.547,188.817C67.182,189.865 68.254,190.417 69.682,190.464C69.98,190.472 70.303,190.461 70.645,190.429C70.98,190.397 71.342,190.339 71.727,190.263L71.727,190.266L71.747,190.261C73.67,189.865 75.594,188.752 77.558,187.174L77.558,187.175Z" fill="#D52736"/>
<path d="M359.014,211.983L359.148,211.98L359.216,211.98C361.192,212.074 364.62,211.292 366.598,208.423C366.992,207.849 367.33,207.193 367.586,206.45C367.85,205.692 368.03,204.832 368.106,203.868L368.12,203.669C369.622,158.574 353.562,121.241 326.298,95.879C321.052,90.992 315.32,86.506 309.17,82.472C303.086,78.484 296.6,74.969 289.792,71.966L289.79,71.966L289.682,71.921L289.678,71.918C266.763,61.845 240.772,57.978 215.264,59.837C205.318,60.56 195.482,62.149 185.909,64.579L185.841,64.597C159.606,71.272 135.193,84.522 115.298,101.906C109.493,106.976 104.094,112.379 99.138,118.077C113.09,107.724 128.058,98.642 143.715,91.426C147.205,89.815 150.749,88.292 154.344,86.86C157.899,85.443 161.506,84.123 165.157,82.9L165.167,82.897L165.177,82.893C179.009,78.269 192.645,75.32 206.285,74.003C219.922,72.686 233.57,72.997 247.43,74.892C257.293,76.244 266.92,78.464 275.593,81.572C277.274,82.174 278.931,82.814 280.551,83.491C282.151,84.158 283.727,84.866 285.27,85.615L285.272,85.615L285.297,85.627L285.295,85.628C315.83,100.009 337.042,129.516 346.384,162.833C350.052,175.932 351.856,189.366 351.756,202.839L351.756,202.842L351.752,203.23C351.908,206.838 353.346,209.857 355.808,211.215C356.266,211.468 356.764,211.666 357.292,211.793L357.296,211.793C357.836,211.925 358.408,211.992 359.014,211.983Z" fill="#D52736"/>
<path d="M304.419,61.688C377.833,82.543 430.886,141.922 431.196,211.98L394.871,211.98C397.275,150.782 366.22,95.542 304.419,61.688Z" fill="#FAB60F"/>
<path d="M91.268,261.119L76.575,261.119L72.936,272.129L61.226,272.129L76.722,229.96L91.558,229.96L107.49,272.129L95.27,272.129L91.268,261.119ZM78.248,253.985L89.523,253.985C86.565,245.746 84.649,240.095 83.776,237.029L83.629,237.029L81.303,245.038L78.248,253.985ZM145.239,261.119L130.544,261.119L126.909,272.129L115.198,272.129L130.689,229.96L145.531,229.96L161.461,272.129L149.241,272.129L145.239,261.119ZM132.217,253.985L143.492,253.985C140.535,245.746 138.618,240.095 137.745,237.029L137.6,237.029L135.274,245.038L132.217,253.985ZM172.658,271.942L172.658,230.524C177.507,229.898 182.696,229.585 188.224,229.585C198.675,229.585 206.179,231.461 210.727,235.226C215.272,238.99 217.54,243.912 217.54,249.981C217.54,257.156 214.958,262.713 209.78,266.655C204.603,270.595 196.615,272.567 185.825,272.567C180.83,272.567 176.44,272.358 172.658,271.942ZM183.933,237.406L183.933,264.872C184.563,264.997 185.922,265.059 188.007,265.059C193.607,265.059 197.947,263.787 201.015,261.253C204.083,258.718 205.609,255.091 205.609,250.356C205.609,246.018 204.216,242.713 201.415,240.439C198.614,238.166 194.578,237.029 189.316,237.029C187.109,237.029 185.314,237.156 183.933,237.406ZM229.611,229.96L240.886,229.96L240.886,246.164L260.162,246.164L260.162,229.962L271.438,229.962L271.438,272.129L260.162,272.129L260.162,254.548L240.886,254.548L240.886,272.129L229.611,272.129L229.611,229.96ZM312.314,261.119L297.62,261.119L293.982,272.129L282.272,272.129L297.766,229.96L312.604,229.96L328.536,272.129L316.314,272.129L312.314,261.119ZM299.292,253.985L310.568,253.985C307.61,245.746 305.694,240.095 304.82,237.029L304.676,237.029L302.348,245.038L299.292,253.985ZM366.284,261.119L351.59,261.119L347.952,272.129L336.24,272.129L351.734,229.96L366.574,229.96L382.504,272.129L370.286,272.129L366.284,261.119ZM353.262,253.985L364.538,253.985C361.58,245.746 359.662,240.095 358.79,237.029L358.646,237.029L356.316,245.038L353.262,253.985ZM393.702,272.128L393.702,230.524C397.826,229.898 402.892,229.585 408.906,229.585C416.326,229.585 421.66,230.639 424.908,232.745C428.158,234.851 429.782,237.865 429.782,241.785C429.782,244.122 428.97,246.228 427.332,248.116C425.742,249.975 423.524,251.369 420.982,252.108L420.982,252.357C424.036,253.339 426.242,255.925 427.602,260.116C430.098,267.665 431.454,271.67 431.674,272.129L420.18,272.129C419.212,270.565 418.048,267.291 416.688,262.306C416.01,259.804 415.088,258.052 413.926,257.051C412.762,256.05 410.894,255.55 408.324,255.55L404.832,255.55L404.832,272.129L393.702,272.129L393.702,272.128ZM404.832,237.029L404.832,248.604L409.488,248.604C412.3,248.604 414.518,248.052 416.144,246.957C417.768,245.862 418.58,244.392 418.58,242.535C418.58,240.68 417.852,239.24 416.386,238.23C414.92,237.217 412.834,236.717 410.144,236.717C407.5,236.717 405.73,236.822 404.832,237.029Z" fill="#D52736"/>
</svg>
