<svg width="50" height="50" viewBox="0 0 50 50" fill="none" xmlns="http://www.w3.org/2000/svg" xmlns:xlink="http://www.w3.org/1999/xlink">
<path d="M13.577,24.099L24.379,41.079C24.445,41.183 24.537,41.269 24.646,41.329C24.754,41.389 24.876,41.42 25,41.42C25.124,41.42 25.246,41.389 25.354,41.329C25.463,41.269 25.555,41.183 25.621,41.079L36.423,24.099C36.436,24.078 36.448,24.056 36.459,24.033C38.27,21.596 39.246,18.639 39.241,15.602C39.241,11.825 37.741,8.203 35.07,5.532C32.399,2.861 28.777,1.361 25,1.361C21.223,1.361 17.601,2.861 14.93,5.532C12.259,8.203 10.759,11.825 10.759,15.602C10.754,18.637 11.729,21.593 13.538,24.03C13.55,24.053 13.562,24.077 13.577,24.099ZM25,2.832C28.386,2.836 31.631,4.183 34.025,6.577C36.419,8.971 37.766,12.217 37.77,15.602C37.773,18.367 36.87,21.056 35.199,23.258C35.162,23.308 35.131,23.363 35.108,23.421L25,39.313L14.896,23.431C14.872,23.371 14.84,23.314 14.801,23.262C13.13,21.059 12.227,18.37 12.23,15.605C12.233,12.219 13.58,8.972 15.974,6.578C18.368,4.183 21.614,2.836 25,2.832Z" fill="#1E6C85"/>
<path d="M31.841,39.796C31.646,39.78 31.453,39.842 31.304,39.969C31.155,40.095 31.063,40.275 31.047,40.47C31.031,40.664 31.093,40.857 31.219,41.006C31.345,41.155 31.526,41.248 31.72,41.264C36.334,41.642 39.089,42.674 39.089,44.023C39.089,45.022 34.116,46.966 25,46.966C15.884,46.966 10.911,45.022 10.911,44.023C10.911,43.381 11.614,41.826 18.162,41.273C18.354,41.253 18.53,41.159 18.654,41.011C18.777,40.862 18.837,40.671 18.82,40.479C18.804,40.286 18.713,40.108 18.566,39.982C18.42,39.857 18.23,39.794 18.037,39.807C12.252,40.296 9.439,41.675 9.439,44.025C9.439,47.057 17.505,48.438 25,48.438C32.494,48.438 40.561,47.057 40.561,44.023C40.561,41.661 37.709,40.278 31.841,39.796ZM17.109,18.06L19.062,18.06L19.062,24.259C19.062,24.355 19.082,24.451 19.119,24.54C19.156,24.63 19.21,24.711 19.278,24.779C19.346,24.847 19.428,24.901 19.517,24.938C19.606,24.975 19.702,24.994 19.798,24.994L30.201,24.994C30.297,24.994 30.393,24.975 30.482,24.938C30.572,24.901 30.653,24.847 30.721,24.779C30.789,24.711 30.844,24.63 30.881,24.54C30.918,24.451 30.937,24.355 30.937,24.259L30.937,18.06L32.89,18.06C33.242,18.071 33.589,17.974 33.884,17.781C34.179,17.588 34.407,17.309 34.537,16.981C34.639,16.695 34.646,16.384 34.559,16.094C34.471,15.803 34.294,15.547 34.051,15.364L26.161,8.965C25.828,8.708 25.42,8.569 24.999,8.569C24.579,8.569 24.17,8.708 23.837,8.965L15.947,15.363C15.705,15.546 15.527,15.802 15.44,16.092C15.353,16.383 15.36,16.694 15.461,16.98C15.591,17.308 15.819,17.587 16.114,17.78C16.409,17.974 16.757,18.071 17.109,18.06ZM26.277,23.523L24.011,23.523C24.101,23.403 24.152,23.258 24.155,23.108L24.155,20.52C24.152,20.387 24.175,20.256 24.223,20.132C24.271,20.009 24.343,19.896 24.435,19.801C24.528,19.706 24.638,19.631 24.76,19.579C24.882,19.528 25.013,19.501 25.146,19.501C25.278,19.501 25.409,19.528 25.531,19.579C25.653,19.631 25.764,19.706 25.856,19.801C25.948,19.896 26.021,20.009 26.069,20.132C26.117,20.256 26.14,20.387 26.136,20.52L26.136,23.108C26.138,23.257 26.187,23.402 26.275,23.523L26.277,23.523ZM24.766,10.108C24.835,10.062 24.917,10.038 25,10.038C25.083,10.038 25.165,10.062 25.234,10.108L33.125,16.506L33.151,16.488C33.143,16.508 33.073,16.587 32.89,16.587L30.201,16.587C30.006,16.587 29.818,16.664 29.68,16.802C29.542,16.94 29.465,17.128 29.465,17.323L29.465,23.522L27.458,23.522C27.548,23.402 27.598,23.257 27.602,23.107L27.602,20.52C27.61,20.191 27.552,19.865 27.432,19.559C27.312,19.253 27.132,18.974 26.903,18.739C26.674,18.504 26.4,18.317 26.097,18.189C25.794,18.062 25.469,17.996 25.141,17.996C24.812,17.996 24.487,18.062 24.184,18.189C23.882,18.317 23.607,18.504 23.378,18.739C23.149,18.974 22.969,19.253 22.849,19.559C22.729,19.865 22.671,20.191 22.68,20.52L22.68,23.108C22.683,23.258 22.734,23.403 22.824,23.523L20.535,23.523L20.535,17.324C20.535,17.227 20.516,17.131 20.479,17.042C20.443,16.953 20.388,16.872 20.32,16.803C20.252,16.735 20.171,16.681 20.082,16.644C19.992,16.607 19.897,16.588 19.8,16.588L17.109,16.588C16.927,16.588 16.855,16.51 16.875,16.51L24.766,10.108Z" fill="#1E6C85"/>
</svg>
