<svg width="32" height="30" viewBox="0 0 32 30" fill="none" xmlns="http://www.w3.org/2000/svg" xmlns:xlink="http://www.w3.org/1999/xlink">
<path d="M8.748,14.46L15.392,24.647C15.432,24.71 15.489,24.762 15.556,24.798C15.622,24.833 15.697,24.852 15.774,24.852C15.85,24.852 15.925,24.833 15.991,24.798C16.058,24.762 16.115,24.71 16.156,24.647L22.798,14.46C22.806,14.447 22.814,14.434 22.821,14.42C23.934,12.958 24.534,11.183 24.532,9.361C24.532,7.095 23.609,4.922 21.966,3.319C20.324,1.717 18.096,0.817 15.774,0.817C13.451,0.817 11.223,1.717 9.581,3.319C7.938,4.922 7.016,7.095 7.016,9.361C7.013,11.183 7.612,12.956 8.725,14.418C8.732,14.432 8.74,14.446 8.748,14.46ZM15.774,1.699C17.856,1.702 19.852,2.51 21.324,3.946C22.796,5.383 23.624,7.33 23.626,9.361C23.628,11.02 23.073,12.634 22.046,13.955C22.023,13.985 22.004,14.018 21.99,14.053L15.774,23.588L9.56,14.059C9.545,14.023 9.525,13.988 9.501,13.957C8.474,12.636 7.919,11.022 7.921,9.363C7.922,7.332 8.75,5.384 10.223,3.947C11.695,2.51 13.691,1.702 15.774,1.699Z" fill="#1E6C85"/>
<path d="M19.98,23.878C19.861,23.868 19.742,23.905 19.651,23.981C19.559,24.057 19.502,24.165 19.492,24.282C19.482,24.398 19.521,24.514 19.598,24.603C19.676,24.693 19.787,24.748 19.906,24.758C22.744,24.985 24.438,25.604 24.438,26.414C24.438,27.013 21.379,28.179 15.774,28.179C10.168,28.179 7.109,27.013 7.109,26.414C7.109,26.028 7.542,25.095 11.568,24.763C11.686,24.752 11.795,24.695 11.871,24.606C11.947,24.517 11.983,24.402 11.973,24.287C11.963,24.172 11.907,24.065 11.817,23.989C11.727,23.914 11.61,23.876 11.492,23.884C7.934,24.177 6.204,25.005 6.204,26.415C6.204,28.234 11.165,29.062 15.774,29.062C20.383,29.062 25.343,28.234 25.343,26.414C25.343,24.996 23.589,24.167 19.98,23.878ZM10.921,10.835L12.122,10.835L12.122,14.555C12.122,14.613 12.134,14.67 12.157,14.724C12.179,14.777 12.213,14.826 12.255,14.867C12.297,14.908 12.347,14.941 12.402,14.963C12.457,14.985 12.515,14.996 12.575,14.996L18.972,14.996C19.031,14.996 19.09,14.985 19.145,14.963C19.2,14.941 19.25,14.908 19.292,14.867C19.334,14.826 19.367,14.777 19.39,14.724C19.413,14.67 19.425,14.613 19.425,14.555L19.425,10.835L20.626,10.835C20.842,10.842 21.056,10.784 21.237,10.668C21.418,10.553 21.559,10.385 21.639,10.189C21.701,10.017 21.706,9.83 21.652,9.656C21.598,9.481 21.489,9.328 21.34,9.218L16.488,5.379C16.283,5.225 16.032,5.141 15.773,5.141C15.515,5.141 15.263,5.225 15.059,5.379L10.206,9.218C10.057,9.328 9.948,9.481 9.894,9.655C9.841,9.829 9.845,10.016 9.907,10.188C9.988,10.384 10.128,10.552 10.309,10.668C10.491,10.784 10.704,10.842 10.921,10.835ZM16.559,14.113L15.165,14.113C15.221,14.042 15.252,13.955 15.254,13.865L15.254,12.312C15.252,12.232 15.266,12.153 15.296,12.079C15.325,12.005 15.37,11.938 15.426,11.881C15.483,11.824 15.551,11.778 15.626,11.747C15.701,11.716 15.782,11.701 15.863,11.701C15.945,11.701 16.025,11.716 16.1,11.747C16.175,11.778 16.243,11.824 16.3,11.881C16.357,11.938 16.401,12.005 16.431,12.079C16.46,12.153 16.474,12.232 16.472,12.312L16.472,13.865C16.473,13.954 16.503,14.041 16.558,14.113L16.559,14.113ZM15.63,6.065C15.672,6.037 15.722,6.022 15.774,6.022C15.825,6.022 15.875,6.037 15.918,6.065L20.77,9.904L20.786,9.893C20.781,9.905 20.738,9.952 20.626,9.952L18.972,9.952C18.852,9.952 18.737,9.998 18.652,10.081C18.567,10.164 18.519,10.276 18.519,10.393L18.519,14.113L17.285,14.113C17.34,14.041 17.371,13.954 17.374,13.864L17.374,12.312C17.379,12.115 17.343,11.919 17.269,11.735C17.196,11.552 17.085,11.384 16.944,11.243C16.803,11.102 16.634,10.99 16.448,10.913C16.262,10.837 16.062,10.797 15.86,10.797C15.658,10.797 15.458,10.837 15.272,10.913C15.086,10.99 14.917,11.102 14.776,11.243C14.635,11.384 14.525,11.552 14.451,11.735C14.377,11.919 14.342,12.115 14.347,12.312L14.347,13.865C14.349,13.955 14.38,14.042 14.436,14.113L13.028,14.113L13.028,10.394C13.028,10.336 13.016,10.279 12.994,10.225C12.971,10.171 12.938,10.123 12.896,10.082C12.854,10.041 12.804,10.008 12.749,9.986C12.694,9.964 12.635,9.952 12.576,9.952L10.921,9.952C10.809,9.952 10.765,9.905 10.777,9.905L15.63,6.065Z" fill="#1E6C85"/>
</svg>
