<svg width="34" height="30" viewBox="0 0 34 30" fill="none" xmlns="http://www.w3.org/2000/svg" xmlns:xlink="http://www.w3.org/1999/xlink">
<path d="M9.233,14.46L16.006,24.647C16.048,24.71 16.105,24.762 16.173,24.798C16.241,24.833 16.318,24.852 16.396,24.852C16.473,24.852 16.55,24.833 16.618,24.798C16.686,24.762 16.743,24.71 16.785,24.647L23.558,14.46C23.566,14.447 23.574,14.434 23.581,14.42C24.716,12.958 25.328,11.183 25.325,9.361C25.325,7.095 24.384,4.922 22.71,3.319C21.035,1.717 18.764,0.817 16.396,0.817C14.027,0.817 11.756,1.717 10.081,3.319C8.407,4.922 7.466,7.095 7.466,9.361C7.463,11.183 8.075,12.956 9.209,14.418C9.216,14.432 9.224,14.446 9.233,14.46ZM16.396,1.699C18.518,1.702 20.554,2.51 22.055,3.946C23.556,5.383 24.4,7.33 24.402,9.361C24.404,11.02 23.838,12.634 22.791,13.955C22.767,13.985 22.748,14.018 22.733,14.053L16.396,23.588L10.06,14.059C10.045,14.023 10.025,13.988 10.001,13.957C8.953,12.636 8.387,11.022 8.389,9.363C8.391,7.332 9.235,5.384 10.736,3.947C12.237,2.51 14.272,1.702 16.396,1.699Z" fill="#1E6C85"/>
<path d="M20.685,23.878C20.563,23.868 20.442,23.905 20.348,23.981C20.255,24.057 20.197,24.165 20.187,24.282C20.177,24.398 20.216,24.514 20.295,24.603C20.374,24.693 20.487,24.748 20.609,24.758C23.502,24.985 25.23,25.604 25.23,26.414C25.23,27.013 22.111,28.179 16.396,28.179C10.68,28.179 7.562,27.013 7.562,26.414C7.562,26.028 8.002,25.095 12.108,24.763C12.228,24.752 12.339,24.695 12.416,24.606C12.493,24.517 12.531,24.402 12.521,24.287C12.511,24.172 12.453,24.065 12.362,23.989C12.27,23.914 12.151,23.876 12.03,23.884C8.402,24.177 6.639,25.005 6.639,26.415C6.639,28.234 11.696,29.062 16.396,29.062C21.095,29.062 26.152,28.234 26.152,26.414C26.152,24.996 24.364,24.167 20.685,23.878ZM11.448,10.835L12.673,10.835L12.673,14.555C12.673,14.613 12.685,14.67 12.708,14.724C12.731,14.777 12.765,14.826 12.808,14.867C12.851,14.908 12.902,14.941 12.958,14.963C13.014,14.985 13.074,14.996 13.134,14.996L19.656,14.996C19.717,14.996 19.777,14.985 19.833,14.963C19.889,14.941 19.94,14.908 19.983,14.867C20.026,14.826 20.06,14.777 20.083,14.724C20.106,14.67 20.118,14.613 20.118,14.555L20.118,10.835L21.343,10.835C21.563,10.842 21.781,10.784 21.966,10.668C22.151,10.553 22.294,10.385 22.376,10.189C22.439,10.017 22.444,9.83 22.389,9.656C22.334,9.481 22.223,9.328 22.071,9.218L17.123,5.379C16.915,5.225 16.659,5.141 16.395,5.141C16.131,5.141 15.875,5.225 15.667,5.379L10.719,9.218C10.567,9.328 10.456,9.481 10.401,9.655C10.346,9.829 10.351,10.016 10.414,10.188C10.496,10.384 10.639,10.552 10.824,10.668C11.009,10.784 11.227,10.842 11.448,10.835ZM17.196,14.113L15.775,14.113C15.832,14.042 15.864,13.955 15.866,13.865L15.866,12.312C15.864,12.232 15.878,12.153 15.908,12.079C15.938,12.005 15.984,11.938 16.042,11.881C16.099,11.824 16.169,11.778 16.245,11.747C16.322,11.716 16.404,11.701 16.487,11.701C16.57,11.701 16.652,11.716 16.729,11.747C16.805,11.778 16.874,11.824 16.932,11.881C16.99,11.938 17.035,12.005 17.066,12.079C17.096,12.153 17.11,12.232 17.108,12.312L17.108,13.865C17.109,13.954 17.139,14.041 17.195,14.113L17.196,14.113ZM16.249,6.065C16.292,6.037 16.343,6.022 16.396,6.022C16.448,6.022 16.499,6.037 16.542,6.065L21.49,9.904L21.506,9.893C21.501,9.905 21.457,9.952 21.343,9.952L19.656,9.952C19.534,9.952 19.417,9.998 19.33,10.081C19.244,10.164 19.195,10.276 19.195,10.393L19.195,14.113L17.937,14.113C17.993,14.041 18.024,13.954 18.027,13.864L18.027,12.312C18.032,12.115 17.996,11.919 17.921,11.735C17.845,11.552 17.733,11.384 17.589,11.243C17.445,11.102 17.273,10.99 17.083,10.913C16.894,10.837 16.69,10.797 16.484,10.797C16.278,10.797 16.074,10.837 15.884,10.913C15.694,10.99 15.522,11.102 15.379,11.243C15.235,11.384 15.122,11.552 15.047,11.735C14.972,11.919 14.935,12.115 14.941,12.312L14.941,13.865C14.943,13.955 14.975,14.042 15.031,14.113L13.596,14.113L13.596,10.394C13.596,10.336 13.584,10.279 13.561,10.225C13.538,10.171 13.504,10.123 13.461,10.082C13.418,10.041 13.368,10.008 13.312,9.986C13.256,9.964 13.196,9.952 13.135,9.952L11.448,9.952C11.334,9.952 11.289,9.905 11.301,9.905L16.249,6.065Z" fill="#1E6C85"/>
</svg>
