<svg width="30" height="30" viewBox="0 0 30 30" fill="none" xmlns="http://www.w3.org/2000/svg" xmlns:xlink="http://www.w3.org/1999/xlink">
<path d="M8.146,14.459L14.627,24.647C14.667,24.71 14.722,24.762 14.787,24.797C14.852,24.833 14.926,24.852 15,24.852C15.074,24.852 15.147,24.833 15.213,24.797C15.278,24.762 15.333,24.71 15.373,24.647L21.854,14.459C21.862,14.447 21.869,14.434 21.876,14.42C22.962,12.957 23.547,11.183 23.545,9.361C23.545,7.095 22.645,4.922 21.042,3.319C19.44,1.717 17.266,0.816 15,0.816C12.734,0.816 10.56,1.717 8.958,3.319C7.355,4.922 6.455,7.095 6.455,9.361C6.452,11.182 7.037,12.956 8.123,14.418C8.13,14.432 8.137,14.446 8.146,14.459ZM15,1.699C17.031,1.701 18.979,2.509 20.415,3.946C21.851,5.382 22.659,7.33 22.662,9.361C22.663,11.02 22.122,12.633 21.119,13.955C21.097,13.985 21.078,14.018 21.065,14.053L15,23.588L8.938,14.059C8.923,14.022 8.904,13.988 8.88,13.957C7.878,12.635 7.336,11.022 7.338,9.363C7.34,7.331 8.148,5.383 9.584,3.947C11.02,2.51 12.968,1.701 15,1.699Z" fill="#1E6C85"/>
<path d="M19.105,23.878C18.988,23.868 18.872,23.905 18.783,23.981C18.693,24.057 18.638,24.165 18.628,24.282C18.619,24.399 18.656,24.514 18.732,24.604C18.807,24.693 18.916,24.749 19.032,24.758C21.801,24.985 23.454,25.605 23.454,26.414C23.454,27.013 20.47,28.179 15,28.179C9.531,28.179 6.547,27.013 6.547,26.414C6.547,26.028 6.969,25.096 10.897,24.764C11.012,24.752 11.118,24.695 11.192,24.606C11.266,24.517 11.302,24.403 11.292,24.287C11.283,24.172 11.228,24.065 11.14,23.989C11.052,23.914 10.938,23.876 10.823,23.884C7.351,24.177 5.664,25.005 5.664,26.415C5.664,28.234 10.503,29.063 15,29.063C19.497,29.063 24.337,28.234 24.337,26.414C24.337,24.997 22.625,24.167 19.105,23.878ZM10.266,10.836L11.438,10.836L11.438,14.555C11.438,14.613 11.449,14.671 11.471,14.724C11.493,14.778 11.526,14.826 11.567,14.867C11.608,14.908 11.657,14.941 11.71,14.963C11.764,14.985 11.821,14.996 11.879,14.996L18.121,14.996C18.179,14.996 18.236,14.985 18.29,14.963C18.343,14.941 18.392,14.908 18.433,14.867C18.474,14.826 18.506,14.778 18.529,14.724C18.551,14.671 18.562,14.613 18.562,14.555L18.562,10.836L19.734,10.836C19.945,10.843 20.154,10.784 20.331,10.669C20.507,10.553 20.644,10.385 20.723,10.189C20.783,10.017 20.788,9.831 20.735,9.656C20.683,9.482 20.576,9.328 20.431,9.219L15.697,5.379C15.497,5.225 15.252,5.142 15,5.142C14.747,5.142 14.502,5.225 14.303,5.379L9.568,9.218C9.423,9.328 9.316,9.481 9.264,9.655C9.212,9.83 9.216,10.016 9.277,10.188C9.355,10.385 9.492,10.552 9.669,10.668C9.846,10.784 10.054,10.843 10.266,10.836ZM15.766,14.114L14.407,14.114C14.461,14.042 14.491,13.955 14.493,13.865L14.493,12.312C14.491,12.232 14.505,12.153 14.534,12.079C14.563,12.005 14.606,11.938 14.661,11.881C14.717,11.824 14.783,11.779 14.856,11.748C14.929,11.717 15.008,11.701 15.088,11.701C15.167,11.701 15.246,11.717 15.319,11.748C15.392,11.779 15.458,11.824 15.514,11.881C15.569,11.938 15.612,12.005 15.641,12.079C15.67,12.153 15.684,12.232 15.682,12.312L15.682,13.865C15.683,13.954 15.712,14.041 15.765,14.114L15.766,14.114ZM14.86,6.065C14.901,6.037 14.95,6.023 15,6.023C15.05,6.023 15.099,6.037 15.141,6.065L19.875,9.904L19.891,9.893C19.886,9.905 19.844,9.952 19.734,9.952L18.121,9.952C18.003,9.952 17.891,9.999 17.808,10.081C17.726,10.164 17.679,10.277 17.679,10.394L17.679,14.113L16.475,14.113C16.529,14.041 16.559,13.954 16.561,13.864L16.561,12.312C16.566,12.115 16.532,11.919 16.46,11.735C16.388,11.552 16.28,11.385 16.142,11.243C16.004,11.102 15.84,10.99 15.658,10.914C15.477,10.837 15.282,10.798 15.085,10.798C14.887,10.798 14.692,10.837 14.511,10.914C14.329,10.99 14.165,11.102 14.027,11.243C13.889,11.385 13.781,11.552 13.709,11.735C13.638,11.919 13.603,12.115 13.608,12.312L13.608,13.865C13.61,13.955 13.64,14.042 13.695,14.114L12.321,14.114L12.321,10.394C12.321,10.336 12.31,10.279 12.288,10.225C12.266,10.172 12.233,10.123 12.192,10.082C12.151,10.041 12.103,10.008 12.049,9.986C11.995,9.964 11.938,9.953 11.88,9.953L10.266,9.953C10.157,9.953 10.113,9.906 10.125,9.906L14.86,6.065Z" fill="#1E6C85"/>
</svg>
