<svg width="30" height="30" viewBox="0 0 30 30" fill="none" xmlns="http://www.w3.org/2000/svg" xmlns:xlink="http://www.w3.org/1999/xlink">
<path d="M8.146,14.46L14.627,24.647C14.667,24.71 14.722,24.762 14.787,24.798C14.852,24.833 14.926,24.852 15,24.852C15.074,24.852 15.147,24.833 15.213,24.798C15.278,24.762 15.333,24.71 15.373,24.647L21.854,14.46C21.862,14.447 21.869,14.434 21.876,14.42C22.962,12.958 23.547,11.183 23.545,9.361C23.545,7.095 22.645,4.922 21.042,3.319C19.44,1.717 17.266,0.817 15,0.817C12.734,0.817 10.56,1.717 8.958,3.319C7.355,4.922 6.455,7.095 6.455,9.361C6.452,11.183 7.037,12.956 8.123,14.418C8.13,14.432 8.137,14.446 8.146,14.46ZM15,1.699C17.031,1.702 18.979,2.51 20.415,3.946C21.851,5.383 22.659,7.33 22.662,9.361C22.663,11.02 22.122,12.634 21.119,13.955C21.097,13.985 21.078,14.018 21.065,14.053L15,23.588L8.938,14.059C8.923,14.023 8.904,13.988 8.88,13.957C7.878,12.636 7.336,11.022 7.338,9.363C7.34,7.332 8.148,5.384 9.584,3.947C11.02,2.51 12.968,1.702 15,1.699Z" fill="#1E6C85"/>
<path d="M19.104,23.878C18.988,23.868 18.872,23.905 18.782,23.981C18.693,24.057 18.638,24.165 18.628,24.282C18.618,24.398 18.656,24.514 18.731,24.603C18.807,24.693 18.915,24.748 19.032,24.758C21.801,24.985 23.453,25.604 23.453,26.414C23.453,27.013 20.469,28.179 15,28.179C9.531,28.179 6.546,27.013 6.546,26.414C6.546,26.028 6.968,25.095 10.897,24.763C11.012,24.752 11.118,24.695 11.192,24.606C11.266,24.517 11.302,24.402 11.292,24.287C11.282,24.172 11.228,24.065 11.14,23.989C11.052,23.914 10.938,23.876 10.822,23.884C7.351,24.177 5.663,25.005 5.663,26.415C5.663,28.234 10.503,29.062 15,29.062C19.497,29.062 24.336,28.234 24.336,26.414C24.336,24.996 22.625,24.167 19.104,23.878ZM10.266,10.835L11.437,10.835L11.437,14.555C11.437,14.613 11.449,14.67 11.471,14.724C11.493,14.777 11.526,14.826 11.567,14.867C11.608,14.908 11.656,14.941 11.71,14.963C11.764,14.985 11.821,14.996 11.879,14.996L18.12,14.996C18.178,14.996 18.236,14.985 18.289,14.963C18.343,14.941 18.392,14.908 18.433,14.867C18.474,14.826 18.506,14.777 18.528,14.724C18.55,14.67 18.562,14.613 18.562,14.555L18.562,10.835L19.734,10.835C19.945,10.842 20.153,10.784 20.33,10.668C20.507,10.553 20.644,10.385 20.722,10.189C20.783,10.017 20.787,9.83 20.735,9.656C20.683,9.481 20.576,9.328 20.431,9.218L15.696,5.379C15.497,5.225 15.252,5.141 14.999,5.141C14.747,5.141 14.502,5.225 14.302,5.379L9.568,9.218C9.423,9.328 9.316,9.481 9.264,9.655C9.211,9.829 9.216,10.016 9.276,10.188C9.355,10.384 9.492,10.552 9.669,10.668C9.846,10.784 10.054,10.842 10.266,10.835ZM15.766,14.113L14.406,14.113C14.461,14.042 14.491,13.955 14.493,13.865L14.493,12.312C14.491,12.232 14.505,12.153 14.534,12.079C14.562,12.005 14.606,11.938 14.661,11.881C14.717,11.824 14.783,11.778 14.856,11.747C14.929,11.716 15.008,11.701 15.087,11.701C15.167,11.701 15.245,11.716 15.319,11.747C15.392,11.778 15.458,11.824 15.513,11.881C15.569,11.938 15.612,12.005 15.641,12.079C15.67,12.153 15.684,12.232 15.681,12.312L15.681,13.865C15.683,13.954 15.712,14.041 15.765,14.113L15.766,14.113ZM14.859,6.065C14.901,6.037 14.95,6.022 15,6.022C15.05,6.022 15.099,6.037 15.141,6.065L19.875,9.904L19.89,9.893C19.886,9.905 19.843,9.952 19.734,9.952L18.12,9.952C18.003,9.952 17.891,9.998 17.808,10.081C17.725,10.164 17.679,10.276 17.679,10.393L17.679,14.113L16.475,14.113C16.529,14.041 16.559,13.954 16.561,13.864L16.561,12.312C16.566,12.115 16.531,11.919 16.459,11.735C16.387,11.552 16.279,11.384 16.142,11.243C16.004,11.102 15.84,10.99 15.658,10.913C15.476,10.837 15.281,10.797 15.084,10.797C14.887,10.797 14.692,10.837 14.51,10.913C14.329,10.99 14.164,11.102 14.027,11.243C13.889,11.384 13.781,11.552 13.709,11.735C13.637,11.919 13.603,12.115 13.608,12.312L13.608,13.865C13.61,13.955 13.64,14.042 13.694,14.113L12.321,14.113L12.321,10.394C12.321,10.336 12.31,10.279 12.288,10.225C12.265,10.171 12.233,10.123 12.192,10.082C12.151,10.041 12.102,10.008 12.049,9.986C11.995,9.964 11.938,9.952 11.88,9.952L10.266,9.952C10.156,9.952 10.113,9.905 10.125,9.905L14.859,6.065Z" fill="#1E6C85"/>
</svg>
