<svg width="32" height="30" viewBox="0 0 32 30" fill="none" xmlns="http://www.w3.org/2000/svg" xmlns:xlink="http://www.w3.org/1999/xlink">
<path d="M8.528,14.46L15.112,24.647C15.153,24.71 15.209,24.762 15.275,24.798C15.341,24.833 15.415,24.852 15.491,24.852C15.566,24.852 15.641,24.833 15.707,24.798C15.773,24.762 15.829,24.71 15.869,24.647L22.453,14.46C22.461,14.447 22.469,14.434 22.475,14.42C23.579,12.958 24.173,11.183 24.171,9.361C24.171,7.095 23.256,4.922 21.629,3.319C20.001,1.717 17.793,0.817 15.491,0.817C13.189,0.817 10.981,1.717 9.353,3.319C7.725,4.922 6.811,7.095 6.811,9.361C6.808,11.183 7.402,12.956 8.505,14.418C8.512,14.432 8.52,14.446 8.528,14.46ZM15.491,1.699C17.554,1.702 19.533,2.51 20.992,3.946C22.451,5.383 23.272,7.33 23.274,9.361C23.276,11.02 22.725,12.634 21.707,13.955C21.684,13.985 21.666,14.018 21.651,14.053L15.491,23.588L9.332,14.059C9.318,14.023 9.298,13.988 9.274,13.957C8.256,12.636 7.706,11.022 7.708,9.363C7.71,7.332 8.53,5.384 9.989,3.947C11.448,2.51 13.427,1.702 15.491,1.699Z" fill="#1E6C85"/>
<path d="M19.66,23.878C19.541,23.868 19.424,23.905 19.333,23.981C19.242,24.057 19.186,24.165 19.176,24.282C19.167,24.398 19.204,24.514 19.281,24.603C19.358,24.693 19.468,24.748 19.587,24.758C22.399,24.985 24.078,25.604 24.078,26.414C24.078,27.013 21.047,28.179 15.491,28.179C9.935,28.179 6.903,27.013 6.903,26.414C6.903,26.028 7.332,25.095 11.323,24.763C11.44,24.752 11.547,24.695 11.623,24.606C11.698,24.517 11.734,24.402 11.724,24.287C11.714,24.172 11.659,24.065 11.569,23.989C11.48,23.914 11.364,23.876 11.247,23.884C7.721,24.177 6.006,25.005 6.006,26.415C6.006,28.234 10.923,29.062 15.491,29.062C20.059,29.062 24.975,28.234 24.975,26.414C24.975,24.996 23.237,24.167 19.66,23.878ZM10.681,10.835L11.872,10.835L11.872,14.555C11.872,14.613 11.883,14.67 11.906,14.724C11.929,14.777 11.962,14.826 12.003,14.867C12.045,14.908 12.094,14.941 12.149,14.963C12.203,14.985 12.261,14.996 12.32,14.996L18.661,14.996C18.719,14.996 18.778,14.985 18.832,14.963C18.887,14.941 18.936,14.908 18.978,14.867C19.019,14.826 19.052,14.777 19.075,14.724C19.098,14.67 19.109,14.613 19.109,14.555L19.109,10.835L20.3,10.835C20.514,10.842 20.726,10.784 20.905,10.668C21.085,10.553 21.224,10.385 21.304,10.189C21.365,10.017 21.37,9.83 21.317,9.656C21.263,9.481 21.155,9.328 21.008,9.218L16.198,5.379C15.995,5.225 15.746,5.141 15.49,5.141C15.234,5.141 14.985,5.225 14.782,5.379L9.973,9.218C9.825,9.328 9.717,9.481 9.664,9.655C9.611,9.829 9.615,10.016 9.677,10.188C9.756,10.384 9.895,10.552 10.075,10.668C10.255,10.784 10.467,10.842 10.681,10.835ZM16.269,14.113L14.888,14.113C14.943,14.042 14.974,13.955 14.976,13.865L14.976,12.312C14.974,12.232 14.988,12.153 15.017,12.079C15.046,12.005 15.09,11.938 15.147,11.881C15.203,11.824 15.27,11.778 15.345,11.747C15.419,11.716 15.499,11.701 15.58,11.701C15.66,11.701 15.74,11.716 15.814,11.747C15.889,11.778 15.956,11.824 16.012,11.881C16.069,11.938 16.113,12.005 16.142,12.079C16.171,12.153 16.185,12.232 16.183,12.312L16.183,13.865C16.184,13.954 16.214,14.041 16.268,14.113L16.269,14.113ZM15.348,6.065C15.39,6.037 15.44,6.022 15.491,6.022C15.541,6.022 15.591,6.037 15.634,6.065L20.443,9.904L20.459,9.893C20.454,9.905 20.411,9.952 20.3,9.952L18.661,9.952C18.542,9.952 18.428,9.998 18.343,10.081C18.259,10.164 18.212,10.276 18.212,10.393L18.212,14.113L16.989,14.113C17.044,14.041 17.074,13.954 17.076,13.864L17.076,12.312C17.081,12.115 17.046,11.919 16.973,11.735C16.9,11.552 16.79,11.384 16.651,11.243C16.511,11.102 16.344,10.99 16.159,10.913C15.975,10.837 15.777,10.797 15.576,10.797C15.376,10.797 15.178,10.837 14.994,10.913C14.809,10.99 14.642,11.102 14.502,11.243C14.362,11.384 14.253,11.552 14.18,11.735C14.106,11.919 14.071,12.115 14.076,12.312L14.076,13.865C14.079,13.955 14.109,14.042 14.165,14.113L12.769,14.113L12.769,10.394C12.769,10.336 12.758,10.279 12.735,10.225C12.713,10.171 12.68,10.123 12.638,10.082C12.597,10.041 12.547,10.008 12.493,9.986C12.439,9.964 12.38,9.952 12.321,9.952L10.681,9.952C10.57,9.952 10.527,9.905 10.539,9.905L15.348,6.065Z" fill="#1E6C85"/>
</svg>
