<svg width="44" height="44" viewBox="0 0 44 44" fill="none" xmlns="http://www.w3.org/2000/svg" xmlns:xlink="http://www.w3.org/1999/xlink">
<path d="M2.892,24.148L39.553,24.148C40.047,24.148 40.545,24.153 41.039,24.148L41.104,24.148C41.654,24.148 42.234,23.908 42.625,23.521C42.999,23.147 43.278,22.537 43.252,22C43.226,21.446 43.046,20.87 42.625,20.479C42.204,20.092 41.688,19.852 41.104,19.852L4.443,19.852C3.949,19.852 3.45,19.847 2.956,19.852L2.892,19.852C2.342,19.852 1.762,20.092 1.371,20.479C0.997,20.853 0.718,21.463 0.743,22C0.769,22.554 0.95,23.13 1.371,23.521C1.796,23.904 2.312,24.148 2.892,24.148Z" fill="#E4F0F3"/>
<path d="M23.56,39.617L21.648,37.705L17.084,33.142L11.541,27.599L6.776,22.834C6.003,22.06 5.242,21.278 4.456,20.513L4.421,20.479L4.421,23.517L6.334,21.605L10.897,17.041L16.44,11.498L21.205,6.733C21.979,5.96 22.761,5.195 23.525,4.413L23.56,4.379C23.951,3.987 24.187,3.412 24.187,2.857C24.187,2.329 23.955,1.702 23.56,1.336C23.152,0.963 22.614,0.683 22.039,0.709C21.467,0.735 20.93,0.928 20.518,1.336L18.605,3.248L14.042,7.812L8.499,13.355L3.734,18.12C2.961,18.893 2.179,19.658 1.414,20.44L1.379,20.475C0.559,21.295 0.559,22.692 1.379,23.513C2.02,24.157 2.66,24.793 3.296,25.433L7.859,29.997L13.402,35.54L18.167,40.305C18.941,41.078 19.705,41.86 20.488,42.625L20.522,42.659C20.913,43.05 21.489,43.287 22.043,43.287C22.572,43.287 23.199,43.055 23.564,42.659C23.938,42.251 24.217,41.714 24.191,41.138C24.161,40.567 23.972,40.03 23.56,39.617Z" fill="#E4F0F3"/>
</svg>
