<svg width="40" height="40" viewBox="0 0 40 40" fill="none" xmlns="http://www.w3.org/2000/svg" xmlns:xlink="http://www.w3.org/1999/xlink">
<path d="M2.629,21.953L35.957,21.953C36.406,21.953 36.859,21.957 37.309,21.953L37.367,21.953C37.867,21.953 38.395,21.734 38.75,21.383C39.09,21.043 39.344,20.488 39.32,20C39.297,19.496 39.133,18.972 38.75,18.617C38.367,18.265 37.899,18.047 37.367,18.047L4.039,18.047C3.59,18.047 3.137,18.043 2.688,18.047L2.629,18.047C2.129,18.047 1.602,18.265 1.246,18.617C0.906,18.957 0.652,19.512 0.676,20C0.699,20.504 0.863,21.027 1.246,21.383C1.633,21.73 2.102,21.953 2.629,21.953Z" fill="#E4F0F3"/>
<path d="M21.418,36.016L19.68,34.277L15.531,30.129L10.492,25.09L6.16,20.758C5.457,20.055 4.766,19.344 4.051,18.648L4.02,18.617L4.02,21.379L5.758,19.641L9.906,15.492L14.945,10.453L19.277,6.121C19.98,5.418 20.691,4.723 21.387,4.012L21.418,3.981C21.773,3.625 21.988,3.102 21.988,2.598C21.988,2.117 21.777,1.547 21.418,1.215C21.047,0.875 20.559,0.621 20.035,0.645C19.516,0.668 19.027,0.844 18.652,1.215L16.914,2.953L12.766,7.102L7.727,12.141L3.395,16.473C2.691,17.176 1.98,17.871 1.285,18.582L1.254,18.613C0.508,19.359 0.508,20.629 1.254,21.375C1.836,21.961 2.418,22.539 2.996,23.121L7.145,27.269L12.184,32.309L16.516,36.641C17.219,37.344 17.914,38.055 18.625,38.75L18.656,38.781C19.012,39.137 19.535,39.352 20.039,39.352C20.52,39.352 21.09,39.141 21.422,38.781C21.762,38.41 22.016,37.922 21.992,37.398C21.965,36.879 21.793,36.391 21.418,36.016Z" fill="#E4F0F3"/>
</svg>
