<svg width="520" height="276" viewBox="0 0 520 276" fill="none" xmlns="http://www.w3.org/2000/svg" xmlns:xlink="http://www.w3.org/1999/xlink">
<path d="M270.715,27.99C271.727,19.995 278.529,14 286.588,14L501.408,14C511.196,14 518.688,22.707 517.23,32.384L483.396,256.962C482.218,264.79 475.492,270.578 467.576,270.578L258.154,270.578C248.519,270.578 241.07,262.128 242.28,252.57L270.715,27.99Z" fill="#223A5E"/>
<path d="M290.389,37.462L296.899,13.954L296.899,269.654L289.136,273.288L290.389,37.462Z" transform="rotate(22.222 293.018 143.621)" fill="#FFFFFF"/>
<path d="M344.43,36.977L350.94,13.469L350.94,269.169L343.176,272.803L344.43,36.977Z" transform="rotate(22.222 347.058 143.136)" fill="#FFFFFF"/>
<path d="M400.12,38.705L406.631,15.198L406.631,270.898L398.867,274.532L400.12,38.705Z" transform="rotate(22.222 402.749 144.864)" fill="#FFFFFF"/>
<path d="M457.358,38.705L463.868,15.198L463.868,270.898L456.105,274.532L457.358,38.705Z" transform="rotate(22.222 459.986 144.864)" fill="#FFFFFF"/>
<rect  x="264.751" y="58.94" width="247.514" height="8.642" fill="#FFFFFF"/>
<rect  x="257.017" y="129.808" width="245.967" height="8.642" fill="#FFFFFF"/>
<rect  x="246.188" y="209.318" width="245.967" height="8.642" fill="#FFFFFF"/>
<path d="M89.267,12.86L245.267,12.86L216.418,222.86L61.267,222.86L89.267,12.86Z" fill="#FA8646"/>
<path d="M44.012,102.343L261.682,137.421L17.49,151.555L44.012,102.343Z" transform="rotate(-236.643 139.586 126.949)" fill="#FFD39F"/>
<path d="M75.116,53.036L255.952,80.55L92.376,94.684L75.116,53.036Z" transform="rotate(-280.432 165.534 73.86)" fill="#FFD39F"/>
<path d="M6.528,102.894L203.145,131.609L-0.611,146.673L6.528,102.894Z" transform="rotate(-198.522 101.267 124.783)" fill="#FFD39F"/>
</svg>
