<svg width="1046" height="986" viewBox="0 0 1046 986" fill="none" xmlns="http://www.w3.org/2000/svg" xmlns:xlink="http://www.w3.org/1999/xlink">
<path d="M625.04,313.34L580.96,313.34C580.322,313.34 579.8,313.862 579.8,314.5L579.8,343.5C579.8,344.138 580.322,344.66 580.96,344.66L625.04,344.66C625.678,344.66 626.2,344.138 626.2,343.5L626.2,314.5C626.2,313.862 625.678,313.34 625.04,313.34ZM622.256,315.66L603,334.916L583.744,315.66L622.256,315.66ZM582.12,317.284L593.836,329L582.12,340.716L582.12,317.284ZM583.802,342.34L595.46,330.682L602.188,337.41C602.652,337.874 603.348,337.874 603.812,337.41L610.54,330.682L622.198,342.34L583.802,342.34ZM623.88,340.716L612.164,329L623.88,317.284L623.88,340.716Z" fill="#0C5066"/>
<path d="M1040.32,4.2L1040.32,980.92L5.6,980.92L5.6,4.2L1040.32,4.2ZM1044.96,-0.44L0.96,-0.44L0.96,985.56L1044.96,985.56L1044.96,-0.44Z" fill="#0000FF"/>
</svg>
