<svg width="140" height="140" viewBox="0 0 140 140" fill="none" xmlns="http://www.w3.org/2000/svg" xmlns:xlink="http://www.w3.org/1999/xlink">
<path d="M107.187,19.688C107.195,15.06 105.366,10.619 102.103,7.339C98.841,4.058 94.41,2.205 89.783,2.188C86.606,2.191 83.477,2.963 80.663,4.437C77.849,5.911 75.433,8.043 73.621,10.652L62.788,26.224C61.379,28.254 59.5,29.914 57.311,31.061C55.122,32.208 52.689,32.809 50.217,32.813C46.753,32.787 43.439,31.393 40.998,28.934C38.558,26.476 37.188,23.152 37.188,19.688C37.188,16.223 38.558,12.899 40.998,10.44C43.439,7.982 46.753,6.588 50.217,6.563C52.689,6.566 55.122,7.167 57.311,8.315C59.5,9.462 61.379,11.121 62.788,13.152L63.639,14.375L67.23,11.875L66.379,10.653C64.567,8.044 62.151,5.911 59.337,4.437C56.523,2.963 53.394,2.191 50.217,2.188C45.593,2.213 41.166,4.068 37.905,7.347C34.644,10.626 32.813,15.063 32.813,19.688C32.813,24.312 34.644,28.749 37.905,32.028C41.166,35.307 45.593,37.162 50.217,37.188C53.394,37.184 56.523,36.412 59.337,34.938C62.151,33.464 64.567,31.332 66.379,28.723L77.212,13.151C78.621,11.121 80.5,9.461 82.689,8.314C84.878,7.167 87.311,6.566 89.783,6.563C93.247,6.588 96.561,7.982 99.002,10.44C101.442,12.899 102.812,16.223 102.812,19.688C102.812,23.152 101.442,26.476 99.002,28.934C96.561,31.393 93.247,32.787 89.783,32.813C87.311,32.809 84.877,32.208 82.689,31.061C80.5,29.913 78.621,28.253 77.212,26.223L76.056,24.562L72.465,27.062L73.621,28.722C75.433,31.331 77.849,33.464 80.663,34.938C83.477,36.412 86.606,37.184 89.783,37.188C94.41,37.169 98.841,35.317 102.103,32.036C105.366,28.756 107.195,24.314 107.187,19.688Z" fill="#0C5066"/>
<circle cx="109.375" cy="83.125" r="2.188" fill="#0C5066"/>
<circle cx="122.5" cy="83.125" r="2.188" fill="#0C5066"/>
<rect  x="67.813" y="54.688" width="4.375" height="10.938" fill="#0C5066"/>
<path d="M60.742,59.062L56.367,59.062L56.367,70L60.742,70L60.742,59.062Z" transform="rotate(-90 58.555 64.531)" fill="#0C5066"/>
<path d="M86.914,62.344L75.976,62.344L75.976,66.719L86.914,66.719L86.914,62.344Z" transform="rotate(-89.992 81.445 64.531)" fill="#0C5066"/>
<circle cx="17.5" cy="83.125" r="2.188" fill="#0C5066"/>
<circle cx="30.625" cy="83.125" r="2.188" fill="#0C5066"/>
<path d="M43.75,113.75L67.813,91.875L67.813,75.5L38.619,98.438L35.881,98.438C37.666,96.845 39.096,94.894 40.075,92.711C41.054,90.528 41.561,88.162 41.563,85.77L41.563,80.48C41.557,75.962 39.76,71.63 36.565,68.435C33.37,65.24 29.038,63.443 24.52,63.438L23.605,63.438C19.087,63.443 14.755,65.24 11.56,68.435C8.365,71.63 6.568,75.962 6.563,80.48L6.563,85.77C6.564,88.182 7.079,90.567 8.074,92.765C9.069,94.963 10.521,96.924 12.333,98.518C9.584,98.713 7.01,99.94 5.128,101.954C3.246,103.968 2.196,106.619 2.188,109.375L2.188,137.813L43.75,137.813L43.75,113.75ZM24.52,98.438L23.605,98.438C20.247,98.434 17.027,97.098 14.652,94.723C12.277,92.348 10.941,89.128 10.938,85.77L10.938,80.48C10.938,79.149 11.15,77.827 11.565,76.563L36.56,76.563C36.975,77.827 37.186,79.149 37.188,80.48L37.188,85.77C37.184,89.128 35.848,92.348 33.473,94.723C31.098,97.098 27.878,98.434 24.52,98.438ZM127.667,98.518C129.479,96.924 130.931,94.963 131.926,92.765C132.921,90.567 133.436,88.182 133.438,85.77L133.438,80.48C133.432,75.962 131.635,71.63 128.44,68.435C125.245,65.24 120.913,63.443 116.395,63.438L115.48,63.438C110.962,63.443 106.63,65.24 103.435,68.435C100.24,71.63 98.443,75.962 98.438,80.48L98.438,85.77C98.439,88.162 98.946,90.528 99.925,92.711C100.904,94.894 102.334,96.845 104.119,98.438L101.381,98.438L72.188,75.5L72.188,91.875L96.25,113.75L96.25,137.813L137.813,137.813L137.813,109.375C137.804,106.619 136.754,103.968 134.872,101.954C132.99,99.94 130.416,98.713 127.667,98.518ZM116.395,98.438L115.48,98.438C112.122,98.434 108.902,97.098 106.527,94.723C104.152,92.348 102.816,89.128 102.813,85.77L102.813,80.48C102.817,79.758 102.883,79.038 103.01,78.327C108.703,77.745 114.302,76.458 119.678,74.495C122.317,76.631 125.504,77.98 128.874,78.387C128.995,79.078 129.058,79.778 129.063,80.48L129.063,85.77C129.059,89.128 127.723,92.348 125.348,94.723C122.973,97.098 119.753,98.434 116.395,98.438Z" fill="#0C5066"/>
</svg>
