<svg width="362" height="306" viewBox="0 0 362 306" fill="none" xmlns="http://www.w3.org/2000/svg" xmlns:xlink="http://www.w3.org/1999/xlink">
<path d="M39.588,17.227C40.971,7.349 49.421,0 59.395,0L338.392,0C350.75,0 360.152,11.096 358.12,23.286L314.81,283.286C313.202,292.93 304.858,300 295.082,300L22.995,300C10.847,300 1.504,289.258 3.188,277.228L39.588,17.227Z" fill="#3466B0"/>
<path d="M65.157,27.162L73.546,-0.384L73.546,299.24L63.542,303.498L65.157,27.162Z" transform="rotate(20.143 68.544 151.557)" fill="#FFFFFF"/>
<path d="M135.024,26.595L143.413,-0.952L143.413,298.672L133.409,302.93L135.024,26.595Z" transform="rotate(20.143 138.411 150.989)" fill="#FFFFFF"/>
<path d="M207.024,28.616L215.413,1.069L215.413,300.693L205.409,304.951L207.024,28.616Z" transform="rotate(20.143 210.411 153.01)" fill="#FFFFFF"/>
<path d="M281.024,28.616L289.413,1.069L289.413,300.693L279.409,304.951L281.024,28.616Z" transform="rotate(20.143 284.411 153.01)" fill="#FFFFFF"/>
<rect  x="32" y="52.546" width="320" height="10.105" fill="#FFFFFF"/>
<rect  x="22" y="135.406" width="318" height="10.105" fill="#FFFFFF"/>
<rect  x="8" y="228.372" width="318" height="10.105" fill="#FFFFFF"/>
</svg>
