<svg width="316" height="350" viewBox="0 0 316 350" fill="none" xmlns="http://www.w3.org/2000/svg" xmlns:xlink="http://www.w3.org/1999/xlink">
<path d="M52.102,101.601C53.953,92.231 62.171,85.478 71.723,85.478L294.874,85.478C308.012,85.478 317.582,97.93 314.2,110.625L277.01,250.26C274.632,259.188 266.448,265.325 257.212,265.107L44.654,260.102C32.247,259.81 23.098,248.406 25.504,236.231L52.102,101.601Z" transform="rotate(225.254 170.898 175.478)" fill="#3466B0"/>
<path d="M205.49,16.153L212.398,-0.128L212.398,176.966L204.16,179.482L205.49,16.153Z" transform="rotate(239.499 208.279 89.677)" fill="#FFFFFF"/>
<path d="M183.484,69.809L190.393,53.528L190.393,230.622L182.154,233.138L183.484,69.809Z" transform="rotate(239.499 186.274 143.333)" fill="#FFFFFF"/>
<path d="M159.403,124.517L166.311,108.236L166.311,285.33L158.073,287.847L159.403,124.517Z" transform="rotate(239.499 162.192 198.041)" fill="#FFFFFF"/>
<path d="M135.772,181.212L142.68,164.931L142.68,342.025L134.442,344.541L135.772,181.212Z" transform="rotate(239.499 138.561 254.736)" fill="#FFFFFF"/>
<rect  x="273.319" y="83.924" width="265.611" height="5.901" transform="rotate(225.254 273.319 83.924)" fill="#FFFFFF"/>
<rect  x="231.848" y="57.646" width="263.951" height="5.901" transform="rotate(225.254 231.848 57.646)" fill="#FFFFFF"/>
<path d="M0.734,143.765L264.684,143.765L264.684,149.666L0.734,149.666L0.734,143.765Z" transform="rotate(225.254 132.709 146.715)" fill="#FFFFFF"/>
</svg>
