<svg width="300" height="262" viewBox="0 0 300 262" fill="none" xmlns="http://www.w3.org/2000/svg" xmlns:xlink="http://www.w3.org/1999/xlink">
<path d="M32.928,13.849C34.004,5.916 40.777,0 48.783,0L281.21,0C291.064,0 298.576,8.822 297.006,18.55L260.756,243.128C259.504,250.88 252.812,256.578 244.96,256.578L18.317,256.578C8.626,256.578 1.16,248.032 2.462,238.428L32.928,13.849Z" fill="#223A5E"/>
<path d="M53.995,23.308L60.954,-0.234L60.954,255.836L52.655,259.476L53.995,23.308Z" transform="rotate(20.774 56.804 129.621)" fill="#FFFFFF"/>
<path d="M111.896,22.823L118.854,-0.719L118.854,255.351L110.556,258.991L111.896,22.823Z" transform="rotate(20.774 114.705 129.136)" fill="#FFFFFF"/>
<path d="M171.564,24.552L178.523,1.01L178.523,257.08L170.225,260.72L171.564,24.552Z" transform="rotate(20.774 174.374 130.864)" fill="#FFFFFF"/>
<path d="M232.89,24.552L239.849,1.01L239.849,257.08L231.551,260.72L232.89,24.552Z" transform="rotate(20.774 235.7 130.864)" fill="#FFFFFF"/>
<rect  x="26.519" y="44.94" width="265.193" height="8.642" fill="#FFFFFF"/>
<rect  x="18.232" y="115.808" width="263.536" height="8.642" fill="#FFFFFF"/>
<rect  x="6.63" y="195.318" width="263.536" height="8.642" fill="#FFFFFF"/>
</svg>
