<svg width="40" height="40" viewBox="0 0 40 40" fill="none" xmlns="http://www.w3.org/2000/svg" xmlns:xlink="http://www.w3.org/1999/xlink">
<path d="M15.968,29.906C15.736,29.906 15.548,29.718 15.548,29.486L15.548,20.49C15.548,20.258 15.736,20.07 15.968,20.07C16.2,20.07 16.388,20.258 16.388,20.49L16.388,29.486C16.388,29.718 16.2,29.906 15.968,29.906ZM20,21.662C19.878,21.662 19.762,21.608 19.682,21.516L18.32,19.936C18.254,19.86 18.218,19.762 18.218,19.662L18.218,18.452C18.218,18.22 18.406,18.032 18.638,18.032C18.87,18.032 19.058,18.22 19.058,18.452L19.058,19.506L20,20.6L20.942,19.506L20.942,18.452C20.942,18.22 21.13,18.032 21.362,18.032C21.594,18.032 21.782,18.22 21.782,18.452L21.782,19.662C21.782,19.762 21.746,19.86 21.68,19.936L20.318,21.516C20.238,21.61 20.122,21.662 20,21.662Z" fill="#0C5066"/>
<path d="M21.464,22.676C21.38,22.676 21.296,22.65 21.226,22.602L20,21.754L18.774,22.602C18.678,22.668 18.556,22.692 18.442,22.666C18.328,22.64 18.228,22.568 18.17,22.466L16.922,20.286C16.806,20.084 16.876,19.828 17.078,19.712C17.28,19.596 17.536,19.666 17.652,19.868L18.674,21.65L19.762,20.898C19.906,20.798 20.096,20.798 20.24,20.898L21.328,21.65L22.35,19.868C22.466,19.666 22.722,19.598 22.924,19.712C23.126,19.826 23.194,20.084 23.08,20.286L21.832,22.466C21.774,22.568 21.676,22.64 21.56,22.666C21.526,22.672 21.496,22.676 21.464,22.676ZM23.21,15.422C22.978,15.422 22.79,15.234 22.79,15.002L22.79,13.724C22.79,12.192 21.544,10.94 20.01,10.934C20.006,10.934 20.004,10.934 20,10.934C19.268,10.934 18.574,11.224 18.044,11.75C17.506,12.286 17.21,12.996 17.21,13.748L17.21,15.002C17.21,15.234 17.022,15.422 16.79,15.422C16.558,15.422 16.37,15.234 16.37,15.002L16.37,13.748C16.37,12.77 16.754,11.85 17.452,11.154C18.138,10.47 19.044,10.094 20,10.094C20.004,10.094 20.008,10.094 20.012,10.094C20.978,10.098 21.888,10.476 22.57,11.162C23.252,11.848 23.628,12.758 23.628,13.724L23.628,15.002C23.63,15.234 23.442,15.422 23.21,15.422Z" fill="#0C5066"/>
<path d="M20,19.296C18.458,19.296 17.204,18.042 17.204,16.5L17.204,14.35C17.204,14.236 17.25,14.128 17.332,14.048C17.414,13.968 17.524,13.926 17.636,13.93C17.66,13.93 20.094,13.988 21.11,12.972C21.192,12.89 21.302,12.846 21.418,12.85C21.534,12.854 21.642,12.904 21.72,12.99L22.688,14.072C22.758,14.15 22.796,14.248 22.796,14.352L22.796,16.5C22.796,18.042 21.542,19.296 20,19.296ZM18.044,14.764L18.044,16.5C18.044,17.578 18.922,18.456 20,18.456C21.078,18.456 21.956,17.578 21.956,16.5L21.956,14.51L21.366,13.852C20.344,14.586 18.794,14.736 18.044,14.764Z" fill="#0C5066"/>
<path d="M17.624,16.976L17.286,16.976C16.582,16.976 16.01,16.404 16.01,15.7C16.01,14.996 16.582,14.424 17.286,14.424L17.624,14.424C17.856,14.424 18.044,14.612 18.044,14.844C18.044,15.076 17.856,15.264 17.624,15.264L17.286,15.264C17.046,15.264 16.85,15.46 16.85,15.7C16.85,15.94 17.046,16.136 17.286,16.136L17.624,16.136C17.856,16.136 18.044,16.324 18.044,16.556C18.044,16.788 17.856,16.976 17.624,16.976ZM22.714,16.976L22.376,16.976C22.144,16.976 21.956,16.788 21.956,16.556C21.956,16.324 22.144,16.136 22.376,16.136L22.714,16.136C22.954,16.136 23.15,15.94 23.15,15.7C23.15,15.46 22.954,15.264 22.714,15.264L22.376,15.264C22.144,15.264 21.956,15.076 21.956,14.844C21.956,14.612 22.144,14.424 22.376,14.424L22.714,14.424C23.418,14.424 23.99,14.996 23.99,15.7C23.99,16.404 23.418,16.976 22.714,16.976Z" fill="#0C5066"/>
<path d="M25.744,29.906L14.256,29.906C13.776,29.906 13.386,29.516 13.386,29.036L13.386,23.146C13.386,22.474 13.596,21.832 13.996,21.292C14.394,20.752 14.946,20.36 15.588,20.162L18.526,19.254C18.748,19.186 18.982,19.31 19.052,19.532C19.12,19.754 18.996,19.988 18.774,20.058L15.836,20.966C14.874,21.264 14.228,22.14 14.228,23.148L14.228,29.038C14.228,29.054 14.242,29.068 14.258,29.068L25.746,29.068C25.762,29.068 25.776,29.054 25.776,29.038L25.776,23.148C25.776,22.14 25.13,21.264 24.168,20.966L21.23,20.058C21.008,19.99 20.884,19.754 20.952,19.532C21.02,19.31 21.256,19.186 21.478,19.254L24.416,20.162C25.058,20.36 25.608,20.752 26.008,21.292C26.406,21.832 26.618,22.474 26.618,23.146L26.618,29.036C26.614,29.516 26.224,29.906 25.744,29.906Z" fill="#0C5066"/>
<path d="M20.108,29.906C20.072,29.906 20.036,29.902 20,29.892C19.832,29.938 19.648,29.874 19.544,29.722L18.388,28.024C18.328,27.934 18.304,27.826 18.32,27.718L18.334,27.64L19.112,22.62C19.144,22.416 19.32,22.264 19.528,22.264L20.476,22.264C20.684,22.264 20.86,22.416 20.892,22.62L21.67,27.64L21.684,27.718C21.688,27.74 21.69,27.764 21.69,27.788C21.69,27.872 21.664,27.954 21.618,28.024L20.462,29.722C20.374,29.842 20.242,29.906 20.108,29.906ZM19.176,27.69L20,28.9L20.824,27.69L20.114,23.104L19.886,23.104L19.176,27.69Z" fill="#0C5066"/>
<path d="M20.474,23.104L19.526,23.104C19.352,23.104 19.194,22.996 19.132,22.832L18.8,21.95C18.718,21.732 18.828,21.49 19.046,21.408C19.264,21.326 19.506,21.436 19.588,21.654L19.818,22.264L20.184,22.264L20.414,21.654C20.496,21.436 20.738,21.328 20.956,21.408C21.174,21.49 21.282,21.732 21.202,21.95L20.87,22.832C20.806,22.994 20.648,23.104 20.474,23.104Z" fill="#0C5066"/>
<path d="M24.054,29.906C23.822,29.906 23.634,29.718 23.634,29.486L23.634,20.49C23.634,20.258 23.822,20.07 24.054,20.07C24.286,20.07 24.474,20.258 24.474,20.49L24.474,29.486C24.474,29.718 24.286,29.906 24.054,29.906Z" fill="#0C5066"/>
<path d="M29.572,21.484C29.45,21.484 29.334,21.43 29.254,21.338L28.086,19.984C28.02,19.908 27.984,19.81 27.984,19.71L27.984,18.674C27.984,18.442 28.172,18.254 28.404,18.254C28.636,18.254 28.824,18.442 28.824,18.674L28.824,19.554L29.572,20.422L30.32,19.554L30.32,18.674C30.32,18.442 30.508,18.254 30.74,18.254C30.972,18.254 31.16,18.442 31.16,18.674L31.16,19.71C31.16,19.81 31.124,19.908 31.058,19.984L29.89,21.338C29.81,21.432 29.694,21.484 29.572,21.484Z" fill="#0C5066"/>
<path d="M30.826,22.352C30.742,22.352 30.658,22.326 30.588,22.278L29.572,21.576L28.556,22.278C28.46,22.344 28.34,22.368 28.224,22.342C28.11,22.316 28.01,22.244 27.952,22.142L26.882,20.274C26.766,20.072 26.836,19.816 27.038,19.7C27.24,19.584 27.496,19.654 27.612,19.856L28.454,21.328L29.332,20.72C29.476,20.62 29.666,20.62 29.81,20.72L30.688,21.328L31.53,19.856C31.646,19.654 31.902,19.586 32.104,19.7C32.306,19.816 32.374,20.072 32.26,20.274L31.19,22.142C31.132,22.244 31.034,22.316 30.918,22.342C30.888,22.35 30.858,22.352 30.826,22.352ZM32.322,16.138C32.09,16.138 31.902,15.95 31.902,15.718L31.902,14.622C31.902,13.342 30.86,12.296 29.58,12.292C29.578,12.292 29.574,12.292 29.572,12.292C28.96,12.292 28.38,12.534 27.938,12.974C27.488,13.422 27.24,14.016 27.24,14.644L27.24,15.718C27.24,15.95 27.052,16.138 26.82,16.138C26.588,16.138 26.4,15.95 26.4,15.718L26.4,14.644C26.4,13.79 26.736,12.986 27.344,12.378C27.944,11.78 28.734,11.452 29.57,11.452C29.574,11.452 29.578,11.452 29.582,11.452C30.426,11.456 31.22,11.786 31.816,12.384C32.412,12.982 32.74,13.778 32.74,14.622L32.74,15.718C32.742,15.95 32.554,16.138 32.322,16.138Z" fill="#0C5066"/>
<path d="M29.572,19.458C28.218,19.458 27.116,18.356 27.116,17.002L27.116,15.158C27.116,15.044 27.162,14.936 27.244,14.856C27.326,14.776 27.436,14.734 27.548,14.738C28.124,14.754 29.774,14.642 30.482,13.934C30.564,13.852 30.676,13.808 30.79,13.812C30.906,13.816 31.014,13.866 31.092,13.952L31.922,14.878C31.992,14.956 32.03,15.054 32.03,15.158L32.03,17C32.028,18.356 30.926,19.458 29.572,19.458ZM27.956,15.57L27.956,17C27.956,17.892 28.682,18.616 29.572,18.616C30.462,18.616 31.188,17.89 31.188,17L31.188,15.318L30.734,14.81C29.87,15.404 28.612,15.542 27.956,15.57Z" fill="#0C5066"/>
<path d="M27.536,17.47L27.246,17.47C26.61,17.47 26.092,16.952 26.092,16.316C26.092,15.68 26.61,15.162 27.246,15.162L27.536,15.162C27.768,15.162 27.956,15.35 27.956,15.582C27.956,15.814 27.768,16.002 27.536,16.002L27.246,16.002C27.074,16.002 26.932,16.142 26.932,16.316C26.932,16.49 27.072,16.63 27.246,16.63L27.536,16.63C27.768,16.63 27.956,16.818 27.956,17.05C27.956,17.282 27.768,17.47 27.536,17.47ZM31.898,17.47L31.608,17.47C31.376,17.47 31.188,17.282 31.188,17.05C31.188,16.818 31.376,16.63 31.608,16.63L31.898,16.63C32.07,16.63 32.212,16.49 32.212,16.316C32.212,16.144 32.072,16.002 31.898,16.002L31.608,16.002C31.376,16.002 31.188,15.814 31.188,15.582C31.188,15.35 31.376,15.162 31.608,15.162L31.898,15.162C32.534,15.162 33.052,15.68 33.052,16.316C33.052,16.952 32.534,17.47 31.898,17.47ZM25.062,21.366C24.944,21.366 24.828,21.318 24.744,21.222C24.592,21.046 24.61,20.782 24.786,20.63C25.074,20.38 25.406,20.196 25.77,20.082L28.278,19.306L28.28,19.306L28.29,19.304C28.512,19.236 28.746,19.362 28.814,19.584C28.882,19.806 28.756,20.04 28.534,20.108L28.526,20.11L26.018,20.884C25.764,20.962 25.536,21.09 25.336,21.262C25.258,21.332 25.16,21.366 25.062,21.366Z" fill="#0C5066"/>
<path d="M34.494,28.55L26.194,28.55C25.962,28.55 25.774,28.362 25.774,28.13C25.774,27.898 25.962,27.71 26.194,27.71L34.46,27.71L34.46,22.696C34.46,21.86 33.922,21.132 33.124,20.884L30.608,20.106C30.386,20.038 30.26,19.804 30.328,19.582C30.396,19.36 30.63,19.234 30.852,19.302L30.862,19.304L30.864,19.304L33.372,20.08C33.934,20.254 34.416,20.596 34.766,21.07C35.116,21.544 35.3,22.106 35.3,22.694L35.3,27.742C35.3,28.188 34.938,28.55 34.494,28.55Z" fill="#0C5066"/>
<path d="M29.664,28.55C29.632,28.55 29.602,28.546 29.572,28.54C29.408,28.578 29.232,28.514 29.132,28.366L28.142,26.91C28.082,26.82 28.058,26.712 28.074,26.604L28.086,26.536L28.752,22.234C28.784,22.03 28.96,21.878 29.168,21.878L29.98,21.878C30.188,21.878 30.364,22.03 30.396,22.234L31.062,26.536L31.074,26.604C31.078,26.626 31.08,26.65 31.08,26.674C31.08,26.758 31.054,26.84 31.008,26.91L30.018,28.366C29.93,28.484 29.798,28.55 29.664,28.55ZM28.928,26.576L29.572,27.52L30.216,26.576L29.62,22.72L29.528,22.72L28.928,26.576Z" fill="#0C5066"/>
<path d="M29.978,22.72L29.166,22.72C28.992,22.72 28.834,22.612 28.772,22.448L28.488,21.692C28.406,21.474 28.516,21.232 28.734,21.15C28.952,21.068 29.194,21.178 29.276,21.396L29.458,21.88L29.688,21.88L29.87,21.396C29.952,21.178 30.194,21.07 30.412,21.15C30.63,21.232 30.738,21.474 30.658,21.692L30.374,22.448C30.31,22.612 30.152,22.72 29.978,22.72Z" fill="#0C5066"/>
<path d="M33.046,28.55C32.814,28.55 32.626,28.362 32.626,28.13L32.626,20.42C32.626,20.188 32.814,20 33.046,20C33.278,20 33.466,20.188 33.466,20.42L33.466,28.128C33.466,28.362 33.278,28.55 33.046,28.55Z" fill="#0C5066"/>
<path d="M6.974,28.55C6.742,28.55 6.554,28.362 6.554,28.13L6.554,20.42C6.554,20.188 6.742,20 6.974,20C7.206,20 7.394,20.188 7.394,20.42L7.394,28.128C7.394,28.362 7.206,28.55 6.974,28.55ZM10.428,21.484C10.306,21.484 10.19,21.43 10.11,21.338L8.942,19.984C8.876,19.908 8.84,19.81 8.84,19.71L8.84,18.674C8.84,18.442 9.028,18.254 9.26,18.254C9.492,18.254 9.68,18.442 9.68,18.674L9.68,19.554L10.428,20.422L11.176,19.554L11.176,18.674C11.176,18.442 11.364,18.254 11.596,18.254C11.828,18.254 12.016,18.442 12.016,18.674L12.016,19.71C12.016,19.81 11.98,19.908 11.914,19.984L10.746,21.338C10.666,21.432 10.55,21.484 10.428,21.484Z" fill="#0C5066"/>
<path d="M11.684,22.352C11.6,22.352 11.516,22.326 11.446,22.278L10.43,21.576L9.414,22.278C9.318,22.344 9.196,22.368 9.082,22.342C8.968,22.316 8.868,22.244 8.81,22.142L7.74,20.274C7.624,20.072 7.694,19.816 7.896,19.7C8.098,19.584 8.354,19.654 8.47,19.856L9.312,21.328L10.19,20.72C10.334,20.62 10.524,20.62 10.668,20.72L11.546,21.328L12.388,19.856C12.504,19.654 12.76,19.586 12.962,19.7C13.164,19.816 13.232,20.072 13.118,20.274L12.048,22.142C11.99,22.244 11.892,22.316 11.776,22.342C11.746,22.35 11.714,22.352 11.684,22.352ZM13.18,16.138C12.948,16.138 12.76,15.95 12.76,15.718L12.76,14.622C12.76,13.342 11.718,12.296 10.438,12.292C10.436,12.292 10.432,12.292 10.43,12.292C9.818,12.292 9.238,12.534 8.796,12.974C8.346,13.422 8.098,14.016 8.098,14.644L8.098,15.718C8.098,15.95 7.91,16.138 7.678,16.138C7.446,16.138 7.258,15.95 7.258,15.718L7.258,14.644C7.258,13.79 7.594,12.986 8.202,12.378C8.802,11.78 9.592,11.452 10.428,11.452C10.432,11.452 10.436,11.452 10.44,11.452C11.284,11.456 12.078,11.786 12.674,12.384C13.27,12.982 13.598,13.778 13.598,14.622L13.598,15.718C13.6,15.95 13.41,16.138 13.18,16.138Z" fill="#0C5066"/>
<path d="M10.428,19.458C9.074,19.458 7.972,18.356 7.972,17.002L7.972,15.158C7.972,15.044 8.018,14.936 8.1,14.856C8.182,14.776 8.292,14.734 8.404,14.738C8.98,14.754 10.63,14.642 11.338,13.934C11.42,13.852 11.532,13.808 11.646,13.812C11.762,13.816 11.87,13.866 11.948,13.952L12.778,14.878C12.848,14.956 12.886,15.054 12.886,15.158L12.886,17C12.884,18.356 11.782,19.458 10.428,19.458ZM8.812,15.57L8.812,17C8.812,17.892 9.538,18.616 10.428,18.616C11.318,18.616 12.044,17.89 12.044,17L12.044,15.318L11.59,14.81C10.726,15.404 9.468,15.542 8.812,15.57Z" fill="#0C5066"/>
<path d="M8.392,17.47L8.102,17.47C7.466,17.47 6.948,16.952 6.948,16.316C6.948,15.68 7.466,15.162 8.102,15.162L8.392,15.162C8.624,15.162 8.812,15.35 8.812,15.582C8.812,15.814 8.624,16.002 8.392,16.002L8.102,16.002C7.93,16.002 7.788,16.142 7.788,16.316C7.788,16.49 7.928,16.63 8.102,16.63L8.392,16.63C8.624,16.63 8.812,16.818 8.812,17.05C8.812,17.282 8.624,17.47 8.392,17.47ZM12.754,17.47L12.464,17.47C12.232,17.47 12.044,17.282 12.044,17.05C12.044,16.818 12.232,16.63 12.464,16.63L12.754,16.63C12.926,16.63 13.068,16.49 13.068,16.316C13.068,16.144 12.928,16.002 12.754,16.002L12.464,16.002C12.232,16.002 12.044,15.814 12.044,15.582C12.044,15.35 12.232,15.162 12.464,15.162L12.754,15.162C13.39,15.162 13.908,15.68 13.908,16.316C13.908,16.952 13.39,17.47 12.754,17.47Z" fill="#0C5066"/>
<path d="M13.806,28.55L5.506,28.55C5.062,28.55 4.7,28.188 4.7,27.744L4.7,22.696C4.7,22.108 4.884,21.546 5.234,21.072C5.584,20.598 6.066,20.256 6.628,20.082L9.136,19.306L9.138,19.306L9.148,19.304C9.37,19.236 9.604,19.362 9.672,19.584C9.74,19.806 9.614,20.04 9.392,20.108L9.384,20.11L6.876,20.884C6.076,21.132 5.54,21.86 5.54,22.696L5.54,27.71L13.806,27.71C14.038,27.71 14.226,27.898 14.226,28.13C14.226,28.362 14.038,28.55 13.806,28.55Z" fill="#0C5066"/>
<path d="M14.938,21.366C14.84,21.366 14.742,21.332 14.662,21.264C14.462,21.09 14.234,20.964 13.98,20.886L11.464,20.108C11.242,20.04 11.116,19.806 11.184,19.584C11.252,19.362 11.486,19.236 11.708,19.304L11.718,19.306L11.72,19.306L14.228,20.082C14.594,20.194 14.924,20.378 15.212,20.63C15.388,20.782 15.406,21.048 15.254,21.222C15.172,21.316 15.056,21.366 14.938,21.366Z" fill="#0C5066"/>
<path d="M10.522,28.55C10.49,28.55 10.46,28.546 10.43,28.54C10.266,28.578 10.09,28.514 9.99,28.366L9,26.91C8.94,26.82 8.916,26.712 8.932,26.604L8.944,26.536L9.61,22.234C9.642,22.03 9.818,21.878 10.026,21.878L10.838,21.878C11.046,21.878 11.222,22.03 11.254,22.234L11.92,26.536L11.932,26.604C11.936,26.626 11.938,26.65 11.938,26.674C11.938,26.758 11.912,26.84 11.866,26.91L10.876,28.366C10.788,28.484 10.656,28.55 10.522,28.55ZM9.786,26.576L10.43,27.52L11.074,26.576L10.474,22.72L10.382,22.72L9.786,26.576Z" fill="#0C5066"/>
<path d="M10.834,22.72L10.022,22.72C9.848,22.72 9.69,22.612 9.628,22.448L9.344,21.692C9.262,21.474 9.372,21.232 9.59,21.15C9.808,21.068 10.05,21.178 10.132,21.396L10.314,21.88L10.544,21.88L10.726,21.396C10.808,21.178 11.05,21.07 11.268,21.15C11.486,21.232 11.594,21.474 11.514,21.692L11.23,22.448C11.166,22.612 11.01,22.72 10.834,22.72Z" fill="#0C5066"/>
</svg>
