<svg width="58" height="58" viewBox="0 0 58 58" fill="none" xmlns="http://www.w3.org/2000/svg" xmlns:xlink="http://www.w3.org/1999/xlink">
<path d="M32.833,50.542C32.945,50.655 33.078,50.744 33.225,50.804C33.371,50.865 33.528,50.896 33.687,50.896C33.846,50.896 34.003,50.865 34.149,50.804C34.296,50.744 34.429,50.655 34.541,50.542L35.042,50.042L35.042,50.75C35.042,51.07 35.169,51.378 35.396,51.604C35.622,51.831 35.93,51.958 36.25,51.958C36.57,51.958 36.878,51.831 37.104,51.604C37.331,51.378 37.458,51.07 37.458,50.75L37.458,50.042L37.959,50.542C38.187,50.762 38.492,50.884 38.809,50.881C39.125,50.879 39.429,50.752 39.653,50.528C39.877,50.304 40.004,50 40.006,49.684C40.009,49.367 39.887,49.062 39.667,48.834L37.959,47.125L39.667,45.416C39.887,45.188 40.009,44.883 40.006,44.566C40.004,44.25 39.877,43.946 39.653,43.722C39.429,43.498 39.125,43.371 38.809,43.369C38.492,43.366 38.187,43.488 37.959,43.708L37.458,44.208L37.458,43.5C37.458,43.18 37.331,42.872 37.104,42.646C36.878,42.419 36.57,42.292 36.25,42.292C35.93,42.292 35.622,42.419 35.396,42.646C35.169,42.872 35.042,43.18 35.042,43.5L35.042,44.208L34.541,43.708C34.313,43.488 34.008,43.366 33.691,43.369C33.375,43.371 33.071,43.498 32.847,43.722C32.623,43.946 32.496,44.25 32.494,44.566C32.491,44.883 32.613,45.188 32.833,45.416L34.541,47.125L32.833,48.834C32.606,49.06 32.479,49.368 32.479,49.688C32.479,50.008 32.606,50.316 32.833,50.542ZM43.708,50.542C43.82,50.655 43.953,50.744 44.1,50.804C44.246,50.865 44.403,50.896 44.562,50.896C44.721,50.896 44.878,50.865 45.024,50.804C45.171,50.744 45.304,50.655 45.416,50.542L45.917,50.042L45.917,50.75C45.917,51.07 46.044,51.378 46.271,51.604C46.497,51.831 46.805,51.958 47.125,51.958C47.446,51.958 47.753,51.831 47.979,51.604C48.206,51.378 48.333,51.07 48.333,50.75L48.333,50.042L48.834,50.542C49.062,50.762 49.367,50.884 49.684,50.881C50.001,50.879 50.304,50.752 50.528,50.528C50.752,50.304 50.879,50 50.882,49.684C50.884,49.367 50.762,49.062 50.542,48.834L48.834,47.125L50.542,45.416C50.762,45.188 50.884,44.883 50.882,44.566C50.879,44.25 50.752,43.946 50.528,43.722C50.304,43.498 50.001,43.371 49.684,43.369C49.367,43.366 49.062,43.488 48.834,43.708L48.333,44.208L48.333,43.5C48.333,43.18 48.206,42.872 47.979,42.646C47.753,42.419 47.446,42.292 47.125,42.292C46.805,42.292 46.497,42.419 46.271,42.646C46.044,42.872 45.917,43.18 45.917,43.5L45.917,44.208L45.416,43.708C45.188,43.488 44.883,43.366 44.566,43.369C44.25,43.371 43.947,43.498 43.723,43.722C43.498,43.946 43.371,44.25 43.369,44.566C43.366,44.883 43.488,45.188 43.708,45.416L45.416,47.125L43.708,48.834C43.481,49.06 43.354,49.368 43.354,49.688C43.354,50.008 43.481,50.316 43.708,50.542ZM21.958,50.542C22.07,50.655 22.203,50.744 22.35,50.804C22.496,50.865 22.653,50.896 22.812,50.896C22.971,50.896 23.128,50.865 23.274,50.804C23.421,50.744 23.554,50.655 23.666,50.542L24.167,50.042L24.167,50.75C24.167,51.07 24.294,51.378 24.521,51.604C24.747,51.831 25.055,51.958 25.375,51.958C25.695,51.958 26.003,51.831 26.229,51.604C26.456,51.378 26.583,51.07 26.583,50.75L26.583,50.042L27.084,50.542C27.312,50.762 27.617,50.884 27.934,50.881C28.25,50.879 28.554,50.752 28.778,50.528C29.002,50.304 29.129,50 29.131,49.684C29.134,49.367 29.012,49.062 28.792,48.834L27.084,47.125L28.792,45.416C29.012,45.188 29.134,44.883 29.131,44.566C29.129,44.25 29.002,43.946 28.778,43.722C28.554,43.498 28.25,43.371 27.934,43.369C27.617,43.366 27.312,43.488 27.084,43.708L26.583,44.208L26.583,43.5C26.583,43.18 26.456,42.872 26.229,42.646C26.003,42.419 25.695,42.292 25.375,42.292C25.055,42.292 24.747,42.419 24.521,42.646C24.294,42.872 24.167,43.18 24.167,43.5L24.167,44.208L23.666,43.708C23.438,43.488 23.133,43.366 22.816,43.369C22.5,43.371 22.196,43.498 21.972,43.722C21.748,43.946 21.621,44.25 21.619,44.566C21.616,44.883 21.738,45.188 21.958,45.416L23.666,47.125L21.958,48.834C21.731,49.06 21.604,49.368 21.604,49.688C21.604,50.008 21.731,50.316 21.958,50.542Z" fill="#082A35"/>
<path d="M53.167,38.667L41.083,38.667L41.083,21.75C41.082,20.469 40.572,19.24 39.666,18.334C38.76,17.428 37.531,16.918 36.25,16.917L33.833,16.917L33.833,10.875C33.831,8.633 32.939,6.483 31.353,4.897C29.767,3.311 27.617,2.419 25.375,2.417L18.125,2.417C15.883,2.419 13.733,3.311 12.147,4.897C10.561,6.483 9.669,8.633 9.667,10.875L9.667,16.917L7.25,16.917C5.969,16.918 4.74,17.428 3.834,18.334C2.928,19.24 2.418,20.469 2.417,21.75L2.417,45.917C2.418,47.198 2.928,48.427 3.834,49.333C4.74,50.239 5.969,50.749 7.25,50.75L16.917,50.75L16.917,53.167C16.918,53.807 17.172,54.421 17.625,54.874C18.078,55.328 18.693,55.582 19.333,55.583L53.167,55.583C53.807,55.582 54.421,55.328 54.874,54.874C55.328,54.421 55.582,53.807 55.583,53.167L55.583,41.083C55.582,40.443 55.328,39.828 54.874,39.375C54.421,38.922 53.807,38.667 53.167,38.667ZM12.083,10.875C12.085,9.273 12.722,7.738 13.855,6.605C14.988,5.472 16.523,4.835 18.125,4.833L25.375,4.833C26.977,4.835 28.512,5.472 29.645,6.605C30.778,7.738 31.415,9.273 31.417,10.875L31.417,16.917L12.083,16.917L12.083,10.875ZM7.25,48.333C6.609,48.332 5.995,48.078 5.542,47.624C5.089,47.171 4.834,46.557 4.833,45.917L4.833,21.75C4.834,21.109 5.089,20.495 5.542,20.042C5.995,19.589 6.609,19.334 7.25,19.333L36.25,19.333C36.891,19.334 37.505,19.589 37.958,20.042C38.411,20.495 38.666,21.109 38.667,21.75L38.667,38.667L19.333,38.667C18.693,38.667 18.078,38.922 17.625,39.375C17.172,39.828 16.918,40.443 16.917,41.083L16.917,48.333L7.25,48.333ZM53.167,53.167L19.333,53.167L19.333,41.083L53.167,41.087L53.167,53.167Z" fill="#082A35"/>
</svg>
