<svg width="16" height="16" viewBox="0 0 16 16" fill="none" xmlns="http://www.w3.org/2000/svg" xmlns:xlink="http://www.w3.org/1999/xlink">
<path d="M7.621,1.9C8.819,1.9 9.79,2.84 9.79,4C9.79,5.16 8.819,6.1 7.621,6.1C6.423,6.1 5.452,5.16 5.452,4C5.452,2.84 6.423,1.9 7.621,1.9ZM7.621,10.9C10.688,10.9 13.92,12.36 13.92,13L13.92,14.1L1.322,14.1L1.322,13C1.322,12.36 4.554,10.9 7.621,10.9ZM7.621,0C5.339,0 3.49,1.79 3.49,4C3.49,6.21 5.339,8 7.621,8C9.903,8 11.752,6.21 11.752,4C11.752,1.79 9.903,0 7.621,0ZM7.621,9C4.864,9 -0.641,10.34 -0.641,13L-0.641,15C-0.641,15.55 -0.176,16 0.392,16L14.85,16C15.418,16 15.882,15.55 15.882,15L15.882,13C15.882,10.34 10.378,9 7.621,9Z" fill="#0C5066"/>
</svg>
