<svg width="26" height="24" viewBox="0 0 26 24" fill="none" xmlns="http://www.w3.org/2000/svg" xmlns:xlink="http://www.w3.org/1999/xlink">
<path d="M12.506,2.85C14.274,2.85 15.706,4.26 15.706,6C15.706,7.74 14.274,9.15 12.506,9.15C10.739,9.15 9.307,7.74 9.307,6C9.307,4.26 10.739,2.85 12.506,2.85ZM12.506,16.35C17.032,16.35 21.801,18.54 21.801,19.5L21.801,21.15L3.212,21.15L3.212,19.5C3.212,18.54 7.981,16.35 12.506,16.35ZM12.506,0C9.139,0 6.412,2.685 6.412,6C6.412,9.315 9.139,12 12.506,12C15.874,12 18.601,9.315 18.601,6C18.601,2.685 15.874,0 12.506,0ZM12.506,13.5C8.438,13.5 0.317,15.51 0.317,19.5L0.317,22.5C0.317,23.325 1.002,24 1.84,24L23.173,24C24.011,24 24.696,23.325 24.696,22.5L24.696,19.5C24.696,15.51 16.575,13.5 12.506,13.5Z" fill="#1E6C85"/>
</svg>
