<svg width="26" height="26" viewBox="0 0 26 26" fill="none" xmlns="http://www.w3.org/2000/svg" xmlns:xlink="http://www.w3.org/1999/xlink">
<path d="M13,25.5C10.528,25.5 8.111,24.767 6.055,23.393C4,22.02 2.398,20.068 1.452,17.784C0.505,15.499 0.258,12.986 0.74,10.561C1.223,8.137 2.413,5.909 4.161,4.161C5.909,2.413 8.137,1.223 10.561,0.74C12.986,0.258 15.499,0.505 17.784,1.452C20.068,2.398 22.02,4 23.393,6.055C24.767,8.111 25.5,10.528 25.5,13C25.5,16.315 24.183,19.495 21.839,21.839C19.495,24.183 16.315,25.5 13,25.5ZM13,3C11.022,3 9.089,3.587 7.444,4.685C5.8,5.784 4.518,7.346 3.761,9.173C3.004,11 2.806,13.011 3.192,14.951C3.578,16.891 4.53,18.673 5.929,20.071C7.327,21.47 9.109,22.422 11.049,22.808C12.989,23.194 15,22.996 16.827,22.239C18.654,21.482 20.216,20.2 21.315,18.556C22.414,16.911 23,14.978 23,13C23,10.348 21.946,7.804 20.071,5.929C18.196,4.054 15.652,3 13,3Z" fill="#1E6C85"/>
</svg>
