<svg width="26" height="26" viewBox="0 0 26 26" fill="none" xmlns="http://www.w3.org/2000/svg" xmlns:xlink="http://www.w3.org/1999/xlink">
<path d="M13,0.5C10.528,0.5 8.111,1.233 6.055,2.607C4,3.98 2.398,5.932 1.452,8.216C0.505,10.501 0.258,13.014 0.74,15.439C1.223,17.863 2.413,20.091 4.161,21.839C5.909,23.587 8.137,24.778 10.561,25.26C12.986,25.742 15.499,25.495 17.784,24.548C20.068,23.602 22.02,22 23.393,19.945C24.767,17.889 25.5,15.472 25.5,13C25.5,11.358 25.177,9.733 24.549,8.216C23.92,6.7 23,5.322 21.839,4.161C20.678,3 19.3,2.08 17.784,1.452C16.267,0.823 14.642,0.5 13,0.5ZM13,23C11.022,23 9.089,22.414 7.444,21.315C5.8,20.216 4.518,18.654 3.761,16.827C3.004,15 2.806,12.989 3.192,11.049C3.578,9.109 4.53,7.327 5.929,5.929C7.327,4.53 9.109,3.578 11.049,3.192C12.989,2.806 15,3.004 16.827,3.761C18.654,4.518 20.216,5.8 21.315,7.444C22.414,9.089 23,11.022 23,13C23,15.652 21.946,18.196 20.071,20.071C18.196,21.946 15.652,23 13,23Z" fill="#1E6C85"/>
<path d="M13,6.75C11.764,6.75 10.556,7.117 9.528,7.803C8.5,8.49 7.699,9.466 7.226,10.608C6.753,11.75 6.629,13.007 6.87,14.219C7.111,15.432 7.707,16.545 8.581,17.419C9.455,18.293 10.568,18.889 11.781,19.13C12.993,19.371 14.25,19.247 15.392,18.774C16.534,18.301 17.51,17.5 18.197,16.472C18.883,15.444 19.25,14.236 19.25,13C19.25,11.342 18.592,9.753 17.419,8.581C16.247,7.408 14.658,6.75 13,6.75Z" fill="#1E6C85"/>
</svg>
