<svg width="180" height="160" viewBox="0 0 180 160" fill="none" xmlns="http://www.w3.org/2000/svg" xmlns:xlink="http://www.w3.org/1999/xlink">
<path d="M54.451,4.362C54.488,4.055 54.581,3.759 54.724,3.491C54.868,3.224 55.059,2.991 55.287,2.806C55.515,2.621 55.775,2.488 56.05,2.414C56.326,2.341 56.613,2.329 56.893,2.378C62.944,3.347 69.516,4.559 76.429,5.974C76.954,6.084 77.423,6.404 77.744,6.871C78.065,7.338 78.216,7.918 78.166,8.499C78.117,9.081 77.871,9.621 77.476,10.015C77.082,10.409 76.567,10.629 76.032,10.632C75.899,10.632 75.767,10.618 75.636,10.59C69.198,9.261 62.737,8.073 56.256,7.027C55.693,6.933 55.188,6.6 54.85,6.101C54.512,5.601 54.368,4.976 54.451,4.362ZM45.218,4.7C45.643,4.7 46.06,4.563 46.414,4.304C46.768,4.046 47.044,3.679 47.207,3.25C47.37,2.82 47.413,2.348 47.33,1.892C47.246,1.436 47.041,1.017 46.74,0.688C46.439,0.36 46.055,0.136 45.638,0.045C45.22,-0.046 44.787,0.001 44.394,0.179C44,0.357 43.664,0.658 43.427,1.044C43.19,1.431 43.064,1.885 43.064,2.35C43.064,2.973 43.291,3.571 43.695,4.012C44.099,4.453 44.646,4.7 45.218,4.7ZM151.508,83.365C151.082,83.365 150.666,83.503 150.312,83.762C149.958,84.02 149.682,84.387 149.519,84.816C149.356,85.246 149.313,85.718 149.396,86.174C149.479,86.63 149.684,87.049 149.985,87.377C150.287,87.706 150.67,87.93 151.088,88.021C151.506,88.111 151.939,88.065 152.332,87.887C152.726,87.709 153.062,87.408 153.299,87.021C153.535,86.635 153.662,86.18 153.662,85.716C153.662,85.092 153.435,84.495 153.031,84.054C152.627,83.613 152.079,83.365 151.508,83.365ZM151.508,98.604C151.082,98.604 150.666,98.742 150.312,99C149.958,99.258 149.682,99.625 149.519,100.055C149.356,100.484 149.313,100.957 149.396,101.413C149.479,101.869 149.684,102.287 149.985,102.616C150.287,102.945 150.67,103.168 151.088,103.259C151.506,103.35 151.939,103.303 152.332,103.125C152.726,102.948 153.062,102.646 153.299,102.26C153.535,101.873 153.662,101.419 153.662,100.954C153.662,100.331 153.435,99.733 153.031,99.292C152.627,98.852 152.079,98.604 151.508,98.604ZM149.355,113.843C148.929,113.843 148.513,113.98 148.158,114.239C147.804,114.497 147.528,114.864 147.365,115.293C147.202,115.723 147.16,116.195 147.243,116.651C147.326,117.107 147.531,117.526 147.832,117.855C148.133,118.183 148.517,118.407 148.935,118.498C149.352,118.588 149.785,118.542 150.179,118.364C150.572,118.186 150.909,117.885 151.145,117.498C151.382,117.112 151.508,116.658 151.508,116.193C151.509,115.883 151.454,115.577 151.347,115.29C151.239,115.004 151.081,114.744 150.88,114.525C150.68,114.306 150.443,114.132 150.181,114.013C149.919,113.894 149.638,113.833 149.355,113.833L149.355,113.843ZM127.011,55.29L100.167,71.135C98.301,72.224 96.163,72.629 94.069,72.29C91.975,71.952 90.037,70.888 88.539,69.255L59.059,36.945C58.656,36.503 58.109,36.254 57.537,36.253C56.966,36.251 56.417,36.498 56.012,36.938C55.608,37.378 55.379,37.975 55.378,38.599C55.377,39.223 55.603,39.821 56.006,40.263L85.486,72.573C87.639,74.922 90.427,76.454 93.439,76.943C96.45,77.432 99.526,76.853 102.213,75.29L129.061,59.445C129.31,59.298 129.53,59.099 129.709,58.86C129.887,58.62 130.02,58.345 130.101,58.049C130.182,57.753 130.208,57.442 130.179,57.135C130.15,56.828 130.066,56.53 129.931,56.259C129.797,55.987 129.614,55.747 129.395,55.552C129.175,55.358 128.923,55.212 128.652,55.124C128.38,55.036 128.096,55.007 127.815,55.038C127.533,55.07 127.26,55.162 127.011,55.309L127.011,55.29ZM178.727,54.266L168.963,58.91L174.627,62.294C175.038,62.539 175.365,62.925 175.557,63.392C175.749,63.859 175.797,64.382 175.692,64.881C175.587,65.379 175.336,65.827 174.977,66.156C174.617,66.485 174.169,66.677 173.701,66.703C173.322,66.703 167.37,67.036 161.965,67.036C159.549,67.084 157.132,66.965 154.73,66.679C154.165,66.587 153.657,66.254 153.317,65.752C152.977,65.251 152.834,64.624 152.919,64.007C153.003,63.391 153.309,62.836 153.768,62.465C154.227,62.095 154.802,61.938 155.367,62.031C158.788,62.364 162.225,62.452 165.656,62.294L159.738,58.759C159.25,58.452 158.892,57.949 158.74,57.358C158.588,56.766 158.654,56.133 158.924,55.594C159.194,55.055 159.647,54.653 160.186,54.474C160.725,54.295 161.306,54.354 161.806,54.637L164.183,56.047L170.126,53.227C164.618,51.698 159.186,49.859 153.851,47.718C150.093,53.241 146.078,58.55 141.822,63.624C141.852,64.672 141.861,65.706 141.878,66.745L157.137,68.766C157.708,68.803 158.243,69.086 158.623,69.553C159.003,70.019 159.197,70.632 159.163,71.255C159.13,71.878 158.871,72.461 158.443,72.876C158.015,73.291 157.454,73.503 156.883,73.467L156.62,73.467L141.908,71.516C141.813,86.746 140.641,101.945 138.403,116.978C138.128,118.723 137.234,120.281 135.914,121.311C134.594,122.342 132.955,122.762 131.353,122.482C100.485,117.266 70.139,108.872 40.721,97.41C39.217,96.789 37.996,95.55 37.319,93.958C36.642,92.366 36.563,90.548 37.099,88.893C39.753,77.478 41.012,65.73 40.842,53.955L22.116,49.156C21.841,49.086 21.581,48.956 21.351,48.776C21.121,48.596 20.926,48.368 20.778,48.105C20.629,47.843 20.528,47.551 20.483,47.246C20.437,46.941 20.447,46.63 20.512,46.329C20.577,46.028 20.695,45.745 20.86,45.494C21.026,45.243 21.234,45.031 21.475,44.868C21.715,44.705 21.983,44.596 22.262,44.546C22.541,44.497 22.827,44.507 23.102,44.578L40.898,49.142L40.898,47.568C36.099,39.768 31.89,31.554 28.314,23.008C25.299,22.515 17.314,21.189 10.703,19.991L20.126,27.746C20.464,28.025 20.719,28.406 20.859,28.842C20.999,29.278 21.019,29.749 20.915,30.197C20.811,30.645 20.589,31.049 20.275,31.36C19.962,31.671 19.572,31.874 19.153,31.944L15.195,32.606L25.303,38.28C25.563,38.415 25.795,38.606 25.986,38.842C26.177,39.077 26.323,39.352 26.415,39.65C26.507,39.947 26.543,40.262 26.522,40.576C26.5,40.889 26.421,41.195 26.289,41.474C26.158,41.754 25.976,42.002 25.755,42.203C25.534,42.405 25.278,42.556 25.003,42.648C24.727,42.74 24.438,42.77 24.151,42.737C23.865,42.705 23.587,42.61 23.335,42.458L7.318,33.457C6.913,33.23 6.585,32.869 6.38,32.425C6.175,31.982 6.104,31.479 6.177,30.989C6.25,30.498 6.464,30.046 6.787,29.697C7.111,29.347 7.527,29.118 7.977,29.043L13.455,28.132L0.858,17.758C0.462,17.432 0.181,16.967 0.062,16.442C-0.056,15.916 -0.005,15.362 0.208,14.873C0.421,14.384 0.781,13.99 1.229,13.758C1.677,13.525 2.185,13.469 2.667,13.598C7.198,14.806 29.92,18.515 30.153,18.552C30.517,18.612 30.861,18.774 31.152,19.02C31.444,19.267 31.672,19.592 31.815,19.962C34.42,26.439 37.443,32.706 40.859,38.717C40.743,31.619 40.497,25.631 40.329,22.162C40.281,21.181 40.43,20.201 40.767,19.291C41.105,18.38 41.621,17.562 42.28,16.893C42.933,16.226 43.713,15.725 44.564,15.425C45.415,15.125 46.316,15.034 47.203,15.159C77.003,19.876 106.503,26.627 135.53,35.37C136.668,35.713 137.691,36.405 138.478,37.366C139.264,38.326 139.781,39.513 139.966,40.785C140.71,46.127 141.23,51.504 141.525,56.898C144.995,52.716 148.208,48.288 151.142,43.643C151.402,43.178 151.802,42.827 152.274,42.649C152.745,42.47 153.258,42.476 153.726,42.665C161.458,46.054 169.528,48.436 177.771,49.763C178.278,49.711 178.785,49.872 179.189,50.212C179.592,50.552 179.863,51.047 179.946,51.596C180.057,52.126 179.996,52.682 179.774,53.169C179.552,53.656 179.182,54.043 178.727,54.266ZM135.711,41.509C135.656,41.128 135.502,40.772 135.265,40.485C135.029,40.198 134.722,39.992 134.38,39.892C105.548,31.214 76.246,24.512 46.647,19.826C46.57,19.819 46.492,19.819 46.415,19.826C46.168,19.829 45.924,19.887 45.698,19.997C45.472,20.106 45.269,20.264 45.101,20.461C44.933,20.658 44.803,20.891 44.719,21.144C44.636,21.398 44.6,21.667 44.615,21.937C45.334,36.874 46.441,73.443 41.169,90.421C41.08,90.666 41.036,90.928 41.04,91.192C41.044,91.456 41.096,91.716 41.192,91.958C41.289,92.2 41.428,92.419 41.602,92.602C41.776,92.785 41.982,92.929 42.207,93.025C71.357,104.382 101.428,112.698 132.016,117.861C132.502,117.95 133.001,117.826 133.404,117.517C133.807,117.207 134.082,116.736 134.169,116.207C138.036,91.525 138.552,66.356 135.711,41.509ZM74.659,139.215C63.807,147.075 51.655,152.546 38.882,155.323C38.344,155.407 37.854,155.71 37.512,156.171C37.17,156.632 37,157.218 37.038,157.81C37.075,158.402 37.316,158.957 37.712,159.363C38.109,159.77 38.631,159.997 39.175,160C39.275,159.999 39.374,159.991 39.472,159.976C52.917,157.136 65.706,151.391 77.088,143.079C77.33,142.909 77.538,142.688 77.701,142.429C77.863,142.17 77.977,141.878 78.034,141.57C78.092,141.262 78.092,140.945 78.035,140.637C77.978,140.329 77.865,140.037 77.703,139.777C77.541,139.518 77.333,139.297 77.091,139.126C76.85,138.956 76.579,138.84 76.296,138.786C76.012,138.732 75.722,138.74 75.441,138.811C75.161,138.881 74.896,139.012 74.663,139.196L74.659,139.215ZM51.953,127.253C52.259,126.743 52.372,126.124 52.269,125.526C52.165,124.927 51.852,124.396 51.396,124.045C50.94,123.693 50.377,123.548 49.826,123.641C49.274,123.733 48.777,124.056 48.439,124.541C41.208,134.593 32.06,142.808 21.63,148.616C21.369,148.751 21.136,148.941 20.945,149.176C20.753,149.411 20.606,149.685 20.514,149.983C20.421,150.281 20.384,150.596 20.405,150.909C20.426,151.223 20.504,151.529 20.635,151.809C20.766,152.089 20.948,152.337 21.168,152.539C21.389,152.742 21.645,152.893 21.92,152.986C22.196,153.078 22.485,153.109 22.772,153.077C23.059,153.045 23.337,152.95 23.589,152.799C34.67,146.689 44.361,137.954 51.953,127.234L51.953,127.253ZM34.881,109.546C35.057,108.953 35.009,108.308 34.748,107.753C34.488,107.198 34.036,106.779 33.492,106.588C32.949,106.396 32.358,106.448 31.849,106.733C31.341,107.017 30.957,107.51 30.781,108.103C30.781,108.179 28.331,115.784 16.47,127.314C16.043,127.728 15.785,128.311 15.752,128.933C15.719,129.555 15.914,130.167 16.293,130.632C16.673,131.098 17.207,131.38 17.777,131.416C18.347,131.452 18.907,131.239 19.334,130.825C32.233,118.298 34.791,109.894 34.881,109.546Z" fill="#0C5066"/>
</svg>
