<svg width="42" height="40" viewBox="0 0 42 40" fill="none" xmlns="http://www.w3.org/2000/svg" xmlns:xlink="http://www.w3.org/1999/xlink">
<path d="M38.182,2L39.767,3.219C40.232,2.615 40.313,1.8 39.976,1.116C39.639,0.433 38.944,0 38.182,0L38.182,2ZM1.818,2L1.818,0C1.056,0 0.361,0.433 0.024,1.116C-0.313,1.8 -0.232,2.615 0.233,3.219L1.818,2ZM16.364,20.92L18.364,20.92C18.364,20.479 18.218,20.051 17.949,19.701L16.364,20.92ZM16.364,34L14.364,34C14.364,34.729 14.761,35.401 15.4,35.752L16.364,34ZM23.636,38L22.673,39.752C23.292,40.093 24.046,40.081 24.654,39.722C25.263,39.362 25.636,38.707 25.636,38L23.636,38ZM23.636,20.92L22.051,19.701C21.782,20.051 21.636,20.479 21.636,20.92L23.636,20.92ZM38.182,0L1.818,0L1.818,4L38.182,4L38.182,0ZM0.233,3.219L14.778,22.139L17.949,19.701L3.404,0.781L0.233,3.219ZM14.364,20.92L14.364,34L18.364,34L18.364,20.92L14.364,20.92ZM15.4,35.752L22.673,39.752L24.6,36.248L17.327,32.248L15.4,35.752ZM25.636,38L25.636,20.92L21.636,20.92L21.636,38L25.636,38ZM25.222,22.139L39.767,3.219L36.596,0.781L22.051,19.701L25.222,22.139Z" fill="#E4F0F3"/>
</svg>
