<svg width="32" height="30" viewBox="0 0 32 30" fill="none" xmlns="http://www.w3.org/2000/svg" xmlns:xlink="http://www.w3.org/1999/xlink">
<path d="M15.426,0.941C7.323,0.941 0.732,7.247 0.732,15.003C0.732,22.758 7.323,29.065 15.426,29.065C23.531,29.065 30.121,22.758 30.121,15.003C30.121,7.247 23.531,0.941 15.426,0.941ZM15.426,2.809C22.472,2.809 28.17,8.261 28.17,15.003C28.17,21.744 22.472,27.19 15.426,27.19C8.382,27.19 2.691,21.744 2.691,15.003C2.691,8.261 8.382,2.809 15.426,2.809ZM15.43,4.687C13.318,4.687 11.253,5.284 9.494,6.399C9.386,6.467 9.294,6.555 9.222,6.657C9.15,6.759 9.1,6.874 9.074,6.994C9.049,7.115 9.048,7.239 9.073,7.36C9.098,7.481 9.147,7.596 9.218,7.699C9.289,7.801 9.381,7.89 9.487,7.959C9.594,8.027 9.714,8.075 9.84,8.1C9.966,8.124 10.096,8.125 10.222,8.101C10.349,8.078 10.469,8.031 10.576,7.963C12.016,7.05 13.704,6.563 15.43,6.562C16.589,6.56 17.736,6.777 18.807,7.2C19.878,7.624 20.85,8.245 21.669,9.029C22.488,9.813 23.138,10.744 23.58,11.768C24.023,12.793 24.249,13.891 24.247,14.999C24.247,19.67 20.311,23.436 15.43,23.436C14.272,23.438 13.125,23.221 12.054,22.798C10.983,22.375 10.01,21.753 9.191,20.97C8.372,20.186 7.723,19.255 7.28,18.23C6.838,17.206 6.611,16.108 6.614,14.999C6.614,13.347 7.125,11.733 8.079,10.354C8.223,10.147 8.274,9.893 8.223,9.649C8.171,9.406 8.02,9.191 7.804,9.054C7.587,8.916 7.322,8.867 7.067,8.916C6.813,8.966 6.589,9.11 6.445,9.317C5.279,11.002 4.656,12.978 4.654,14.999C4.652,20.684 9.491,25.311 15.43,25.311C21.37,25.311 26.206,20.683 26.206,14.999C26.206,9.315 21.371,4.685 15.43,4.687ZM15.413,8.42C15.284,8.422 15.157,8.449 15.039,8.498C14.921,8.547 14.814,8.618 14.724,8.707C14.635,8.796 14.565,8.901 14.518,9.016C14.471,9.131 14.448,9.253 14.451,9.376L14.451,15.003C14.453,15.25 14.557,15.486 14.74,15.66L18.66,19.41C18.748,19.508 18.856,19.588 18.978,19.644C19.099,19.7 19.232,19.732 19.367,19.737C19.501,19.742 19.636,19.72 19.762,19.673C19.887,19.626 20.002,19.554 20.097,19.463C20.193,19.372 20.267,19.262 20.317,19.142C20.366,19.022 20.389,18.893 20.383,18.764C20.378,18.635 20.345,18.508 20.286,18.392C20.227,18.276 20.144,18.172 20.042,18.088L16.41,14.607L16.41,9.376C16.413,9.25 16.389,9.125 16.34,9.008C16.29,8.891 16.217,8.785 16.124,8.695C16.031,8.606 15.92,8.536 15.798,8.488C15.675,8.441 15.545,8.418 15.413,8.42Z" clip-rule="evenodd" fill-rule="evenodd" fill="#0C5066"/>
</svg>
