<svg width="40" height="40" viewBox="0 0 40 40" fill="none" xmlns="http://www.w3.org/2000/svg" xmlns:xlink="http://www.w3.org/1999/xlink">
<path d="M38,18.398L36.04,18.398C34.934,18.398 34.04,19.116 34.04,20C34.04,20.882 34.934,21.598 36.04,21.598L38,21.598C39.104,21.598 40,20.884 40,20C40,19.118 39.102,18.398 38,18.398ZM20,9C18.554,8.996 17.122,9.277 15.785,9.828C14.449,10.379 13.234,11.189 12.212,12.212C11.189,13.234 10.379,14.449 9.828,15.785C9.277,17.122 8.996,18.554 9,20C9,26.102 13.898,31 20,31C26.1,31 31,26.102 31,20C31,13.898 26.098,9 20,9ZM20,28C15.578,28 12,24.418 12,20C12,15.578 15.578,12 20,12C22.122,12 24.157,12.843 25.657,14.343C27.157,15.843 28,17.878 28,20C28,22.122 27.157,24.157 25.657,25.657C24.157,27.157 22.122,28 20,28ZM6,20C6,19.118 5.102,18.398 4,18.398L2,18.398C0.894,18.398 0,19.116 0,20C0,20.882 0.894,21.598 2,21.598L4,21.598C5.102,21.598 6,20.882 6,20ZM20,6C20.882,6 21.598,5.106 21.598,4L21.598,2C21.598,0.894 20.882,0 20,0C19.116,0 18.398,0.894 18.398,2L18.398,4C18.398,5.106 19.116,6 20,6ZM20,34C19.116,34 18.398,34.894 18.398,36L18.398,38C18.398,39.106 19.116,40 20,40C20.882,40 21.598,39.106 21.598,38L21.598,36C21.598,34.894 20.882,34 20,34ZM34.73,7.532C35.512,6.75 35.638,5.61 35.014,4.986C34.39,4.362 33.248,4.49 32.47,5.272L31.07,6.67C30.288,7.452 30.162,8.592 30.786,9.216C31.41,9.84 32.552,9.712 33.332,8.93L34.73,7.532ZM6.668,31.066L5.268,32.468C4.486,33.25 4.36,34.386 4.984,35.01C5.608,35.634 6.75,35.51 7.528,34.728L8.928,33.33C9.71,32.548 9.836,31.408 9.212,30.782C8.588,30.156 7.446,30.288 6.668,31.066ZM7.53,5.27C6.75,4.488 5.608,4.36 4.984,4.984C4.36,5.608 4.488,6.75 5.266,7.532L6.666,8.93C7.448,9.712 8.586,9.84 9.21,9.216C9.834,8.592 9.708,7.45 8.928,6.67L7.53,5.27ZM31.068,33.332L32.468,34.73C33.25,35.512 34.388,35.636 35.012,35.016C35.636,34.392 35.51,33.25 34.728,32.47L33.33,31.072C32.548,30.29 31.408,30.162 30.782,30.786C30.156,31.41 30.286,32.55 31.068,33.332Z" fill="#0C5066"/>
</svg>
