<svg width="18" height="18" viewBox="0 0 18 18" fill="none" xmlns="http://www.w3.org/2000/svg" xmlns:xlink="http://www.w3.org/1999/xlink">
<path d="M3.833,8C1.5,8 -0.333,9.833 -0.333,12.167C-0.333,14.5 1.5,16.333 3.833,16.333C6.167,16.333 8,14.5 8,12.167C8,9.833 6.167,8 3.833,8ZM7.167,3.833C5.167,3.833 3.333,5.083 2.583,6.917C5.5,6.167 8.417,8 9.083,10.833C9.333,11.667 9.333,12.583 9.083,13.417C11.667,12.333 12.833,9.417 11.75,6.917C11,5.083 9.167,3.833 7.167,3.833ZM15.667,2.833C14.75,0.917 12.667,-0.333 10.5,-0.333C8.333,-0.333 6.25,0.917 5.333,2.833C8.667,1.833 12.167,3.667 13.167,6.917C13.583,8.167 13.583,9.417 13.167,10.667C16,9.25 17.167,5.75 15.667,2.833Z" fill="#0C5066"/>
</svg>
