<svg width="300" height="300" viewBox="0 0 300 300" fill="none" xmlns="http://www.w3.org/2000/svg" xmlns:xlink="http://www.w3.org/1999/xlink">
<path d="M51.974,217.034C50.27,215.432 47.959,214.532 45.549,214.532C43.14,214.532 40.829,215.432 39.124,217.034L27.374,228.086L15.624,217.034C14.786,216.218 13.783,215.566 12.674,215.118C11.566,214.67 10.373,214.436 9.166,214.426C7.96,214.416 6.763,214.632 5.646,215.062C4.53,215.492 3.515,216.126 2.662,216.928C1.808,217.73 1.134,218.686 0.677,219.736C0.22,220.786 -0.01,221.912 0,223.046C0.011,224.182 0.262,225.302 0.738,226.346C1.214,227.388 1.906,228.332 2.774,229.12L14.524,240.17L2.774,251.222C1.906,252.01 1.214,252.954 0.738,253.996C0.262,255.04 0.011,256.16 0,257.296C-0.01,258.43 0.22,259.556 0.677,260.606C1.134,261.656 1.808,262.612 2.662,263.414C3.515,264.216 4.53,264.85 5.646,265.28C6.763,265.71 7.96,265.926 9.166,265.916C10.373,265.906 11.566,265.672 12.674,265.224C13.783,264.776 14.786,264.124 15.624,263.308L27.374,252.256L39.124,263.308C40.838,264.864 43.134,265.726 45.517,265.706C47.899,265.688 50.179,264.788 51.863,263.204C53.548,261.618 54.504,259.476 54.525,257.234C54.546,254.994 53.63,252.834 51.974,251.222L40.224,240.17L51.974,229.12C53.678,227.516 54.635,225.344 54.635,223.076C54.635,220.81 53.678,218.636 51.974,217.034ZM133.762,217.034C132.058,215.432 129.747,214.532 127.337,214.532C124.927,214.532 122.616,215.432 120.912,217.034L109.162,228.086L97.412,217.034C95.698,215.478 93.402,214.616 91.02,214.636C88.637,214.654 86.358,215.554 84.673,217.138C82.988,218.722 82.032,220.866 82.011,223.108C81.991,225.348 82.907,227.508 84.562,229.12L96.312,240.17L84.562,251.222C83.694,252.01 83.002,252.954 82.526,253.996C82.049,255.04 81.799,256.16 81.788,257.296C81.778,258.43 82.008,259.556 82.464,260.606C82.921,261.656 83.596,262.612 84.449,263.414C85.303,264.216 86.317,264.85 87.434,265.28C88.551,265.71 89.748,265.926 90.954,265.916C92.161,265.906 93.353,265.672 94.462,265.224C95.571,264.776 96.574,264.124 97.412,263.308L109.162,252.256L120.912,263.308C122.626,264.864 124.922,265.726 127.304,265.706C129.687,265.688 131.966,264.788 133.651,263.204C135.336,261.618 136.292,259.476 136.313,257.234C136.333,254.994 135.417,252.834 133.762,251.222L122.012,240.17L133.762,229.12C135.466,227.516 136.423,225.344 136.423,223.076C136.423,220.81 135.466,218.636 133.762,217.034ZM215.55,217.034C213.846,215.432 211.534,214.532 209.124,214.532C206.716,214.532 204.404,215.432 202.7,217.034L190.95,228.086L179.2,217.034C177.486,215.478 175.19,214.616 172.807,214.636C170.425,214.654 168.145,215.554 166.46,217.138C164.776,218.722 163.82,220.866 163.799,223.108C163.778,225.348 164.694,227.508 166.35,229.12L178.1,240.17L166.35,251.222C165.482,252.01 164.79,252.954 164.313,253.996C163.837,255.04 163.586,256.16 163.576,257.296C163.565,258.43 163.795,259.556 164.252,260.606C164.709,261.656 165.384,262.612 166.237,263.414C167.09,264.216 168.105,264.85 169.222,265.28C170.339,265.71 171.535,265.926 172.742,265.916C173.949,265.906 175.141,265.672 176.25,265.224C177.358,264.776 178.361,264.124 179.2,263.308L190.95,252.256L202.7,263.308C204.414,264.864 206.71,265.726 209.092,265.706C211.474,265.688 213.754,264.788 215.438,263.204C217.124,261.618 218.08,259.476 218.1,257.234C218.12,254.994 217.206,252.834 215.55,251.222L203.8,240.17L215.55,229.12C217.254,227.516 218.21,225.344 218.21,223.076C218.21,220.81 217.254,218.636 215.55,217.034ZM285.588,240.17L297.338,229.12C298.992,227.508 299.908,225.348 299.888,223.108C299.868,220.866 298.912,218.722 297.226,217.138C295.542,215.554 293.262,214.654 290.88,214.636C288.498,214.616 286.202,215.478 284.488,217.034L272.738,228.086L260.988,217.034C259.274,215.478 256.978,214.616 254.596,214.636C252.212,214.654 249.934,215.554 248.248,217.138C246.564,218.722 245.608,220.866 245.586,223.108C245.566,225.348 246.482,227.508 248.138,229.12L259.888,240.17L248.138,251.222C247.27,252.01 246.578,252.954 246.1,253.996C245.624,255.04 245.374,256.16 245.364,257.296C245.354,258.43 245.582,259.556 246.04,260.606C246.496,261.656 247.172,262.612 248.024,263.414C248.878,264.216 249.892,264.85 251.01,265.28C252.126,265.71 253.324,265.926 254.53,265.916C255.736,265.906 256.928,265.672 258.038,265.224C259.146,264.776 260.148,264.124 260.988,263.308L272.738,252.256L284.488,263.308C286.202,264.864 288.498,265.726 290.88,265.706C293.262,265.688 295.542,264.788 297.226,263.204C298.912,261.618 299.868,259.476 299.888,257.234C299.908,254.994 298.992,252.834 297.338,251.222L285.588,240.17ZM45.549,282.906L9.199,282.906C6.789,282.906 4.478,283.806 2.773,285.41C1.069,287.012 0.112,289.186 0.112,291.452C0.112,293.72 1.069,295.894 2.773,297.496C4.478,299.1 6.789,300 9.199,300L45.549,300C47.959,300 50.271,299.1 51.975,297.496C53.679,295.894 54.637,293.72 54.637,291.452C54.637,289.186 53.679,287.012 51.975,285.41C50.271,283.806 47.959,282.906 45.549,282.906ZM127.337,282.906L90.987,282.906C88.577,282.906 86.265,283.806 84.561,285.41C82.857,287.012 81.899,289.186 81.899,291.452C81.899,293.72 82.857,295.894 84.561,297.496C86.265,299.1 88.577,300 90.987,300L127.337,300C129.747,300 132.059,299.1 133.763,297.496C135.467,295.894 136.425,293.72 136.425,291.452C136.425,289.186 135.467,287.012 133.763,285.41C132.059,283.806 129.747,282.906 127.337,282.906ZM209.124,282.906L172.775,282.906C170.365,282.906 168.053,283.806 166.349,285.41C164.645,287.012 163.687,289.186 163.687,291.452C163.687,293.72 164.645,295.894 166.349,297.496C168.053,299.1 170.365,300 172.775,300L209.124,300C211.534,300 213.846,299.1 215.55,297.496C217.254,295.894 218.212,293.72 218.212,291.452C218.212,289.186 217.254,287.012 215.55,285.41C213.846,283.806 211.534,282.906 209.124,282.906ZM290.912,282.906L254.562,282.906C252.152,282.906 249.84,283.806 248.136,285.41C246.432,287.012 245.474,289.186 245.474,291.452C245.474,293.72 246.432,295.894 248.136,297.496C249.84,299.1 252.152,300 254.562,300L290.912,300C293.322,300 295.634,299.1 297.338,297.496C299.042,295.894 300,293.72 300,291.452C300,289.186 299.042,287.012 297.338,285.41C295.634,283.806 293.322,282.906 290.912,282.906ZM227.754,74.359L210.942,74.359L210.942,57.265C210.942,42.077 204.528,27.512 193.109,16.773C181.691,6.033 166.204,0 150.056,0C133.908,0 118.421,6.033 107.003,16.773C95.584,27.512 89.169,42.077 89.169,57.265L89.169,74.359L72.357,74.359C71.161,74.348 69.974,74.561 68.866,74.986C67.757,75.412 66.751,76.041 65.905,76.837C65.058,77.633 64.389,78.58 63.937,79.622C63.485,80.664 63.258,81.78 63.27,82.906L63.27,163.248C63.275,170.047 66.149,176.566 71.26,181.374C76.372,186.181 83.304,188.884 90.533,188.889L209.58,188.889C216.808,188.884 223.74,186.181 228.852,181.374C233.964,176.566 236.836,170.047 236.842,163.248L236.842,82.906C236.854,81.78 236.628,80.664 236.174,79.622C235.722,78.58 235.054,77.633 234.208,76.837C233.36,76.041 232.354,75.412 231.246,74.986C230.138,74.561 228.95,74.348 227.754,74.359ZM107.344,57.265C107.344,46.611 111.844,36.393 119.854,28.86C127.864,21.326 138.728,17.094 150.056,17.094C161.384,17.094 172.247,21.326 180.257,28.86C188.267,36.393 192.767,46.611 192.767,57.265L192.767,74.359L107.344,74.359L107.344,57.265Z" fill="#0C5066"/>
</svg>
