<svg width="26" height="26" viewBox="0 0 26 26" fill="none" xmlns="http://www.w3.org/2000/svg" xmlns:xlink="http://www.w3.org/1999/xlink">
<path d="M14.334,4.558L14.334,5.494C14.317,6.325 12.94,6.798 12.505,5.891C12.447,5.766 12.416,5.631 12.414,5.494L12.414,4.558L9.535,4.558C8.797,4.523 8.302,3.581 8.81,3.008C8.985,2.811 9.126,2.704 9.535,2.685C10.494,2.685 11.454,2.682 12.414,2.676L12.414,1.749C12.412,1.649 12.428,1.55 12.462,1.456C12.589,1.08 12.969,0.813 13.393,0.813C13.906,0.832 14.323,1.206 14.334,1.749L14.334,2.665C16.253,2.654 18.173,2.643 20.093,2.653L20.093,1.749C20.102,1.248 20.477,0.834 21.033,0.813L21.071,0.813C21.584,0.832 22.001,1.206 22.012,1.749L22.012,2.67L23.043,2.686C24.514,2.731 25.823,3.965 25.85,5.46C25.887,11.101 25.887,16.743 25.85,22.384C25.824,23.833 24.539,25.13 23.007,25.158C16.586,25.197 10.163,25.197 3.741,25.158C2.262,25.131 0.927,23.903 0.898,22.384C0.861,16.743 0.861,11.101 0.898,5.46C0.925,4.001 2.206,2.695 3.774,2.685L4.737,2.685L4.737,1.749C4.734,1.649 4.75,1.55 4.785,1.456C4.912,1.08 5.291,0.813 5.715,0.813C6.228,0.832 6.645,1.206 6.656,1.749L6.656,5.494C6.639,6.324 5.302,6.789 4.843,5.925C4.774,5.791 4.738,5.644 4.737,5.494L4.737,4.554C4.409,4.552 4.081,4.553 3.753,4.558C3.266,4.573 2.832,4.989 2.817,5.471C2.71,11.104 2.71,16.739 2.817,22.372C2.832,22.849 3.259,23.27 3.753,23.285C10.167,23.401 16.582,23.401 22.996,23.285C23.483,23.27 23.916,22.854 23.932,22.372C24.038,16.74 24.038,11.103 23.932,5.471C23.917,5.229 23.81,5.001 23.632,4.832C23.454,4.663 23.217,4.565 22.969,4.558L22.012,4.558L22.012,5.494C21.995,6.317 20.654,6.781 20.199,5.925C20.131,5.791 20.094,5.644 20.093,5.494L20.093,4.558L14.334,4.558ZM5.696,19.54C5.824,19.536 5.953,19.557 6.073,19.603C6.193,19.648 6.302,19.716 6.395,19.804C6.487,19.891 6.561,19.996 6.611,20.111C6.661,20.227 6.687,20.351 6.687,20.477C6.687,20.603 6.661,20.727 6.611,20.843C6.561,20.958 6.487,21.063 6.395,21.15C6.302,21.238 6.193,21.306 6.073,21.351C5.953,21.397 5.824,21.418 5.696,21.414C5.446,21.406 5.21,21.304 5.036,21.129C4.862,20.954 4.765,20.721 4.765,20.477C4.765,20.234 4.862,20 5.036,19.825C5.21,19.65 5.446,19.548 5.696,19.54ZM9.535,19.54C9.665,19.534 9.795,19.555 9.916,19.599C10.038,19.644 10.149,19.712 10.242,19.8C10.336,19.887 10.411,19.993 10.461,20.109C10.512,20.226 10.538,20.351 10.538,20.478C10.538,20.604 10.512,20.729 10.461,20.846C10.41,20.962 10.335,21.067 10.241,21.155C10.147,21.242 10.036,21.31 9.914,21.355C9.793,21.399 9.663,21.419 9.534,21.413C9.286,21.402 9.053,21.298 8.882,21.124C8.712,20.949 8.616,20.717 8.617,20.476C8.617,20.234 8.712,20.002 8.884,19.828C9.055,19.654 9.288,19.551 9.535,19.54ZM13.374,19.54C13.621,19.551 13.855,19.654 14.026,19.829C14.197,20.003 14.292,20.235 14.292,20.477C14.292,20.718 14.197,20.95 14.026,21.124C13.855,21.299 13.621,21.402 13.374,21.413C13.127,21.402 12.894,21.299 12.723,21.124C12.552,20.95 12.456,20.718 12.456,20.477C12.456,20.235 12.552,20.003 12.723,19.829C12.894,19.654 13.127,19.551 13.374,19.54ZM5.696,15.795C5.824,15.791 5.952,15.812 6.072,15.857C6.192,15.903 6.302,15.971 6.394,16.058C6.486,16.145 6.56,16.25 6.61,16.366C6.66,16.481 6.686,16.605 6.686,16.731C6.686,16.856 6.66,16.98 6.61,17.096C6.56,17.212 6.486,17.316 6.394,17.403C6.302,17.491 6.192,17.559 6.072,17.604C5.952,17.65 5.824,17.671 5.696,17.667C5.447,17.659 5.21,17.557 5.037,17.382C4.863,17.208 4.766,16.974 4.766,16.731C4.766,16.488 4.863,16.254 5.037,16.079C5.21,15.904 5.447,15.802 5.696,15.795ZM9.535,15.795C9.79,15.795 10.034,15.893 10.214,16.069C10.394,16.244 10.495,16.483 10.495,16.731C10.495,16.979 10.394,17.217 10.214,17.393C10.034,17.568 9.79,17.667 9.535,17.667C9.281,17.667 9.037,17.568 8.857,17.393C8.677,17.217 8.576,16.979 8.576,16.731C8.576,16.483 8.677,16.244 8.857,16.069C9.037,15.893 9.281,15.795 9.535,15.795ZM13.374,15.795C13.503,15.791 13.631,15.812 13.751,15.857C13.871,15.903 13.981,15.971 14.073,16.058C14.166,16.146 14.239,16.25 14.289,16.366C14.34,16.482 14.366,16.606 14.366,16.732C14.366,16.857 14.34,16.982 14.289,17.097C14.239,17.213 14.166,17.318 14.073,17.405C13.981,17.492 13.871,17.561 13.751,17.606C13.631,17.651 13.503,17.673 13.374,17.669C13.125,17.661 12.888,17.559 12.714,17.384C12.541,17.209 12.444,16.975 12.444,16.732C12.444,16.488 12.541,16.254 12.714,16.079C12.888,15.904 13.125,15.802 13.374,15.795ZM17.213,15.795C17.342,15.791 17.47,15.812 17.59,15.857C17.71,15.903 17.82,15.971 17.912,16.058C18.004,16.146 18.078,16.25 18.128,16.366C18.178,16.482 18.204,16.606 18.204,16.732C18.204,16.857 18.178,16.982 18.128,17.097C18.078,17.213 18.004,17.318 17.912,17.405C17.82,17.492 17.71,17.561 17.59,17.606C17.47,17.651 17.342,17.673 17.213,17.669C16.964,17.661 16.727,17.559 16.553,17.384C16.38,17.209 16.282,16.975 16.282,16.732C16.282,16.488 16.38,16.254 16.553,16.079C16.727,15.904 16.964,15.802 17.213,15.795ZM21.052,15.795C21.18,15.791 21.308,15.812 21.428,15.857C21.548,15.903 21.658,15.971 21.75,16.058C21.842,16.145 21.916,16.25 21.966,16.366C22.016,16.481 22.042,16.605 22.042,16.731C22.042,16.856 22.016,16.98 21.966,17.096C21.916,17.212 21.842,17.316 21.75,17.403C21.658,17.491 21.548,17.559 21.428,17.604C21.308,17.65 21.18,17.671 21.052,17.667C20.803,17.659 20.566,17.557 20.393,17.382C20.219,17.208 20.122,16.974 20.122,16.731C20.122,16.488 20.219,16.254 20.393,16.079C20.566,15.904 20.803,15.802 21.052,15.795ZM9.535,12.049C9.661,12.049 9.786,12.074 9.902,12.121C10.019,12.168 10.125,12.237 10.214,12.323C10.303,12.41 10.373,12.513 10.421,12.627C10.47,12.74 10.494,12.862 10.494,12.985C10.494,13.108 10.47,13.23 10.421,13.343C10.373,13.457 10.303,13.56 10.214,13.647C10.125,13.733 10.019,13.802 9.902,13.849C9.786,13.896 9.661,13.921 9.535,13.921C9.281,13.921 9.037,13.822 8.857,13.647C8.678,13.471 8.576,13.233 8.576,12.985C8.576,12.737 8.678,12.499 8.857,12.323C9.037,12.148 9.281,12.049 9.535,12.049ZM13.374,12.049C13.504,12.044 13.633,12.064 13.755,12.108C13.876,12.153 13.987,12.221 14.081,12.308C14.175,12.396 14.25,12.501 14.301,12.618C14.352,12.734 14.378,12.859 14.378,12.986C14.378,13.113 14.352,13.238 14.301,13.354C14.25,13.471 14.175,13.576 14.081,13.663C13.987,13.751 13.876,13.819 13.755,13.864C13.633,13.908 13.504,13.928 13.374,13.922C13.127,13.912 12.894,13.808 12.723,13.634C12.552,13.459 12.456,13.227 12.456,12.986C12.456,12.745 12.552,12.512 12.723,12.338C12.894,12.164 13.127,12.06 13.374,12.049ZM17.213,12.049C17.343,12.044 17.472,12.064 17.594,12.108C17.715,12.153 17.826,12.221 17.92,12.308C18.014,12.396 18.089,12.501 18.14,12.618C18.191,12.734 18.217,12.859 18.217,12.986C18.217,13.113 18.191,13.238 18.14,13.354C18.089,13.471 18.014,13.576 17.92,13.663C17.826,13.751 17.715,13.819 17.594,13.864C17.472,13.908 17.343,13.928 17.213,13.922C16.966,13.912 16.732,13.808 16.561,13.634C16.39,13.459 16.295,13.227 16.295,12.986C16.295,12.745 16.39,12.512 16.561,12.338C16.732,12.164 16.966,12.06 17.213,12.049ZM21.052,12.049C21.306,12.049 21.55,12.148 21.73,12.323C21.91,12.499 22.012,12.737 22.012,12.985C22.012,13.233 21.911,13.471 21.731,13.647C21.551,13.823 21.307,13.921 21.053,13.922C20.927,13.922 20.802,13.897 20.686,13.85C20.569,13.803 20.463,13.735 20.374,13.648C20.285,13.561 20.214,13.458 20.166,13.344C20.118,13.231 20.093,13.109 20.093,12.986C20.093,12.863 20.117,12.741 20.166,12.628C20.214,12.514 20.284,12.411 20.373,12.324C20.463,12.237 20.568,12.168 20.685,12.121C20.801,12.074 20.926,12.049 21.052,12.049Z" clip-rule="evenodd" fill-rule="evenodd" fill="#0C5066"/>
</svg>
