<svg width="38" height="30" viewBox="0 0 38 30" fill="none" xmlns="http://www.w3.org/2000/svg" xmlns:xlink="http://www.w3.org/1999/xlink">
<path d="M31.708,-0.202L14.432,-0.202C13.251,-0.201 12.119,0.268 11.283,1.103C10.448,1.937 9.977,3.069 9.974,4.25L9.974,8.223L3.649,8.223C2.636,8.225 1.666,8.629 0.951,9.346C0.236,10.063 -0.166,11.035 -0.165,12.048L-0.165,20.448C-0.166,21.46 0.236,22.432 0.951,23.149C1.666,23.866 2.636,24.27 3.649,24.273L4.75,24.273L4.75,26.948C4.749,27.194 4.821,27.436 4.957,27.641C5.093,27.847 5.286,28.008 5.514,28.104C5.741,28.2 5.991,28.226 6.233,28.18C6.476,28.134 6.699,28.018 6.875,27.845L10.56,24.273L17.491,24.273C18.505,24.272 19.478,23.868 20.195,23.151C20.912,22.434 21.315,21.462 21.316,20.448L21.316,19.205L23.221,19.205L27.915,23.76C28.091,23.933 28.314,24.049 28.557,24.095C28.799,24.141 29.049,24.115 29.276,24.019C29.504,23.923 29.697,23.762 29.833,23.556C29.969,23.351 30.041,23.109 30.04,22.863L30.04,19.21L31.719,19.21C32.899,19.206 34.03,18.734 34.863,17.898C35.696,17.062 36.164,15.93 36.165,14.75L36.165,4.25C36.162,3.069 35.692,1.937 34.856,1.103C34.021,0.268 32.888,-0.201 31.708,-0.202ZM18.81,20.453C18.81,20.804 18.67,21.141 18.422,21.389C18.173,21.638 17.836,21.777 17.485,21.778L10.047,21.778C9.721,21.776 9.407,21.903 9.172,22.13L7.25,24L7.25,23.028C7.25,22.696 7.118,22.378 6.884,22.144C6.649,21.909 6.331,21.778 6,21.778L3.649,21.778C3.299,21.776 2.964,21.635 2.718,21.387C2.471,21.139 2.334,20.802 2.335,20.453L2.335,12.053C2.334,11.703 2.471,11.367 2.718,11.118C2.964,10.87 3.299,10.729 3.649,10.728L9.974,10.728L9.974,14.75C9.975,15.932 10.446,17.065 11.282,17.901C12.117,18.736 13.251,19.206 14.432,19.208L18.807,19.208L18.81,20.453ZM33.665,14.75C33.664,15.269 33.458,15.767 33.091,16.134C32.724,16.501 32.226,16.707 31.708,16.708L28.779,16.708C28.447,16.708 28.129,16.839 27.895,17.074C27.66,17.308 27.529,17.626 27.529,17.958L27.529,19.913L24.591,17.063C24.357,16.835 24.043,16.709 23.716,16.71L14.432,16.71C13.913,16.709 13.415,16.503 13.048,16.135C12.68,15.768 12.474,15.27 12.474,14.75L12.474,4.25C12.474,3.731 12.681,3.233 13.048,2.866C13.415,2.499 13.913,2.293 14.432,2.293L31.708,2.293C32.226,2.293 32.724,2.5 33.091,2.867C33.458,3.234 33.664,3.731 33.665,4.25L33.665,14.75Z" fill="#E4F0F3"/>
</svg>
