<svg width="162" height="162" viewBox="0 0 162 162" fill="none" xmlns="http://www.w3.org/2000/svg" xmlns:xlink="http://www.w3.org/1999/xlink">
<path d="M161.962,55.675C161.962,86.423 137.036,111.349 106.288,111.349C102.738,111.349 99.268,111.013 95.903,110.378L88.308,118.923C87.595,119.725 86.721,120.366 85.743,120.805C84.765,121.244 83.705,121.471 82.633,121.471L70.858,121.471L70.858,134.125C70.858,138.318 67.459,141.717 63.266,141.717L50.613,141.717L50.613,154.37C50.613,158.563 47.214,161.962 43.021,161.962L7.592,161.962C3.399,161.962 0,158.563 0,154.37L0,129.677C0,127.664 0.8,125.733 2.224,124.309L53.407,73.126C51.596,67.636 50.613,61.77 50.613,55.674C50.613,24.926 75.539,0 106.287,0C137.126,0 161.962,24.836 161.962,55.675ZM106.288,40.49C106.288,48.876 113.086,55.674 121.471,55.674C129.857,55.674 136.655,48.876 136.655,40.49C136.655,32.105 129.857,25.307 121.471,25.307C113.086,25.307 106.288,32.105 106.288,40.49Z" fill="#7BA8B7"/>
</svg>
