<svg width="38" height="38" viewBox="0 0 38 38" fill="none" xmlns="http://www.w3.org/2000/svg" xmlns:xlink="http://www.w3.org/1999/xlink">
<path d="M17.994,-0.745C7.654,-0.745 -0.755,7.663 -0.755,18.004C-0.755,28.343 7.654,36.753 17.994,36.753C28.335,36.753 36.743,28.343 36.743,18.004C36.743,7.663 28.335,-0.745 17.994,-0.745ZM17.994,1.745C26.984,1.745 34.253,9.014 34.253,18.004C34.253,26.992 26.984,34.253 17.994,34.253C9.006,34.253 1.745,26.992 1.745,18.004C1.745,9.014 9.006,1.745 17.994,1.745ZM17.999,4.25C15.304,4.25 12.669,5.046 10.424,6.532C10.287,6.623 10.17,6.739 10.078,6.876C9.986,7.012 9.922,7.165 9.889,7.326C9.857,7.487 9.856,7.652 9.888,7.814C9.919,7.975 9.982,8.128 10.072,8.265C10.163,8.402 10.28,8.52 10.416,8.611C10.552,8.703 10.705,8.767 10.866,8.8C11.027,8.833 11.193,8.833 11.354,8.802C11.515,8.77 11.669,8.708 11.806,8.617C13.642,7.4 15.796,6.751 17.999,6.75C19.477,6.747 20.941,7.036 22.307,7.6C23.673,8.165 24.914,8.993 25.959,10.039C27.005,11.084 27.833,12.325 28.397,13.691C28.962,15.057 29.251,16.521 29.248,17.999C29.248,24.226 24.226,29.248 17.999,29.248C16.521,29.251 15.057,28.962 13.691,28.397C12.325,27.833 11.084,27.004 10.039,25.959C8.993,24.914 8.165,23.673 7.6,22.307C7.036,20.941 6.747,19.477 6.75,17.999C6.75,15.797 7.402,13.644 8.619,11.805C8.803,11.529 8.869,11.191 8.803,10.866C8.737,10.541 8.545,10.255 8.268,10.072C7.992,9.889 7.654,9.823 7.329,9.888C7.004,9.954 6.718,10.147 6.535,10.423C5.046,12.67 4.252,15.304 4.25,17.999C4.247,25.578 10.421,31.748 17.999,31.748C25.577,31.748 31.748,25.577 31.748,17.999C31.748,10.421 25.579,4.247 17.999,4.25ZM17.976,9.227C17.812,9.23 17.65,9.265 17.499,9.331C17.349,9.397 17.212,9.491 17.098,9.61C16.984,9.728 16.895,9.868 16.835,10.021C16.775,10.174 16.746,10.337 16.749,10.502L16.749,18.004C16.752,18.333 16.884,18.648 17.118,18.88L22.12,23.88C22.232,24.011 22.37,24.117 22.525,24.192C22.68,24.267 22.849,24.309 23.021,24.316C23.193,24.322 23.365,24.293 23.525,24.231C23.686,24.168 23.831,24.072 23.953,23.951C24.075,23.829 24.17,23.683 24.233,23.523C24.296,23.362 24.325,23.191 24.318,23.018C24.312,22.846 24.27,22.677 24.195,22.522C24.12,22.367 24.013,22.229 23.882,22.117L19.249,17.476L19.249,10.502C19.252,10.334 19.222,10.167 19.159,10.011C19.096,9.854 19.003,9.713 18.884,9.594C18.765,9.475 18.624,9.381 18.468,9.318C18.312,9.255 18.145,9.224 17.976,9.227Z" clip-rule="evenodd" fill-rule="evenodd" fill="#0C5066"/>
</svg>
