<svg width="24" height="26" viewBox="0 0 24 26" fill="none" xmlns="http://www.w3.org/2000/svg" xmlns:xlink="http://www.w3.org/1999/xlink">
<path d="M12.474,4.558L12.474,5.494C12.457,6.325 11.092,6.798 10.66,5.891C10.603,5.766 10.573,5.631 10.571,5.494L10.571,4.558L7.718,4.558C6.985,4.523 6.495,3.581 6.999,3.008C7.172,2.811 7.312,2.704 7.718,2.685C8.668,2.685 9.62,2.682 10.571,2.676L10.571,1.749C10.568,1.649 10.585,1.55 10.619,1.456C10.744,1.08 11.12,0.813 11.541,0.813C12.049,0.832 12.462,1.206 12.474,1.749L12.474,2.665C14.376,2.654 16.278,2.643 18.181,2.653L18.181,1.749C18.191,1.248 18.562,0.834 19.113,0.813L19.151,0.813C19.659,0.832 20.072,1.206 20.083,1.749L20.083,2.67L21.105,2.686C22.563,2.731 23.86,3.965 23.887,5.46C23.924,11.101 23.924,16.742 23.887,22.384C23.861,23.833 22.588,25.13 21.07,25.159C14.705,25.197 8.34,25.197 1.975,25.159C0.509,25.131 -0.814,23.903 -0.843,22.384C-0.879,16.742 -0.879,11.101 -0.843,5.46C-0.816,4.001 0.453,2.695 2.008,2.685L2.962,2.685L2.962,1.749C2.959,1.649 2.975,1.55 3.009,1.456C3.135,1.08 3.511,0.813 3.931,0.813C4.44,0.832 4.853,1.206 4.864,1.749L4.864,5.494C4.847,6.324 3.522,6.789 3.067,5.925C2.999,5.791 2.963,5.644 2.962,5.494L2.962,4.554C2.637,4.552 2.312,4.553 1.987,4.558C1.504,4.573 1.074,4.989 1.059,5.471C0.953,11.104 0.953,16.739 1.059,22.372C1.074,22.849 1.497,23.27 1.987,23.285C8.343,23.401 14.701,23.401 21.058,23.285C21.541,23.27 21.97,22.854 21.986,22.372C22.091,16.74 22.091,11.103 21.986,5.471C21.971,5.229 21.865,5.001 21.689,4.832C21.512,4.663 21.278,4.565 21.031,4.558L20.083,4.558L20.083,5.494C20.067,6.317 18.737,6.781 18.287,5.925C18.219,5.791 18.183,5.644 18.181,5.494L18.181,4.558L12.474,4.558ZM3.912,19.54C4.04,19.536 4.167,19.557 4.286,19.603C4.405,19.648 4.513,19.716 4.605,19.804C4.697,19.891 4.769,19.996 4.819,20.111C4.869,20.227 4.895,20.351 4.895,20.477C4.895,20.603 4.869,20.727 4.819,20.843C4.769,20.958 4.697,21.063 4.605,21.15C4.513,21.238 4.405,21.306 4.286,21.352C4.167,21.397 4.04,21.418 3.912,21.414C3.665,21.406 3.43,21.304 3.258,21.129C3.086,20.954 2.99,20.721 2.99,20.477C2.99,20.234 3.086,20 3.258,19.825C3.43,19.65 3.665,19.548 3.912,19.54ZM7.718,19.54C7.846,19.534 7.975,19.555 8.095,19.599C8.215,19.644 8.325,19.712 8.418,19.8C8.511,19.887 8.585,19.993 8.635,20.109C8.686,20.226 8.712,20.351 8.712,20.478C8.712,20.604 8.685,20.729 8.635,20.846C8.584,20.962 8.51,21.067 8.417,21.155C8.324,21.242 8.214,21.31 8.093,21.355C7.973,21.399 7.844,21.419 7.716,21.413C7.471,21.402 7.24,21.298 7.07,21.124C6.901,20.949 6.807,20.717 6.807,20.476C6.807,20.234 6.902,20.002 7.072,19.828C7.241,19.654 7.473,19.551 7.718,19.54ZM11.522,19.54C11.767,19.551 11.999,19.654 12.168,19.829C12.338,20.003 12.432,20.235 12.432,20.477C12.432,20.718 12.338,20.95 12.168,21.124C11.999,21.299 11.767,21.402 11.522,21.413C11.277,21.402 11.046,21.299 10.877,21.124C10.707,20.95 10.613,20.718 10.613,20.477C10.613,20.235 10.707,20.003 10.877,19.829C11.046,19.654 11.277,19.551 11.522,19.54ZM3.912,15.795C4.04,15.791 4.167,15.812 4.285,15.857C4.404,15.903 4.513,15.971 4.604,16.058C4.696,16.145 4.769,16.25 4.818,16.366C4.868,16.481 4.894,16.605 4.894,16.731C4.894,16.856 4.868,16.98 4.818,17.096C4.769,17.212 4.696,17.316 4.604,17.403C4.513,17.491 4.404,17.559 4.285,17.604C4.167,17.65 4.04,17.671 3.912,17.667C3.665,17.659 3.431,17.557 3.259,17.382C3.087,17.208 2.991,16.974 2.991,16.731C2.991,16.488 3.087,16.254 3.259,16.079C3.431,15.904 3.665,15.802 3.912,15.795ZM7.718,15.795C7.97,15.795 8.212,15.893 8.39,16.069C8.568,16.244 8.669,16.483 8.669,16.731C8.669,16.979 8.568,17.217 8.39,17.393C8.212,17.568 7.97,17.667 7.718,17.667C7.466,17.667 7.224,17.568 7.045,17.393C6.867,17.217 6.767,16.979 6.767,16.731C6.767,16.483 6.867,16.244 7.045,16.069C7.224,15.893 7.466,15.795 7.718,15.795ZM11.522,15.795C11.65,15.791 11.777,15.812 11.896,15.857C12.015,15.903 12.123,15.971 12.215,16.058C12.307,16.146 12.38,16.25 12.429,16.366C12.479,16.482 12.505,16.606 12.505,16.732C12.505,16.857 12.479,16.982 12.429,17.097C12.38,17.213 12.307,17.318 12.215,17.405C12.123,17.492 12.015,17.561 11.896,17.606C11.777,17.651 11.65,17.673 11.522,17.669C11.275,17.661 11.041,17.559 10.868,17.384C10.696,17.209 10.6,16.975 10.6,16.732C10.6,16.488 10.696,16.254 10.868,16.079C11.041,15.904 11.275,15.802 11.522,15.795ZM15.327,15.795C15.454,15.791 15.582,15.812 15.701,15.857C15.82,15.903 15.928,15.971 16.02,16.058C16.111,16.146 16.184,16.25 16.234,16.366C16.284,16.482 16.309,16.606 16.309,16.732C16.309,16.857 16.284,16.982 16.234,17.097C16.184,17.213 16.111,17.318 16.02,17.405C15.928,17.492 15.82,17.561 15.701,17.606C15.582,17.651 15.454,17.673 15.327,17.669C15.08,17.661 14.845,17.559 14.673,17.384C14.501,17.209 14.405,16.975 14.405,16.732C14.405,16.488 14.501,16.254 14.673,16.079C14.845,15.904 15.08,15.802 15.327,15.795ZM19.132,15.795C19.259,15.791 19.386,15.812 19.505,15.857C19.624,15.903 19.732,15.971 19.824,16.058C19.915,16.145 19.988,16.25 20.038,16.366C20.087,16.481 20.113,16.605 20.113,16.731C20.113,16.856 20.087,16.98 20.038,17.096C19.988,17.212 19.915,17.316 19.824,17.403C19.732,17.491 19.624,17.559 19.505,17.604C19.386,17.65 19.259,17.671 19.132,17.667C18.885,17.659 18.65,17.557 18.478,17.382C18.306,17.208 18.21,16.974 18.21,16.731C18.21,16.488 18.306,16.254 18.478,16.079C18.65,15.904 18.885,15.802 19.132,15.795ZM7.718,12.049C7.843,12.049 7.966,12.074 8.081,12.121C8.197,12.168 8.302,12.237 8.39,12.323C8.478,12.41 8.548,12.513 8.596,12.627C8.644,12.74 8.668,12.862 8.668,12.985C8.668,13.108 8.644,13.23 8.596,13.343C8.548,13.457 8.478,13.56 8.39,13.647C8.302,13.733 8.197,13.802 8.081,13.849C7.966,13.896 7.843,13.921 7.718,13.921C7.466,13.921 7.224,13.822 7.046,13.647C6.867,13.471 6.767,13.233 6.767,12.985C6.767,12.737 6.867,12.499 7.046,12.323C7.224,12.148 7.466,12.049 7.718,12.049ZM11.522,12.049C11.651,12.044 11.779,12.064 11.9,12.108C12.02,12.153 12.13,12.221 12.223,12.308C12.316,12.396 12.39,12.501 12.441,12.617C12.491,12.734 12.517,12.859 12.517,12.986C12.517,13.113 12.491,13.238 12.441,13.354C12.39,13.471 12.316,13.576 12.223,13.664C12.13,13.751 12.02,13.819 11.9,13.864C11.779,13.908 11.651,13.928 11.522,13.923C11.277,13.912 11.046,13.808 10.877,13.634C10.707,13.459 10.613,13.227 10.613,12.986C10.613,12.745 10.707,12.512 10.877,12.338C11.046,12.164 11.277,12.06 11.522,12.049ZM15.327,12.049C15.455,12.044 15.584,12.064 15.704,12.108C15.825,12.153 15.935,12.221 16.028,12.308C16.121,12.396 16.195,12.501 16.245,12.617C16.296,12.734 16.322,12.859 16.322,12.986C16.322,13.113 16.296,13.238 16.245,13.354C16.195,13.471 16.121,13.576 16.028,13.664C15.935,13.751 15.825,13.819 15.704,13.864C15.584,13.908 15.455,13.928 15.327,13.923C15.082,13.912 14.851,13.808 14.681,13.634C14.512,13.459 14.417,13.227 14.417,12.986C14.417,12.745 14.512,12.512 14.681,12.338C14.851,12.164 15.082,12.06 15.327,12.049ZM19.132,12.049C19.384,12.049 19.626,12.148 19.804,12.323C19.982,12.499 20.083,12.737 20.083,12.985C20.083,13.233 19.983,13.471 19.805,13.647C19.626,13.823 19.385,13.921 19.132,13.922C19.008,13.922 18.884,13.897 18.769,13.85C18.653,13.803 18.548,13.735 18.46,13.648C18.372,13.561 18.301,13.458 18.254,13.344C18.206,13.231 18.181,13.109 18.181,12.986C18.181,12.863 18.206,12.741 18.253,12.628C18.301,12.514 18.371,12.411 18.459,12.324C18.548,12.237 18.652,12.168 18.768,12.121C18.883,12.074 19.007,12.049 19.132,12.049Z" clip-rule="evenodd" fill-rule="evenodd" fill="#0C5066"/>
</svg>
