<svg width="34" height="34" viewBox="0 0 34 34" fill="none" xmlns="http://www.w3.org/2000/svg" xmlns:xlink="http://www.w3.org/1999/xlink">
<path d="M17.249,4.744L17.249,5.993C17.226,7.1 15.435,7.731 14.869,6.521C14.793,6.355 14.753,6.175 14.751,5.993L14.751,4.744L11.006,4.744C10.045,4.698 9.401,3.441 10.062,2.677C10.29,2.415 10.474,2.273 11.006,2.246C12.254,2.246 13.502,2.243 14.751,2.235L14.751,0.999C14.748,0.866 14.769,0.733 14.814,0.608C14.979,0.106 15.472,-0.25 16.025,-0.25C16.691,-0.224 17.234,0.275 17.249,0.999L17.249,2.22C19.745,2.205 22.243,2.191 24.74,2.204L24.74,0.999C24.753,0.331 25.24,-0.221 25.964,-0.25L26.013,-0.25C26.68,-0.224 27.223,0.275 27.236,0.999L27.236,2.226L28.578,2.248C30.491,2.307 32.194,3.954 32.23,5.946C32.278,13.467 32.278,20.99 32.23,28.513C32.195,30.444 30.524,32.174 28.531,32.211C20.178,32.263 11.822,32.263 3.469,32.211C1.545,32.175 -0.192,30.538 -0.23,28.513C-0.278,20.99 -0.278,13.467 -0.23,5.946C-0.195,4.001 1.471,2.26 3.511,2.246L4.764,2.246L4.764,0.999C4.76,0.866 4.781,0.733 4.826,0.608C4.991,0.106 5.485,-0.25 6.036,-0.25C6.704,-0.224 7.246,0.275 7.26,0.999L7.26,5.993C7.239,7.099 5.499,7.719 4.902,6.566C4.813,6.388 4.765,6.192 4.764,5.993L4.764,4.739C4.337,4.735 3.91,4.737 3.484,4.744C2.85,4.764 2.286,5.319 2.266,5.961C2.127,13.472 2.127,20.985 2.266,28.496C2.286,29.131 2.841,29.694 3.484,29.714C11.827,29.869 20.173,29.869 28.516,29.714C29.15,29.694 29.714,29.139 29.734,28.496C29.873,20.986 29.873,13.471 29.734,5.961C29.715,5.639 29.576,5.335 29.344,5.109C29.112,4.884 28.804,4.753 28.481,4.744L27.236,4.744L27.236,5.993C27.215,7.089 25.47,7.708 24.879,6.566C24.79,6.388 24.742,6.192 24.74,5.993L24.74,4.744L17.249,4.744ZM6.011,24.72C6.179,24.715 6.345,24.743 6.502,24.804C6.658,24.864 6.8,24.955 6.921,25.072C7.041,25.188 7.136,25.328 7.202,25.482C7.267,25.636 7.301,25.802 7.301,25.969C7.301,26.137 7.267,26.303 7.202,26.457C7.136,26.611 7.041,26.751 6.921,26.867C6.8,26.984 6.658,27.075 6.502,27.135C6.345,27.196 6.179,27.224 6.011,27.219C5.687,27.208 5.379,27.072 5.153,26.839C4.927,26.606 4.801,26.294 4.801,25.969C4.801,25.645 4.927,25.333 5.153,25.1C5.379,24.866 5.687,24.73 6.011,24.72ZM11.006,24.72C11.175,24.713 11.343,24.739 11.501,24.799C11.659,24.859 11.804,24.949 11.926,25.066C12.048,25.183 12.145,25.323 12.211,25.479C12.277,25.634 12.311,25.801 12.311,25.97C12.311,26.139 12.276,26.306 12.21,26.461C12.143,26.616 12.046,26.757 11.924,26.873C11.802,26.99 11.657,27.08 11.499,27.139C11.341,27.199 11.172,27.225 11.004,27.218C10.682,27.203 10.379,27.065 10.157,26.832C9.934,26.599 9.811,26.289 9.811,25.968C9.811,25.646 9.936,25.336 10.158,25.104C10.381,24.872 10.685,24.734 11.006,24.72ZM16,24.72C16.322,24.734 16.625,24.872 16.848,25.105C17.07,25.337 17.194,25.647 17.194,25.969C17.194,26.291 17.07,26.6 16.848,26.833C16.625,27.065 16.322,27.203 16,27.218C15.678,27.203 15.375,27.065 15.152,26.833C14.93,26.6 14.806,26.291 14.806,25.969C14.806,25.647 14.93,25.337 15.152,25.105C15.375,24.872 15.678,24.734 16,24.72ZM6.011,19.726C6.178,19.721 6.345,19.749 6.501,19.81C6.657,19.87 6.8,19.961 6.92,20.078C7.04,20.194 7.135,20.333 7.201,20.487C7.266,20.641 7.299,20.807 7.299,20.974C7.299,21.142 7.266,21.307 7.201,21.461C7.135,21.615 7.04,21.755 6.92,21.871C6.8,21.988 6.657,22.079 6.501,22.139C6.345,22.199 6.178,22.228 6.011,22.222C5.687,22.212 5.38,22.076 5.154,21.843C4.928,21.61 4.802,21.299 4.802,20.974C4.802,20.65 4.928,20.338 5.154,20.105C5.38,19.873 5.687,19.737 6.011,19.726ZM11.006,19.726C11.337,19.726 11.655,19.858 11.889,20.092C12.123,20.326 12.254,20.643 12.254,20.974C12.254,21.305 12.123,21.623 11.889,21.857C11.655,22.091 11.337,22.222 11.006,22.222C10.675,22.222 10.358,22.091 10.124,21.857C9.89,21.623 9.758,21.305 9.758,20.974C9.758,20.643 9.89,20.326 10.124,20.092C10.358,19.858 10.675,19.726 11.006,19.726ZM16,19.726C16.167,19.721 16.334,19.749 16.49,19.81C16.647,19.87 16.789,19.961 16.909,20.078C17.03,20.194 17.125,20.334 17.191,20.488C17.256,20.642 17.29,20.808 17.29,20.976C17.29,21.143 17.256,21.309 17.191,21.463C17.125,21.617 17.03,21.757 16.909,21.873C16.789,21.99 16.647,22.081 16.49,22.141C16.334,22.202 16.167,22.23 16,22.225C15.675,22.215 15.368,22.079 15.142,21.845C14.916,21.612 14.79,21.3 14.79,20.976C14.79,20.651 14.916,20.339 15.142,20.106C15.368,19.873 15.675,19.737 16,19.726ZM20.994,19.726C21.161,19.721 21.328,19.749 21.484,19.81C21.64,19.87 21.783,19.961 21.903,20.078C22.023,20.194 22.119,20.334 22.184,20.488C22.25,20.642 22.283,20.808 22.283,20.976C22.283,21.143 22.25,21.309 22.184,21.463C22.119,21.617 22.023,21.757 21.903,21.873C21.783,21.99 21.64,22.081 21.484,22.141C21.328,22.202 21.161,22.23 20.994,22.225C20.669,22.215 20.361,22.079 20.136,21.845C19.91,21.612 19.783,21.3 19.783,20.976C19.783,20.651 19.91,20.339 20.136,20.106C20.361,19.873 20.669,19.737 20.994,19.726ZM25.988,19.726C26.155,19.721 26.321,19.749 26.477,19.81C26.633,19.87 26.776,19.961 26.896,20.078C27.016,20.194 27.112,20.333 27.177,20.487C27.242,20.641 27.276,20.807 27.276,20.974C27.276,21.142 27.242,21.307 27.177,21.461C27.112,21.615 27.016,21.755 26.896,21.871C26.776,21.988 26.633,22.079 26.477,22.139C26.321,22.199 26.155,22.228 25.988,22.222C25.663,22.212 25.356,22.076 25.13,21.843C24.904,21.61 24.778,21.299 24.778,20.974C24.778,20.65 24.904,20.338 25.13,20.105C25.356,19.873 25.663,19.737 25.988,19.726ZM11.006,14.733C11.17,14.733 11.332,14.765 11.484,14.827C11.635,14.89 11.773,14.982 11.888,15.098C12.004,15.214 12.096,15.351 12.159,15.503C12.221,15.654 12.254,15.816 12.254,15.98C12.254,16.144 12.221,16.306 12.159,16.457C12.096,16.609 12.004,16.746 11.888,16.862C11.773,16.978 11.635,17.07 11.484,17.133C11.332,17.195 11.17,17.227 11.006,17.227C10.675,17.227 10.358,17.096 10.124,16.862C9.89,16.628 9.759,16.311 9.759,15.98C9.759,15.649 9.89,15.332 10.124,15.098C10.358,14.864 10.675,14.733 11.006,14.733ZM16,14.733C16.169,14.725 16.337,14.752 16.495,14.811C16.653,14.87 16.798,14.961 16.92,15.078C17.042,15.195 17.139,15.335 17.205,15.49C17.272,15.645 17.306,15.812 17.306,15.981C17.306,16.15 17.272,16.317 17.205,16.472C17.139,16.628 17.042,16.768 16.92,16.885C16.798,17.001 16.653,17.092 16.495,17.151C16.337,17.211 16.169,17.238 16,17.23C15.678,17.216 15.375,17.078 15.152,16.845C14.93,16.613 14.806,16.303 14.806,15.981C14.806,15.659 14.93,15.35 15.152,15.117C15.375,14.885 15.678,14.747 16,14.733ZM20.994,14.733C21.162,14.725 21.331,14.752 21.489,14.811C21.647,14.87 21.792,14.961 21.914,15.078C22.036,15.195 22.133,15.335 22.199,15.49C22.265,15.645 22.3,15.812 22.3,15.981C22.3,16.15 22.265,16.317 22.199,16.472C22.133,16.628 22.036,16.768 21.914,16.885C21.792,17.001 21.647,17.092 21.489,17.151C21.331,17.211 21.162,17.238 20.994,17.23C20.672,17.216 20.369,17.078 20.146,16.845C19.924,16.613 19.8,16.303 19.8,15.981C19.8,15.659 19.924,15.35 20.146,15.117C20.369,14.885 20.672,14.747 20.994,14.733ZM25.988,14.733C26.319,14.732 26.636,14.864 26.87,15.098C27.104,15.332 27.236,15.649 27.236,15.98C27.236,16.311 27.105,16.629 26.871,16.863C26.637,17.097 26.32,17.229 25.989,17.229C25.825,17.229 25.663,17.197 25.511,17.134C25.36,17.071 25.222,16.979 25.106,16.864C24.99,16.748 24.898,16.61 24.835,16.459C24.772,16.307 24.74,16.145 24.74,15.981C24.74,15.817 24.772,15.655 24.835,15.504C24.897,15.352 24.989,15.214 25.105,15.099C25.221,14.983 25.359,14.891 25.51,14.828C25.661,14.765 25.824,14.733 25.988,14.733Z" clip-rule="evenodd" fill-rule="evenodd" fill="#0C5066"/>
</svg>
