<svg width="26" height="24" viewBox="0 0 26 24" fill="none" xmlns="http://www.w3.org/2000/svg" xmlns:xlink="http://www.w3.org/1999/xlink">
<path d="M12.798,2.85C14.582,2.85 16.027,4.26 16.027,6C16.027,7.74 14.582,9.15 12.798,9.15C11.015,9.15 9.57,7.74 9.57,6C9.57,4.26 11.015,2.85 12.798,2.85ZM12.798,16.35C17.365,16.35 22.177,18.54 22.177,19.5L22.177,21.15L3.42,21.15L3.42,19.5C3.42,18.54 8.232,16.35 12.798,16.35ZM12.798,0C9.401,0 6.649,2.685 6.649,6C6.649,9.315 9.401,12 12.798,12C16.196,12 18.948,9.315 18.948,6C18.948,2.685 16.196,0 12.798,0ZM12.798,13.5C8.694,13.5 0.499,15.51 0.499,19.5L0.499,22.5C0.499,23.325 1.191,24 2.036,24L23.56,24C24.406,24 25.098,23.325 25.098,22.5L25.098,19.5C25.098,15.51 16.903,13.5 12.798,13.5Z" fill="#1E6C85"/>
</svg>
