<svg width="26" height="26" viewBox="0 0 26 26" fill="none" xmlns="http://www.w3.org/2000/svg" xmlns:xlink="http://www.w3.org/1999/xlink">
<path d="M12.783,4.558L12.783,5.494C12.766,6.325 11.389,6.798 10.954,5.891C10.896,5.766 10.865,5.631 10.864,5.494L10.864,4.558L7.985,4.558C7.246,4.523 6.751,3.581 7.259,3.008C7.434,2.811 7.575,2.704 7.985,2.685C8.944,2.685 9.904,2.682 10.864,2.676L10.864,1.749C10.861,1.649 10.877,1.55 10.912,1.456C11.038,1.08 11.418,0.813 11.843,0.813C12.355,0.832 12.772,1.206 12.783,1.749L12.783,2.665C14.702,2.654 16.622,2.643 18.542,2.653L18.542,1.749C18.552,1.248 18.926,0.834 19.483,0.813L19.52,0.813C20.033,0.832 20.45,1.206 20.461,1.749L20.461,2.67L21.492,2.686C22.963,2.731 24.272,3.965 24.3,5.46C24.336,11.101 24.336,16.742 24.3,22.384C24.273,23.833 22.988,25.13 21.456,25.159C15.035,25.197 8.612,25.197 2.19,25.159C0.712,25.131 -0.624,23.903 -0.653,22.384C-0.689,16.742 -0.689,11.101 -0.653,5.46C-0.626,4.001 0.655,2.695 2.223,2.685L3.186,2.685L3.186,1.749C3.183,1.649 3.199,1.55 3.234,1.456C3.361,1.08 3.74,0.813 4.164,0.813C4.677,0.832 5.094,1.206 5.105,1.749L5.105,5.494C5.089,6.324 3.751,6.789 3.293,5.925C3.224,5.791 3.187,5.644 3.186,5.494L3.186,4.554C2.858,4.552 2.53,4.553 2.202,4.558C1.715,4.573 1.281,4.989 1.266,5.471C1.159,11.104 1.159,16.739 1.266,22.372C1.281,22.849 1.708,23.27 2.202,23.285C8.616,23.401 15.031,23.401 21.445,23.285C21.932,23.27 22.365,22.854 22.381,22.372C22.487,16.74 22.487,11.103 22.381,5.471C22.366,5.229 22.259,5.001 22.081,4.832C21.903,4.663 21.666,4.565 21.418,4.558L20.461,4.558L20.461,5.494C20.445,6.317 19.103,6.781 18.649,5.925C18.58,5.791 18.544,5.644 18.542,5.494L18.542,4.558L12.783,4.558ZM4.145,19.54C4.274,19.536 4.402,19.557 4.522,19.603C4.642,19.648 4.751,19.716 4.844,19.804C4.936,19.891 5.01,19.996 5.06,20.111C5.11,20.227 5.136,20.351 5.136,20.477C5.136,20.603 5.11,20.727 5.06,20.843C5.01,20.958 4.936,21.063 4.844,21.15C4.751,21.238 4.642,21.306 4.522,21.352C4.402,21.397 4.274,21.418 4.145,21.414C3.895,21.406 3.659,21.304 3.485,21.129C3.312,20.954 3.214,20.721 3.214,20.477C3.214,20.234 3.312,20 3.485,19.825C3.659,19.65 3.895,19.548 4.145,19.54ZM7.985,19.54C8.114,19.534 8.244,19.555 8.365,19.599C8.487,19.644 8.598,19.712 8.691,19.8C8.785,19.887 8.86,19.993 8.911,20.109C8.962,20.226 8.988,20.351 8.988,20.478C8.987,20.604 8.961,20.729 8.91,20.846C8.859,20.962 8.784,21.067 8.69,21.155C8.596,21.242 8.485,21.31 8.364,21.355C8.242,21.399 8.112,21.419 7.983,21.413C7.736,21.402 7.502,21.298 7.332,21.124C7.161,20.949 7.066,20.717 7.066,20.476C7.066,20.234 7.162,20.002 7.333,19.828C7.504,19.654 7.738,19.551 7.985,19.54ZM11.823,19.54C12.071,19.551 12.304,19.654 12.475,19.829C12.646,20.003 12.741,20.235 12.741,20.477C12.741,20.718 12.646,20.95 12.475,21.124C12.304,21.299 12.071,21.402 11.823,21.413C11.576,21.402 11.343,21.299 11.172,21.124C11.001,20.95 10.906,20.718 10.906,20.477C10.906,20.235 11.001,20.003 11.172,19.829C11.343,19.654 11.576,19.551 11.823,19.54ZM4.145,15.795C4.274,15.791 4.402,15.812 4.522,15.857C4.641,15.903 4.751,15.971 4.843,16.058C4.936,16.145 5.009,16.25 5.059,16.366C5.109,16.481 5.135,16.605 5.135,16.731C5.135,16.856 5.109,16.98 5.059,17.096C5.009,17.212 4.936,17.316 4.843,17.403C4.751,17.491 4.641,17.559 4.522,17.604C4.402,17.65 4.274,17.671 4.145,17.667C3.896,17.659 3.659,17.557 3.486,17.382C3.312,17.208 3.215,16.974 3.215,16.731C3.215,16.488 3.312,16.254 3.486,16.079C3.659,15.904 3.896,15.802 4.145,15.795ZM7.985,15.795C8.239,15.795 8.483,15.893 8.663,16.069C8.843,16.244 8.944,16.483 8.944,16.731C8.944,16.979 8.843,17.217 8.663,17.393C8.483,17.568 8.239,17.667 7.985,17.667C7.73,17.667 7.486,17.568 7.306,17.393C7.126,17.217 7.025,16.979 7.025,16.731C7.025,16.483 7.126,16.244 7.306,16.069C7.486,15.893 7.73,15.795 7.985,15.795ZM11.823,15.795C11.952,15.791 12.08,15.812 12.2,15.857C12.32,15.903 12.43,15.971 12.522,16.058C12.615,16.146 12.688,16.25 12.739,16.366C12.789,16.482 12.815,16.606 12.815,16.732C12.815,16.857 12.789,16.982 12.739,17.097C12.688,17.213 12.615,17.318 12.522,17.405C12.43,17.492 12.32,17.561 12.2,17.606C12.08,17.651 11.952,17.673 11.823,17.669C11.574,17.661 11.337,17.559 11.164,17.384C10.99,17.209 10.893,16.975 10.893,16.732C10.893,16.488 10.99,16.254 11.164,16.079C11.337,15.904 11.574,15.802 11.823,15.795ZM15.662,15.795C15.791,15.791 15.919,15.812 16.039,15.857C16.159,15.903 16.269,15.971 16.361,16.058C16.454,16.146 16.527,16.25 16.577,16.366C16.628,16.482 16.653,16.606 16.653,16.732C16.653,16.857 16.628,16.982 16.577,17.097C16.527,17.213 16.454,17.318 16.361,17.405C16.269,17.492 16.159,17.561 16.039,17.606C15.919,17.651 15.791,17.673 15.662,17.669C15.413,17.661 15.176,17.559 15.002,17.384C14.829,17.209 14.732,16.975 14.732,16.732C14.732,16.488 14.829,16.254 15.002,16.079C15.176,15.904 15.413,15.802 15.662,15.795ZM19.501,15.795C19.63,15.791 19.758,15.812 19.878,15.857C19.997,15.903 20.107,15.971 20.199,16.058C20.292,16.145 20.365,16.25 20.415,16.366C20.465,16.481 20.491,16.605 20.491,16.731C20.491,16.856 20.465,16.98 20.415,17.096C20.365,17.212 20.292,17.316 20.199,17.403C20.107,17.491 19.997,17.559 19.878,17.604C19.758,17.65 19.63,17.671 19.501,17.667C19.252,17.659 19.015,17.557 18.842,17.382C18.668,17.208 18.571,16.974 18.571,16.731C18.571,16.488 18.668,16.254 18.842,16.079C19.015,15.904 19.252,15.802 19.501,15.795ZM7.985,12.049C8.111,12.049 8.235,12.074 8.352,12.121C8.468,12.168 8.574,12.237 8.663,12.323C8.752,12.41 8.822,12.513 8.871,12.627C8.919,12.74 8.944,12.862 8.944,12.985C8.944,13.108 8.919,13.23 8.871,13.343C8.822,13.457 8.752,13.56 8.663,13.647C8.574,13.733 8.468,13.802 8.352,13.849C8.235,13.896 8.111,13.921 7.985,13.921C7.73,13.921 7.486,13.822 7.307,13.647C7.127,13.471 7.026,13.233 7.026,12.985C7.026,12.737 7.127,12.499 7.307,12.323C7.486,12.148 7.73,12.049 7.985,12.049ZM11.823,12.049C11.953,12.044 12.083,12.064 12.204,12.108C12.326,12.153 12.437,12.221 12.53,12.308C12.624,12.396 12.699,12.501 12.75,12.617C12.801,12.734 12.827,12.859 12.827,12.986C12.827,13.113 12.801,13.238 12.75,13.354C12.699,13.471 12.624,13.576 12.53,13.664C12.437,13.751 12.326,13.819 12.204,13.864C12.083,13.908 11.953,13.928 11.823,13.923C11.576,13.912 11.343,13.808 11.172,13.634C11.001,13.459 10.906,13.227 10.906,12.986C10.906,12.745 11.001,12.512 11.172,12.338C11.343,12.164 11.576,12.06 11.823,12.049ZM15.662,12.049C15.792,12.044 15.921,12.064 16.043,12.108C16.164,12.153 16.275,12.221 16.369,12.308C16.463,12.396 16.538,12.501 16.589,12.617C16.64,12.734 16.666,12.859 16.666,12.986C16.666,13.113 16.64,13.238 16.589,13.354C16.538,13.471 16.463,13.576 16.369,13.664C16.275,13.751 16.164,13.819 16.043,13.864C15.921,13.908 15.792,13.928 15.662,13.923C15.415,13.912 15.182,13.808 15.011,13.634C14.84,13.459 14.744,13.227 14.744,12.986C14.744,12.745 14.84,12.512 15.011,12.338C15.182,12.164 15.415,12.06 15.662,12.049ZM19.501,12.049C19.755,12.049 20,12.148 20.18,12.323C20.36,12.499 20.461,12.737 20.461,12.985C20.461,13.233 20.36,13.471 20.18,13.647C20,13.823 19.756,13.921 19.502,13.922C19.376,13.922 19.251,13.897 19.135,13.85C19.018,13.803 18.913,13.735 18.823,13.648C18.734,13.561 18.664,13.458 18.615,13.344C18.567,13.231 18.542,13.109 18.542,12.986C18.542,12.863 18.567,12.741 18.615,12.628C18.663,12.514 18.734,12.411 18.823,12.324C18.912,12.237 19.017,12.168 19.134,12.121C19.25,12.074 19.375,12.049 19.501,12.049Z" clip-rule="evenodd" fill-rule="evenodd" fill="#0C5066"/>
</svg>
