<svg width="30" height="38" viewBox="0 0 30 38" fill="none" xmlns="http://www.w3.org/2000/svg" xmlns:xlink="http://www.w3.org/1999/xlink">
<path d="M27.5,28.2L27.5,12.5C27.425,10.55 26.65,8.825 25.15,7.35C23.65,5.875 21.95,5.075 20,5L17.5,5L17.5,0L10,7.5L17.5,15L17.5,10L20,10C20.675,10.05 21.2,10.275 21.725,10.775C22.25,11.275 22.475,11.825 22.5,12.5L22.5,28.2C21.548,28.748 20.804,29.596 20.384,30.61C19.963,31.625 19.89,32.75 20.175,33.811C20.46,34.872 21.088,35.808 21.961,36.476C22.833,37.143 23.902,37.503 25,37.5C26.098,37.503 27.167,37.143 28.04,36.476C28.912,35.808 29.54,34.872 29.825,33.811C30.11,32.75 30.037,31.625 29.616,30.61C29.196,29.596 28.452,28.748 27.5,28.2ZM25,35.5C23.35,35.5 22,34.125 22,32.5C22,30.875 23.375,29.5 25,29.5C26.625,29.5 28,30.875 28,32.5C28,34.125 26.625,35.5 25,35.5ZM10,7.5C10,4.725 7.775,2.5 5,2.5C3.902,2.497 2.833,2.857 1.961,3.524C1.088,4.192 0.46,5.128 0.175,6.189C-0.11,7.25 -0.037,8.375 0.384,9.39C0.804,10.404 1.548,11.252 2.5,11.8L2.5,28.2C1.548,28.748 0.804,29.596 0.384,30.61C-0.037,31.625 -0.11,32.75 0.175,33.811C0.46,34.872 1.088,35.808 1.961,36.476C2.833,37.143 3.902,37.503 5,37.5C6.098,37.503 7.167,37.143 8.039,36.476C8.912,35.808 9.54,34.872 9.825,33.811C10.11,32.75 10.037,31.625 9.616,30.61C9.196,29.596 8.452,28.748 7.5,28.2L7.5,11.8C8.975,10.95 10,9.35 10,7.5ZM8,32.5C8,34.15 6.625,35.5 5,35.5C3.375,35.5 2,34.125 2,32.5C2,30.875 3.375,29.5 5,29.5C6.625,29.5 8,30.875 8,32.5ZM5,10.5C3.35,10.5 2,9.125 2,7.5C2,5.875 3.375,4.5 5,4.5C6.625,4.5 8,5.875 8,7.5C8,9.125 6.625,10.5 5,10.5Z" clip-rule="evenodd" fill-rule="evenodd" fill="#0C5066"/>
</svg>
