<svg width="26" height="24" viewBox="0 0 26 24" fill="none" xmlns="http://www.w3.org/2000/svg" xmlns:xlink="http://www.w3.org/1999/xlink">
<path d="M13.441,2.85C15.259,2.85 16.732,4.26 16.732,6C16.732,7.74 15.259,9.15 13.441,9.15C11.622,9.15 10.149,7.74 10.149,6C10.149,4.26 11.622,2.85 13.441,2.85ZM13.441,16.35C18.096,16.35 23.002,18.54 23.002,19.5L23.002,21.15L3.879,21.15L3.879,19.5C3.879,18.54 8.785,16.35 13.441,16.35ZM13.441,0C9.976,0 7.17,2.685 7.17,6C7.17,9.315 9.976,12 13.441,12C16.905,12 19.711,9.315 19.711,6C19.711,2.685 16.905,0 13.441,0ZM13.441,13.5C9.255,13.5 0.9,15.51 0.9,19.5L0.9,22.5C0.9,23.325 1.606,24 2.468,24L24.413,24C25.275,24 25.981,23.325 25.981,22.5L25.981,19.5C25.981,15.51 17.626,13.5 13.441,13.5Z" fill="#1E6C85"/>
</svg>
