<svg width="30" height="30" viewBox="0 0 30 30" fill="none" xmlns="http://www.w3.org/2000/svg" xmlns:xlink="http://www.w3.org/1999/xlink">
<path d="M14.103,0.941C6.155,0.941 -0.31,7.247 -0.31,15.003C-0.31,22.758 6.155,29.065 14.103,29.065C22.052,29.065 28.516,22.758 28.516,15.003C28.516,7.247 22.052,0.941 14.103,0.941ZM14.103,2.809C21.013,2.809 26.602,8.261 26.602,15.003C26.602,21.744 21.013,27.19 14.103,27.19C7.194,27.19 1.612,21.744 1.612,15.003C1.612,8.261 7.194,2.809 14.103,2.809ZM14.107,4.687C12.035,4.687 10.01,5.284 8.284,6.399C8.179,6.467 8.088,6.555 8.018,6.657C7.947,6.759 7.898,6.874 7.873,6.994C7.848,7.115 7.847,7.239 7.871,7.36C7.896,7.481 7.944,7.596 8.014,7.699C8.083,7.801 8.173,7.89 8.278,7.959C8.382,8.027 8.5,8.075 8.624,8.1C8.747,8.124 8.875,8.125 8.999,8.101C9.123,8.078 9.241,8.031 9.346,7.963C10.758,7.05 12.413,6.563 14.107,6.562C15.243,6.56 16.368,6.777 17.418,7.2C18.469,7.624 19.423,8.245 20.226,9.029C21.03,9.813 21.666,10.744 22.1,11.768C22.534,12.793 22.756,13.891 22.754,14.999C22.754,19.67 18.894,23.436 14.107,23.436C12.971,23.438 11.845,23.221 10.795,22.798C9.745,22.375 8.791,21.753 7.988,20.97C7.184,20.186 6.547,19.255 6.113,18.23C5.679,17.206 5.457,16.108 5.459,14.999C5.459,13.347 5.961,11.733 6.897,10.354C7.038,10.147 7.088,9.893 7.038,9.649C6.987,9.406 6.839,9.191 6.627,9.054C6.414,8.916 6.154,8.867 5.904,8.916C5.654,8.966 5.435,9.11 5.294,9.317C4.15,11.002 3.539,12.978 3.538,14.999C3.536,20.684 8.281,25.311 14.107,25.311C19.932,25.311 24.676,20.683 24.676,14.999C24.676,9.315 19.933,4.685 14.107,4.687ZM14.089,8.42C13.963,8.422 13.838,8.449 13.723,8.498C13.607,8.547 13.502,8.618 13.414,8.707C13.327,8.796 13.258,8.901 13.212,9.016C13.166,9.131 13.143,9.253 13.146,9.376L13.146,15.003C13.148,15.25 13.25,15.486 13.429,15.66L17.275,19.41C17.361,19.508 17.467,19.588 17.586,19.644C17.705,19.7 17.835,19.732 17.967,19.737C18.1,19.742 18.232,19.72 18.355,19.673C18.478,19.626 18.59,19.554 18.684,19.463C18.778,19.372 18.851,19.262 18.899,19.142C18.947,19.022 18.97,18.893 18.965,18.764C18.96,18.635 18.927,18.508 18.869,18.392C18.812,18.276 18.73,18.172 18.629,18.088L15.068,14.607L15.068,9.376C15.07,9.25 15.047,9.125 14.999,9.008C14.95,8.891 14.878,8.785 14.787,8.695C14.696,8.606 14.587,8.536 14.467,8.488C14.347,8.441 14.219,8.418 14.089,8.42Z" clip-rule="evenodd" fill-rule="evenodd" fill="#0C5066"/>
</svg>
