<svg width="30" height="30" viewBox="0 0 30 30" fill="none" xmlns="http://www.w3.org/2000/svg" xmlns:xlink="http://www.w3.org/1999/xlink">
<path d="M14.773,0.941C6.896,0.941 0.489,7.247 0.489,15.003C0.489,22.758 6.896,29.065 14.773,29.065C22.651,29.065 29.057,22.758 29.057,15.003C29.057,7.247 22.651,0.941 14.773,0.941ZM14.773,2.809C21.622,2.809 27.16,8.261 27.16,15.003C27.16,21.744 21.622,27.19 14.773,27.19C7.925,27.19 2.393,21.744 2.393,15.003C2.393,8.261 7.925,2.809 14.773,2.809ZM14.777,4.687C12.724,4.687 10.716,5.284 9.006,6.399C8.902,6.467 8.812,6.555 8.742,6.657C8.672,6.759 8.623,6.874 8.598,6.994C8.574,7.115 8.573,7.239 8.597,7.36C8.621,7.481 8.669,7.596 8.738,7.699C8.807,7.801 8.896,7.89 9,7.959C9.103,8.027 9.22,8.075 9.343,8.1C9.465,8.124 9.591,8.125 9.714,8.101C9.837,8.078 9.954,8.031 10.058,7.963C11.457,7.05 13.098,6.563 14.777,6.562C15.903,6.56 17.018,6.777 18.059,7.2C19.1,7.624 20.045,8.245 20.842,9.029C21.638,9.813 22.269,10.744 22.699,11.768C23.129,12.793 23.349,13.891 23.347,14.999C23.347,19.67 19.521,23.436 14.777,23.436C13.651,23.438 12.535,23.221 11.495,22.798C10.454,22.375 9.508,21.753 8.712,20.97C7.916,20.186 7.285,19.255 6.855,18.23C6.425,17.206 6.204,16.108 6.206,14.999C6.206,13.347 6.703,11.733 7.631,10.354C7.77,10.147 7.821,9.893 7.771,9.649C7.72,9.406 7.574,9.191 7.363,9.054C7.153,8.916 6.895,8.867 6.647,8.916C6.4,8.966 6.182,9.11 6.042,9.317C4.908,11.002 4.303,12.978 4.302,14.999C4.3,20.684 9.003,25.311 14.777,25.311C20.55,25.311 25.252,20.683 25.252,14.999C25.252,9.315 20.551,4.685 14.777,4.687ZM14.76,8.42C14.634,8.422 14.511,8.449 14.396,8.498C14.281,8.547 14.177,8.618 14.091,8.707C14.004,8.796 13.936,8.901 13.89,9.016C13.844,9.131 13.822,9.253 13.825,9.376L13.825,15.003C13.827,15.25 13.928,15.486 14.105,15.66L17.917,19.41C18.002,19.508 18.107,19.588 18.225,19.644C18.343,19.7 18.472,19.732 18.603,19.737C18.734,19.742 18.865,19.72 18.987,19.673C19.109,19.626 19.22,19.554 19.313,19.463C19.406,19.372 19.479,19.262 19.526,19.142C19.574,19.022 19.596,18.893 19.591,18.764C19.586,18.635 19.554,18.508 19.497,18.392C19.44,18.276 19.359,18.172 19.259,18.088L15.729,14.607L15.729,9.376C15.732,9.25 15.708,9.125 15.661,9.008C15.613,8.891 15.542,8.785 15.451,8.695C15.361,8.606 15.253,8.536 15.134,8.488C15.015,8.441 14.888,8.418 14.76,8.42Z" clip-rule="evenodd" fill-rule="evenodd" fill="#0C5066"/>
</svg>
