<svg width="30" height="26" viewBox="0 0 30 26" fill="none" xmlns="http://www.w3.org/2000/svg" xmlns:xlink="http://www.w3.org/1999/xlink">
<path d="M-1,3.167C-1,2.504 -0.737,1.868 -0.268,1.399C0.201,0.93 0.837,0.667 1.5,0.667L26.5,0.667C27.163,0.667 27.799,0.93 28.268,1.399C28.737,1.868 29,2.504 29,3.167C29,3.83 28.737,4.466 28.268,4.935C27.799,5.403 27.163,5.667 26.5,5.667L1.5,5.667C0.837,5.667 0.201,5.403 -0.268,4.935C-0.737,4.466 -1,3.83 -1,3.167ZM-1,13.167C-1,12.504 -0.737,11.868 -0.268,11.399C0.201,10.93 0.837,10.667 1.5,10.667L19.833,10.667C20.496,10.667 21.132,10.93 21.601,11.399C22.07,11.868 22.333,12.504 22.333,13.167C22.333,13.83 22.07,14.466 21.601,14.935C21.132,15.403 20.496,15.667 19.833,15.667L1.5,15.667C0.837,15.667 0.201,15.403 -0.268,14.935C-0.737,14.466 -1,13.83 -1,13.167ZM1.5,20.667C0.837,20.667 0.201,20.93 -0.268,21.399C-0.737,21.868 -1,22.504 -1,23.167C-1,23.83 -0.737,24.466 -0.268,24.935C0.201,25.403 0.837,25.667 1.5,25.667L13.167,25.667C13.83,25.667 14.466,25.403 14.934,24.935C15.403,24.466 15.667,23.83 15.667,23.167C15.667,22.504 15.403,21.868 14.934,21.399C14.466,20.93 13.83,20.667 13.167,20.667L1.5,20.667Z" fill="#E4F0F3"/>
</svg>
