<svg width="38" height="30" viewBox="0 0 38 30" fill="none" xmlns="http://www.w3.org/2000/svg" xmlns:xlink="http://www.w3.org/1999/xlink">
<path d="M31.708,-0.203L14.432,-0.203C13.251,-0.201 12.119,0.268 11.283,1.103C10.448,1.937 9.977,3.069 9.974,4.25L9.974,8.222L3.649,8.222C2.636,8.225 1.666,8.629 0.951,9.346C0.236,10.063 -0.166,11.035 -0.165,12.047L-0.165,20.447C-0.166,21.46 0.236,22.432 0.951,23.149C1.666,23.866 2.636,24.27 3.649,24.272L4.75,24.272L4.75,26.947C4.749,27.194 4.821,27.435 4.957,27.641C5.093,27.847 5.286,28.008 5.514,28.104C5.741,28.2 5.991,28.226 6.233,28.18C6.476,28.134 6.699,28.018 6.875,27.845L10.56,24.272L17.491,24.272C18.505,24.271 19.478,23.868 20.195,23.151C20.912,22.434 21.315,21.462 21.316,20.447L21.316,19.205L23.221,19.205L27.915,23.76C28.091,23.933 28.314,24.049 28.557,24.095C28.799,24.141 29.049,24.115 29.276,24.019C29.504,23.923 29.697,23.762 29.833,23.556C29.969,23.35 30.041,23.109 30.04,22.862L30.04,19.21L31.719,19.21C32.899,19.206 34.03,18.734 34.863,17.898C35.696,17.062 36.164,15.93 36.165,14.75L36.165,4.25C36.162,3.069 35.692,1.937 34.856,1.103C34.021,0.268 32.888,-0.201 31.708,-0.203ZM18.81,20.452C18.81,20.804 18.67,21.141 18.422,21.389C18.173,21.637 17.836,21.777 17.485,21.777L10.047,21.777C9.721,21.776 9.407,21.903 9.172,22.13L7.25,24L7.25,23.027C7.25,22.696 7.118,22.378 6.884,22.144C6.649,21.909 6.331,21.777 6,21.777L3.649,21.777C3.299,21.776 2.964,21.635 2.718,21.387C2.471,21.138 2.334,20.802 2.335,20.452L2.335,12.052C2.334,11.703 2.471,11.366 2.718,11.118C2.964,10.87 3.299,10.729 3.649,10.727L9.974,10.727L9.974,14.75C9.975,15.932 10.446,17.065 11.282,17.9C12.117,18.736 13.251,19.206 14.432,19.207L18.807,19.207L18.81,20.452ZM33.665,14.75C33.664,15.269 33.458,15.766 33.091,16.133C32.724,16.5 32.226,16.707 31.708,16.707L28.779,16.707C28.447,16.707 28.129,16.839 27.895,17.073C27.66,17.308 27.529,17.626 27.529,17.957L27.529,19.912L24.591,17.062C24.357,16.835 24.043,16.709 23.716,16.71L14.432,16.71C13.913,16.709 13.415,16.502 13.048,16.135C12.68,15.768 12.474,15.269 12.474,14.75L12.474,4.25C12.474,3.731 12.681,3.233 13.048,2.866C13.415,2.499 13.913,2.293 14.432,2.292L31.708,2.292C32.226,2.293 32.724,2.499 33.091,2.866C33.458,3.233 33.664,3.731 33.665,4.25L33.665,14.75Z" fill="#E4F0F3"/>
</svg>
