<svg width="26" height="26" viewBox="0 0 26 26" fill="none" xmlns="http://www.w3.org/2000/svg" xmlns:xlink="http://www.w3.org/1999/xlink">
<path d="M13.464,4.558L13.464,5.494C13.447,6.325 12.043,6.798 11.599,5.891C11.54,5.766 11.508,5.631 11.507,5.494L11.507,4.558L8.572,4.558C7.818,4.523 7.314,3.581 7.832,3.008C8.01,2.811 8.154,2.704 8.572,2.685C9.549,2.685 10.528,2.682 11.507,2.676L11.507,1.749C11.504,1.649 11.521,1.55 11.556,1.456C11.685,1.08 12.072,0.813 12.505,0.813C13.027,0.832 13.452,1.206 13.464,1.749L13.464,2.665C15.421,2.654 17.378,2.643 19.336,2.653L19.336,1.749C19.345,1.248 19.727,0.834 20.295,0.813L20.333,0.813C20.856,0.832 21.281,1.206 21.292,1.749L21.292,2.67L22.343,2.686C23.843,2.731 25.177,3.965 25.206,5.46C25.243,11.101 25.243,16.742 25.206,22.384C25.178,23.833 23.869,25.13 22.307,25.159C15.76,25.197 9.211,25.197 2.664,25.159C1.156,25.131 -0.206,23.903 -0.235,22.384C-0.272,16.742 -0.272,11.101 -0.235,5.46C-0.208,4.001 1.098,2.695 2.697,2.685L3.679,2.685L3.679,1.749C3.676,1.649 3.692,1.55 3.728,1.456C3.857,1.08 4.244,0.813 4.676,0.813C5.199,0.832 5.625,1.206 5.635,1.749L5.635,5.494C5.619,6.324 4.255,6.789 3.788,5.925C3.717,5.791 3.68,5.644 3.679,5.494L3.679,4.554C3.344,4.552 3.01,4.553 2.676,4.558C2.179,4.573 1.737,4.989 1.721,5.471C1.612,11.104 1.612,16.739 1.721,22.372C1.737,22.849 2.172,23.27 2.676,23.285C9.215,23.401 15.756,23.401 22.295,23.285C22.792,23.27 23.234,22.854 23.249,22.372C23.358,16.74 23.358,11.103 23.249,5.471C23.235,5.229 23.126,5.001 22.944,4.832C22.762,4.663 22.521,4.565 22.268,4.558L21.292,4.558L21.292,5.494C21.275,6.317 19.908,6.781 19.444,5.925C19.374,5.791 19.337,5.644 19.336,5.494L19.336,4.558L13.464,4.558ZM4.657,19.54C4.788,19.536 4.919,19.557 5.041,19.603C5.163,19.648 5.275,19.716 5.369,19.804C5.464,19.891 5.539,19.996 5.59,20.111C5.641,20.227 5.667,20.351 5.667,20.477C5.667,20.603 5.641,20.727 5.59,20.843C5.539,20.958 5.464,21.063 5.369,21.15C5.275,21.238 5.163,21.306 5.041,21.352C4.919,21.397 4.788,21.418 4.657,21.414C4.402,21.406 4.161,21.304 3.984,21.129C3.807,20.954 3.708,20.721 3.708,20.477C3.708,20.234 3.807,20 3.984,19.825C4.161,19.65 4.402,19.548 4.657,19.54ZM8.572,19.54C8.704,19.534 8.836,19.555 8.96,19.599C9.083,19.644 9.197,19.712 9.292,19.8C9.388,19.887 9.464,19.993 9.516,20.109C9.568,20.226 9.594,20.351 9.594,20.478C9.594,20.604 9.567,20.729 9.515,20.846C9.463,20.962 9.386,21.067 9.291,21.155C9.195,21.242 9.082,21.31 8.958,21.355C8.834,21.399 8.702,21.419 8.57,21.413C8.318,21.402 8.08,21.298 7.906,21.124C7.731,20.949 7.634,20.717 7.635,20.476C7.635,20.234 7.732,20.002 7.907,19.828C8.081,19.654 8.32,19.551 8.572,19.54ZM12.485,19.54C12.737,19.551 12.975,19.654 13.15,19.829C13.324,20.003 13.421,20.235 13.421,20.477C13.421,20.718 13.324,20.95 13.15,21.124C12.975,21.299 12.737,21.402 12.485,21.413C12.233,21.402 11.996,21.299 11.821,21.124C11.647,20.95 11.55,20.718 11.55,20.477C11.55,20.235 11.647,20.003 11.821,19.829C11.996,19.654 12.233,19.551 12.485,19.54ZM4.657,15.795C4.788,15.791 4.918,15.812 5.041,15.857C5.163,15.903 5.274,15.971 5.369,16.058C5.463,16.145 5.538,16.25 5.589,16.366C5.64,16.481 5.666,16.605 5.666,16.731C5.666,16.856 5.64,16.98 5.589,17.096C5.538,17.212 5.463,17.316 5.369,17.403C5.274,17.491 5.163,17.559 5.041,17.604C4.918,17.65 4.788,17.671 4.657,17.667C4.403,17.659 4.162,17.557 3.985,17.382C3.808,17.208 3.709,16.974 3.709,16.731C3.709,16.488 3.808,16.254 3.985,16.079C4.162,15.904 4.403,15.802 4.657,15.795ZM8.572,15.795C8.831,15.795 9.08,15.893 9.263,16.069C9.447,16.244 9.55,16.483 9.55,16.731C9.55,16.979 9.447,17.217 9.263,17.393C9.08,17.568 8.831,17.667 8.572,17.667C8.312,17.667 8.063,17.568 7.88,17.393C7.696,17.217 7.593,16.979 7.593,16.731C7.593,16.483 7.696,16.244 7.88,16.069C8.063,15.893 8.312,15.795 8.572,15.795ZM12.485,15.795C12.617,15.791 12.747,15.812 12.87,15.857C12.992,15.903 13.104,15.971 13.198,16.058C13.292,16.146 13.367,16.25 13.419,16.366C13.47,16.482 13.496,16.606 13.496,16.732C13.496,16.857 13.47,16.982 13.419,17.097C13.367,17.213 13.292,17.318 13.198,17.405C13.104,17.492 12.992,17.561 12.87,17.606C12.747,17.651 12.617,17.673 12.485,17.669C12.231,17.661 11.99,17.559 11.813,17.384C11.636,17.209 11.537,16.975 11.537,16.732C11.537,16.488 11.636,16.254 11.813,16.079C11.99,15.904 12.231,15.802 12.485,15.795ZM16.399,15.795C16.531,15.791 16.661,15.812 16.784,15.857C16.906,15.903 17.018,15.971 17.112,16.058C17.206,16.146 17.281,16.25 17.332,16.366C17.384,16.482 17.41,16.606 17.41,16.732C17.41,16.857 17.384,16.982 17.332,17.097C17.281,17.213 17.206,17.318 17.112,17.405C17.018,17.492 16.906,17.561 16.784,17.606C16.661,17.651 16.531,17.673 16.399,17.669C16.145,17.661 15.904,17.559 15.727,17.384C15.55,17.209 15.451,16.975 15.451,16.732C15.451,16.488 15.55,16.254 15.727,16.079C15.904,15.904 16.145,15.802 16.399,15.795ZM20.313,15.795C20.444,15.791 20.575,15.812 20.697,15.857C20.819,15.903 20.931,15.971 21.025,16.058C21.119,16.145 21.194,16.25 21.245,16.366C21.297,16.481 21.323,16.605 21.323,16.731C21.323,16.856 21.297,16.98 21.245,17.096C21.194,17.212 21.119,17.316 21.025,17.403C20.931,17.491 20.819,17.559 20.697,17.604C20.575,17.65 20.444,17.671 20.313,17.667C20.059,17.659 19.818,17.557 19.641,17.382C19.464,17.208 19.366,16.974 19.366,16.731C19.366,16.488 19.464,16.254 19.641,16.079C19.818,15.904 20.059,15.802 20.313,15.795ZM8.572,12.049C8.7,12.049 8.827,12.074 8.946,12.121C9.064,12.168 9.172,12.237 9.263,12.323C9.354,12.41 9.426,12.513 9.475,12.627C9.524,12.74 9.549,12.862 9.549,12.985C9.549,13.108 9.524,13.23 9.475,13.343C9.426,13.457 9.354,13.56 9.263,13.647C9.172,13.733 9.064,13.802 8.946,13.849C8.827,13.896 8.7,13.921 8.572,13.921C8.312,13.921 8.064,13.822 7.88,13.647C7.697,13.471 7.594,13.233 7.594,12.985C7.594,12.737 7.697,12.499 7.88,12.323C8.064,12.148 8.312,12.049 8.572,12.049ZM12.485,12.049C12.618,12.044 12.75,12.064 12.874,12.108C12.998,12.153 13.111,12.221 13.206,12.308C13.302,12.396 13.378,12.501 13.43,12.617C13.482,12.734 13.509,12.859 13.509,12.986C13.509,13.113 13.482,13.238 13.43,13.354C13.378,13.471 13.302,13.576 13.206,13.664C13.111,13.751 12.998,13.819 12.874,13.864C12.75,13.908 12.618,13.928 12.485,13.923C12.233,13.912 11.996,13.808 11.821,13.634C11.647,13.459 11.55,13.227 11.55,12.986C11.55,12.745 11.647,12.512 11.821,12.338C11.996,12.164 12.233,12.06 12.485,12.049ZM16.399,12.049C16.532,12.044 16.664,12.064 16.788,12.108C16.911,12.153 17.025,12.221 17.12,12.308C17.216,12.396 17.292,12.501 17.344,12.617C17.396,12.734 17.423,12.859 17.423,12.986C17.423,13.113 17.396,13.238 17.344,13.354C17.292,13.471 17.216,13.576 17.12,13.664C17.025,13.751 16.911,13.819 16.788,13.864C16.664,13.908 16.532,13.928 16.399,13.923C16.147,13.912 15.909,13.808 15.735,13.634C15.561,13.459 15.463,13.227 15.463,12.986C15.463,12.745 15.561,12.512 15.735,12.338C15.909,12.164 16.147,12.06 16.399,12.049ZM20.313,12.049C20.573,12.049 20.822,12.148 21.005,12.323C21.189,12.499 21.292,12.737 21.292,12.985C21.292,13.233 21.189,13.471 21.006,13.647C20.822,13.823 20.574,13.921 20.314,13.922C20.186,13.922 20.059,13.897 19.94,13.85C19.821,13.803 19.713,13.735 19.622,13.648C19.532,13.561 19.459,13.458 19.41,13.344C19.361,13.231 19.336,13.109 19.336,12.986C19.335,12.863 19.361,12.741 19.41,12.628C19.459,12.514 19.531,12.411 19.622,12.324C19.712,12.237 19.82,12.168 19.939,12.121C20.058,12.074 20.185,12.049 20.313,12.049Z" clip-rule="evenodd" fill-rule="evenodd" fill="#0C5066"/>
</svg>
