<svg width="30" height="30" viewBox="0 0 30 30" fill="none" xmlns="http://www.w3.org/2000/svg" xmlns:xlink="http://www.w3.org/1999/xlink">
<path d="M13.654,0.941C5.706,0.941 -0.759,7.248 -0.759,15.003C-0.759,22.758 5.706,29.065 13.654,29.065C21.603,29.065 28.066,22.758 28.066,15.003C28.066,7.248 21.603,0.941 13.654,0.941ZM13.654,2.809C20.564,2.809 26.152,8.261 26.152,15.003C26.152,21.744 20.564,27.19 13.654,27.19C6.744,27.19 1.163,21.744 1.163,15.003C1.163,8.261 6.744,2.809 13.654,2.809ZM13.658,4.687C11.586,4.687 9.561,5.285 7.835,6.399C7.73,6.467 7.639,6.555 7.569,6.657C7.498,6.759 7.449,6.874 7.424,6.994C7.399,7.115 7.398,7.24 7.422,7.36C7.446,7.481 7.495,7.596 7.565,7.699C7.634,7.802 7.724,7.89 7.829,7.959C7.933,8.028 8.051,8.076 8.175,8.1C8.298,8.125 8.426,8.125 8.55,8.102C8.674,8.078 8.791,8.031 8.897,7.963C10.309,7.051 11.964,6.563 13.658,6.562C14.794,6.56 15.919,6.777 16.969,7.201C18.019,7.624 18.974,8.245 19.777,9.029C20.58,9.813 21.217,10.744 21.651,11.768C22.085,12.793 22.307,13.891 22.305,14.999C22.305,19.67 18.445,23.436 13.658,23.436C12.522,23.438 11.396,23.222 10.346,22.798C9.296,22.375 8.342,21.754 7.538,20.97C6.735,20.186 6.098,19.255 5.664,18.23C5.23,17.206 5.008,16.108 5.01,14.999C5.01,13.348 5.512,11.733 6.448,10.354C6.588,10.147 6.639,9.894 6.589,9.65C6.538,9.406 6.39,9.192 6.178,9.054C5.965,8.917 5.705,8.867 5.455,8.917C5.205,8.966 4.986,9.11 4.845,9.318C3.701,11.002 3.09,12.978 3.088,14.999C3.087,20.684 7.832,25.311 13.658,25.311C19.483,25.311 24.227,20.683 24.227,14.999C24.227,9.316 19.484,4.686 13.658,4.687ZM13.64,8.42C13.514,8.423 13.389,8.449 13.274,8.498C13.158,8.548 13.053,8.619 12.965,8.708C12.878,8.796 12.809,8.901 12.763,9.016C12.717,9.131 12.694,9.253 12.697,9.377L12.697,15.003C12.699,15.25 12.801,15.486 12.98,15.66L16.826,19.41C16.912,19.508 17.018,19.588 17.137,19.644C17.256,19.701 17.386,19.732 17.518,19.737C17.651,19.742 17.783,19.72 17.906,19.673C18.029,19.626 18.141,19.555 18.235,19.463C18.328,19.372 18.402,19.263 18.45,19.142C18.498,19.022 18.521,18.893 18.516,18.764C18.51,18.635 18.478,18.508 18.42,18.392C18.363,18.276 18.281,18.172 18.18,18.088L14.619,14.608L14.619,9.377C14.621,9.25 14.598,9.125 14.549,9.008C14.501,8.891 14.429,8.785 14.338,8.695C14.247,8.606 14.138,8.536 14.018,8.489C13.898,8.441 13.77,8.418 13.64,8.42Z" clip-rule="evenodd" fill-rule="evenodd" fill="#0C5066"/>
</svg>
